SplineFontDB: 3.0
FontName: Asap-Bold
FullName: Asap-Bold
FamilyName: Asap
Weight: Bold
Copyright: Copyright (c) 2011-2013, Omnibus-Type (www.omnibus-type.com omnibus.type@gmail.com) with Reserved Font Name 'Asap'

StartChar: .notdef
Encoding: 65536 -1 0
Width: 514
Flags: MW
HStem: 0 50<87 427 87 507> 650 50<86 426 86 86>
VStem: 7 49<95 95 95 605> 456 51<95 605 605 605>
LayerCount: 2
UndoRedoHistory
Layer: 1
Undoes
EndUndoes
Redoes
EndRedoes
EndUndoRedoHistory
Fore
SplineSet
7 700 m 1,0,-1
 507 700 l 1,1,-1
 507 0 l 1,2,-1
 7 0 l 1,3,-1
 7 700 l 1,0,-1
426 650 m 1,4,-1
 86 650 l 1,5,-1
 257 395 l 1,6,-1
 426 650 l 1,4,-1
56 95 m 1,7,-1
 227 350 l 1,8,-1
 56 605 l 1,9,-1
 56 95 l 1,7,-1
456 95 m 1,10,-1
 456 605 l 1,11,-1
 287 350 l 1,12,-1
 456 95 l 1,10,-1
427 50 m 1,13,-1
 256 305 l 1,14,-1
 87 50 l 1,15,-1
 427 50 l 1,13,-1
EndSplineSet
Validated: 1
EndChar

StartChar: A
Encoding: 65 65 1
Width: 613
Flags: MW
HStem: -2 21G 141 132<230 380 230 423 187 380> 682 20G<281 333 333 347.5>
VStem: 0 613<13 22.5>
LayerCount: 2
UndoRedoHistory
Layer: 1
Undoes
EndUndoes
Redoes
EndRedoes
EndUndoRedoHistory
Fore
SplineSet
333 702 m 2,0,1
 382 702 382 702 390 681 c 2,2,-1
 610 38 l 2,3,4
 613 28 613 28 613 20 c 0,5,6
 613 -2 613 -2 563 -2 c 2,7,-1
 519 -2 l 2,8,9
 470 -2 470 -2 463 19 c 2,10,-1
 423 141 l 1,11,-1
 187 141 l 1,12,-1
 147 19 l 2,13,14
 140 -2 140 -2 101 -2 c 2,15,-1
 61 -2 l 2,16,17
 0 -2 0 -2 0 20 c 0,18,19
 0 24 0 24 4 38 c 2,20,-1
 224 681 l 2,21,22
 232 702 232 702 281 702 c 2,23,-1
 333 702 l 2,0,1
304 515 m 1,24,25
 295 466 295 466 289 451 c 2,26,-1
 230 273 l 1,27,-1
 380 273 l 1,28,-1
 323 451 l 2,29,30
 316 471 316 471 308 515 c 1,31,-1
 304 515 l 1,24,25
EndSplineSet
Validated: 1
Substitution2: "Single Substitution lookup 21 subtable" ordfeminine
Substitution2: "'aalt' Access All Alternates lookup 0 subtable" ordfeminine
Position2: "'cpsp' Capital Spacing lookup 3 subtable" dx=5 dy=0 dh=10 dv=0
EndChar

StartChar: Aacute
Encoding: 193 193 2
Width: 613
Flags: MW
HStem: -2 21G 141 132<230 380 230 423 187 380> 682 20G<281 333 333 347.5> 752 159<256 407>
VStem: 0 613<13 22.5>
LayerCount: 2
UndoRedoHistory
Layer: 1
Undoes
EndUndoes
Redoes
EndRedoes
EndUndoRedoHistory
Fore
SplineSet
387 911 m 0,0,1
 447 911 447 911 447 897 c 0,2,3
 447 891 447 891 441 883 c 128,-1,4
 435 875 435 875 410 849 c 0,5,6
 399 838 399 838 392 830.5 c 128,-1,7
 385 823 385 823 371 807.5 c 128,-1,8
 357 792 357 792 343 777 c 0,9,10
 320 752 320 752 268 752 c 0,11,12
 237 752 237 752 237 767 c 0,13,14
 237 770 237 770 239 775 c 128,-1,15
 241 780 241 780 246.5 790 c 128,-1,16
 252 800 252 800 259 810.5 c 128,-1,17
 266 821 266 821 278 842 c 128,-1,18
 290 863 290 863 302 884 c 0,19,20
 317 911 317 911 387 911 c 0,0,1
333 702 m 2,21,22
 382 702 382 702 390 681 c 2,23,-1
 610 38 l 2,24,25
 613 28 613 28 613 20 c 0,26,27
 613 -2 613 -2 563 -2 c 2,28,-1
 519 -2 l 2,29,30
 470 -2 470 -2 463 19 c 2,31,-1
 423 141 l 1,32,-1
 187 141 l 1,33,-1
 147 19 l 2,34,35
 140 -2 140 -2 101 -2 c 2,36,-1
 61 -2 l 2,37,38
 0 -2 0 -2 0 20 c 0,39,40
 0 24 0 24 4 38 c 2,41,-1
 224 681 l 2,42,43
 232 702 232 702 281 702 c 2,44,-1
 333 702 l 2,21,22
304 515 m 1,45,46
 295 466 295 466 289 451 c 2,47,-1
 230 273 l 1,48,-1
 380 273 l 1,49,-1
 323 451 l 2,50,51
 316 471 316 471 308 515 c 1,52,-1
 304 515 l 1,45,46
EndSplineSet
Validated: 1
Position2: "'cpsp' Capital Spacing lookup 3 subtable" dx=5 dy=0 dh=10 dv=0
EndChar

StartChar: Abreve
Encoding: 258 258 3
Width: 613
Flags: MW
HStem: -2 21G 141 132<230 380 230 423 187 380> 682 20G<281 333 333 347.5> 752 91<281.5 334 281.5 350.5>
VStem: 0 613<13 22.5>
LayerCount: 2
UndoRedoHistory
Layer: 1
Undoes
EndUndoes
Redoes
EndRedoes
EndUndoRedoHistory
Fore
SplineSet
419 892 m 0,0,1
 454 892 454 892 454 864 c 0,2,3
 454 820 454 820 412 786 c 128,-1,4
 370 752 370 752 307 752 c 128,-1,5
 244 752 244 752 202 786 c 128,-1,6
 160 820 160 820 160 864 c 0,7,8
 160 892 160 892 195 892 c 0,9,10
 212 892 212 892 228 874 c 0,11,12
 237 864 237 864 243 859 c 128,-1,13
 249 854 249 854 266 848.5 c 128,-1,14
 283 843 283 843 307 843 c 0,15,16
 332 843 332 843 350 849.5 c 128,-1,17
 368 856 368 856 373 860.5 c 128,-1,18
 378 865 378 865 388 876 c 0,19,20
 402 892 402 892 419 892 c 0,0,1
333 702 m 2,21,22
 382 702 382 702 390 681 c 2,23,-1
 610 38 l 2,24,25
 613 28 613 28 613 20 c 0,26,27
 613 -2 613 -2 563 -2 c 2,28,-1
 519 -2 l 2,29,30
 470 -2 470 -2 463 19 c 2,31,-1
 423 141 l 1,32,-1
 187 141 l 1,33,-1
 147 19 l 2,34,35
 140 -2 140 -2 101 -2 c 2,36,-1
 61 -2 l 2,37,38
 0 -2 0 -2 0 20 c 0,39,40
 0 24 0 24 4 38 c 2,41,-1
 224 681 l 2,42,43
 232 702 232 702 281 702 c 2,44,-1
 333 702 l 2,21,22
304 515 m 1,45,46
 295 466 295 466 289 451 c 2,47,-1
 230 273 l 1,48,-1
 380 273 l 1,49,-1
 323 451 l 2,50,51
 316 471 316 471 308 515 c 1,52,-1
 304 515 l 1,45,46
EndSplineSet
Validated: 1
Position2: "'cpsp' Capital Spacing lookup 3 subtable" dx=5 dy=0 dh=10 dv=0
EndChar

StartChar: Abreveacute
Encoding: 7854 7854 4
Width: 613
Flags: MW
HStem: -2 21G 141 132<230 380 230 423 187 380> 682 20G<281 333 333 347.5> 752 81<281.5 334 281.5 350.5> 883 124<358.5 430>
VStem: 0 613<13 22.5>
LayerCount: 2
UndoRedoHistory
Layer: 1
Undoes
EndUndoes
Redoes
EndRedoes
EndUndoRedoHistory
Fore
SplineSet
333 702 m 2,0,1
 382 702 382 702 390 681 c 2,2,-1
 610 38 l 2,3,4
 613 28 613 28 613 20 c 0,5,6
 613 -2 613 -2 563 -2 c 2,7,-1
 519 -2 l 2,8,9
 470 -2 470 -2 463 19 c 2,10,-1
 423 141 l 1,11,-1
 187 141 l 1,12,-1
 147 19 l 2,13,14
 140 -2 140 -2 101 -2 c 2,15,-1
 61 -2 l 2,16,17
 0 -2 0 -2 0 20 c 0,18,19
 0 24 0 24 4 38 c 2,20,-1
 224 681 l 2,21,22
 232 702 232 702 281 702 c 2,23,-1
 333 702 l 2,0,1
304 515 m 1,24,25
 295 466 295 466 289 451 c 2,26,-1
 230 273 l 1,27,-1
 380 273 l 1,28,-1
 323 451 l 2,29,30
 316 471 316 471 308 515 c 1,31,-1
 304 515 l 1,24,25
376 1007 m 0,32,33
 416 1007 416 1007 416 983 c 0,34,35
 416 976 416 976 403.5 959 c 128,-1,36
 391 942 391 942 342 883 c 1,37,38
 327 868 327 868 287 868 c 0,39,40
 266 868 266 868 266 883 c 0,41,42
 266 886 266 886 301 980 c 1,43,44
 315 1007 315 1007 376 1007 c 0,32,33
419 883 m 0,45,46
 454 883 454 883 454 855 c 0,47,48
 454 815 454 815 412 783.5 c 128,-1,49
 370 752 370 752 307 752 c 128,-1,50
 244 752 244 752 202 783.5 c 128,-1,51
 160 815 160 815 160 855 c 0,52,53
 160 883 160 883 195 883 c 0,54,55
 212 883 212 883 228 865 c 1,56,57
 254 833 254 833 307 833 c 0,58,59
 332 833 332 833 349 838.5 c 128,-1,60
 366 844 366 844 373 850 c 128,-1,61
 380 856 380 856 388 867 c 1,62,63
 402 883 402 883 419 883 c 0,45,46
EndSplineSet
Validated: 1
Position2: "'cpsp' Capital Spacing lookup 3 subtable" dx=5 dy=0 dh=10 dv=0
EndChar

StartChar: Abrevedotbelow
Encoding: 7862 7862 5
Width: 613
Flags: MW
HStem: -204 124<291 333> -2 21G 141 132<230 380 230 423 187 380> 682 20G<281 333 333 347.5> 752 91<281.5 334 281.5 350.5>
VStem: 252 120<-172 -112 -182.5 -101.5>
LayerCount: 2
UndoRedoHistory
Layer: 1
Undoes
EndUndoes
Redoes
EndRedoes
EndUndoRedoHistory
Fore
SplineSet
333 702 m 2,0,1
 382 702 382 702 390 681 c 2,2,-1
 610 38 l 2,3,4
 613 28 613 28 613 20 c 0,5,6
 613 -2 613 -2 563 -2 c 2,7,-1
 519 -2 l 2,8,9
 470 -2 470 -2 463 19 c 2,10,-1
 423 141 l 1,11,-1
 187 141 l 1,12,-1
 147 19 l 2,13,14
 140 -2 140 -2 101 -2 c 2,15,-1
 61 -2 l 2,16,17
 0 -2 0 -2 0 20 c 0,18,19
 0 24 0 24 4 38 c 2,20,-1
 224 681 l 2,21,22
 232 702 232 702 281 702 c 2,23,-1
 333 702 l 2,0,1
304 515 m 1,24,25
 295 466 295 466 289 451 c 2,26,-1
 230 273 l 1,27,-1
 380 273 l 1,28,-1
 323 451 l 2,29,30
 316 471 316 471 308 515 c 1,31,-1
 304 515 l 1,24,25
419 892 m 0,32,33
 454 892 454 892 454 864 c 0,34,35
 454 820 454 820 412 786 c 128,-1,36
 370 752 370 752 307 752 c 128,-1,37
 244 752 244 752 202 786 c 128,-1,38
 160 820 160 820 160 864 c 0,39,40
 160 892 160 892 195 892 c 0,41,42
 212 892 212 892 228 874 c 0,43,44
 237 864 237 864 243 859 c 128,-1,45
 249 854 249 854 266 848.5 c 128,-1,46
 283 843 283 843 307 843 c 0,47,48
 332 843 332 843 350 849.5 c 128,-1,49
 368 856 368 856 373 860.5 c 128,-1,50
 378 865 378 865 388 876 c 0,51,52
 402 892 402 892 419 892 c 0,32,33
252 -112 m 2,53,54
 252 -80 252 -80 312 -80 c 128,-1,55
 372 -80 372 -80 372 -112 c 2,56,-1
 372 -172 l 2,57,58
 372 -204 372 -204 312 -204 c 128,-1,59
 252 -204 252 -204 252 -172 c 2,60,-1
 252 -112 l 2,53,54
EndSplineSet
Validated: 1
Position2: "'cpsp' Capital Spacing lookup 3 subtable" dx=5 dy=0 dh=10 dv=0
EndChar

StartChar: Abrevegrave
Encoding: 7856 7856 6
Width: 613
Flags: MW
HStem: -2 21G 141 132<230 380 230 423 187 380> 682 20G<281 333 333 347.5> 752 81<281.5 334 281.5 350.5> 867 139<225 339>
VStem: 0 613<13 22.5>
LayerCount: 2
UndoRedoHistory
Layer: 1
Undoes
EndUndoes
Redoes
EndRedoes
EndUndoRedoHistory
Fore
SplineSet
333 702 m 2,0,1
 382 702 382 702 390 681 c 2,2,-1
 610 38 l 2,3,4
 613 28 613 28 613 20 c 0,5,6
 613 -2 613 -2 563 -2 c 2,7,-1
 519 -2 l 2,8,9
 470 -2 470 -2 463 19 c 2,10,-1
 423 141 l 1,11,-1
 187 141 l 1,12,-1
 147 19 l 2,13,14
 140 -2 140 -2 101 -2 c 2,15,-1
 61 -2 l 2,16,17
 0 -2 0 -2 0 20 c 0,18,19
 0 24 0 24 4 38 c 2,20,-1
 224 681 l 2,21,22
 232 702 232 702 281 702 c 2,23,-1
 333 702 l 2,0,1
304 515 m 1,24,25
 295 466 295 466 289 451 c 2,26,-1
 230 273 l 1,27,-1
 380 273 l 1,28,-1
 323 451 l 2,29,30
 316 471 316 471 308 515 c 1,31,-1
 304 515 l 1,24,25
240 1006 m 0,32,33
 313 1006 313 1006 325 979 c 1,34,35
 358 896 358 896 358 882 c 0,36,37
 358 867 358 867 327 867 c 0,38,39
 286 867 286 867 265 892 c 1,40,41
 249 913 249 913 227 941 c 0,42,43
 203 972 203 972 198 979 c 128,-1,44
 193 986 193 986 193 992 c 0,45,46
 193 1006 193 1006 240 1006 c 0,32,33
419 883 m 0,47,48
 454 883 454 883 454 855 c 0,49,50
 454 815 454 815 412 783.5 c 128,-1,51
 370 752 370 752 307 752 c 128,-1,52
 244 752 244 752 202 783.5 c 128,-1,53
 160 815 160 815 160 855 c 0,54,55
 160 883 160 883 195 883 c 0,56,57
 212 883 212 883 228 865 c 1,58,59
 254 833 254 833 307 833 c 0,60,61
 332 833 332 833 349 838.5 c 128,-1,62
 366 844 366 844 373 850 c 128,-1,63
 380 856 380 856 388 867 c 1,64,65
 402 883 402 883 419 883 c 0,47,48
EndSplineSet
Validated: 1
Position2: "'cpsp' Capital Spacing lookup 3 subtable" dx=5 dy=0 dh=10 dv=0
EndChar

StartChar: Abrevehookabove
Encoding: 7858 7858 7
Width: 613
Flags: MW
HStem: -2 21G 141 132<230 380 230 423 187 380> 682 20G<281 333 333 347.5> 752 81<281.5 334 281.5 350.5> 938 70<239 322>
VStem: 317 69<934 943.5>
LayerCount: 2
UndoRedoHistory
Layer: 1
Undoes
EndUndoes
Redoes
EndRedoes
EndUndoRedoHistory
Fore
SplineSet
333 702 m 2,0,1
 382 702 382 702 390 681 c 2,2,-1
 610 38 l 2,3,4
 613 28 613 28 613 20 c 0,5,6
 613 -2 613 -2 563 -2 c 2,7,-1
 519 -2 l 2,8,9
 470 -2 470 -2 463 19 c 2,10,-1
 423 141 l 1,11,-1
 187 141 l 1,12,-1
 147 19 l 2,13,14
 140 -2 140 -2 101 -2 c 2,15,-1
 61 -2 l 2,16,17
 0 -2 0 -2 0 20 c 0,18,19
 0 24 0 24 4 38 c 2,20,-1
 224 681 l 2,21,22
 232 702 232 702 281 702 c 2,23,-1
 333 702 l 2,0,1
304 515 m 1,24,25
 295 466 295 466 289 451 c 2,26,-1
 230 273 l 1,27,-1
 380 273 l 1,28,-1
 323 451 l 2,29,30
 316 471 316 471 308 515 c 1,31,-1
 304 515 l 1,24,25
317 938 m 0,32,33
 317 955 317 955 296 955 c 0,34,35
 276 955 276 955 260 946.5 c 128,-1,36
 244 938 244 938 243 938 c 0,37,38
 237 938 237 938 225 953.5 c 128,-1,39
 213 969 213 969 213 980 c 0,40,41
 213 990 213 990 239.5 999 c 128,-1,42
 266 1008 266 1008 293 1008 c 0,43,44
 336 1008 336 1008 361 990 c 128,-1,45
 386 972 386 972 386 942 c 0,46,47
 386 916 386 916 360 895 c 0,48,49
 332 873 332 873 311 873 c 0,50,51
 291 873 291 873 279 879 c 128,-1,52
 267 885 267 885 267 894 c 0,53,54
 267 900 267 900 286 910 c 0,55,56
 296 915 296 915 299.5 916.5 c 128,-1,57
 303 918 303 918 308.5 922 c 128,-1,58
 314 926 314 926 315.5 929.5 c 128,-1,59
 317 933 317 933 317 938 c 0,32,33
419 883 m 0,60,61
 454 883 454 883 454 855 c 0,62,63
 454 815 454 815 412 783.5 c 128,-1,64
 370 752 370 752 307 752 c 128,-1,65
 244 752 244 752 202 783.5 c 128,-1,66
 160 815 160 815 160 855 c 0,67,68
 160 883 160 883 195 883 c 0,69,70
 212 883 212 883 228 865 c 1,71,72
 254 833 254 833 307 833 c 0,73,74
 332 833 332 833 349 838.5 c 128,-1,75
 366 844 366 844 373 850 c 128,-1,76
 380 856 380 856 388 867 c 1,77,78
 402 883 402 883 419 883 c 0,60,61
EndSplineSet
Validated: 1
Position2: "'cpsp' Capital Spacing lookup 3 subtable" dx=5 dy=0 dh=10 dv=0
EndChar

StartChar: Abrevetilde
Encoding: 7860 7860 8
Width: 613
Flags: MW
HStem: -2 21G 141 132<230 380 230 423 187 380> 682 20G<281 333 333 347.5> 752 81<281.5 334 281.5 350.5> 902 86<366.5 379.5> 929 86<244.5 259>
VStem: 0 613<13 22.5>
LayerCount: 2
UndoRedoHistory
Layer: 1
Undoes
EndUndoes
Redoes
EndRedoes
EndUndoRedoHistory
Fore
SplineSet
333 702 m 2,0,1
 382 702 382 702 390 681 c 2,2,-1
 610 38 l 2,3,4
 613 28 613 28 613 20 c 0,5,6
 613 -2 613 -2 563 -2 c 2,7,-1
 519 -2 l 2,8,9
 470 -2 470 -2 463 19 c 2,10,-1
 423 141 l 1,11,-1
 187 141 l 1,12,-1
 147 19 l 2,13,14
 140 -2 140 -2 101 -2 c 2,15,-1
 61 -2 l 2,16,17
 0 -2 0 -2 0 20 c 0,18,19
 0 24 0 24 4 38 c 2,20,-1
 224 681 l 2,21,22
 232 702 232 702 281 702 c 2,23,-1
 333 702 l 2,0,1
304 515 m 1,24,25
 295 466 295 466 289 451 c 2,26,-1
 230 273 l 1,27,-1
 380 273 l 1,28,-1
 323 451 l 2,29,30
 316 471 316 471 308 515 c 1,31,-1
 304 515 l 1,24,25
424 1003 m 0,32,33
 432 1009 432 1009 442 1009 c 0,34,35
 455 1009 455 1009 464 997 c 0,36,37
 472 986 472 986 472 977 c 0,38,39
 472 962 472 962 457 943 c 1,40,41
 419 902 419 902 361 902 c 0,42,43
 329 902 329 902 295 918 c 0,44,45
 271 929 271 929 249 929 c 0,46,47
 229 929 229 929 203 915 c 0,48,49
 198 912 198 912 192 912 c 0,50,51
 177 912 177 912 165 929 c 0,52,53
 159 938 159 938 159 948 c 0,54,55
 159 961 159 961 170 974 c 1,56,57
 216 1015 216 1015 263 1015 c 0,58,59
 295 1015 295 1015 334 999 c 1,60,61
 358 988 358 988 375 988 c 0,62,63
 401 988 401 988 424 1003 c 0,32,33
419 883 m 0,64,65
 454 883 454 883 454 855 c 0,66,67
 454 815 454 815 412 783.5 c 128,-1,68
 370 752 370 752 307 752 c 128,-1,69
 244 752 244 752 202 783.5 c 128,-1,70
 160 815 160 815 160 855 c 0,71,72
 160 883 160 883 195 883 c 0,73,74
 212 883 212 883 228 865 c 1,75,76
 254 833 254 833 307 833 c 0,77,78
 332 833 332 833 349 838.5 c 128,-1,79
 366 844 366 844 373 850 c 128,-1,80
 380 856 380 856 388 867 c 1,81,82
 402 883 402 883 419 883 c 0,64,65
EndSplineSet
Validated: 1
Position2: "'cpsp' Capital Spacing lookup 3 subtable" dx=5 dy=0 dh=10 dv=0
EndChar

StartChar: Acircumflex
Encoding: 194 194 9
Width: 613
Flags: MW
HStem: -2 21G 141 132<230 380 230 423 187 380> 682 20G<281 333 333 347.5> 749 146<183 313 190 313 302 403 302 425>
VStem: 0 613<13 22.5>
LayerCount: 2
UndoRedoHistory
Layer: 1
Undoes
EndUndoes
Redoes
EndRedoes
EndUndoRedoHistory
Fore
SplineSet
313 895 m 2,0,1
 362 895 362 895 374 876 c 2,2,-1
 439 774 l 2,3,4
 445 765 445 765 445 759 c 0,5,6
 445 749 445 749 425 749 c 2,7,-1
 403 749 l 2,8,9
 351 749 351 749 335 773 c 2,10,-1
 307 813 l 1,11,-1
 279 774 l 2,12,13
 261 749 261 749 212 749 c 2,14,-1
 190 749 l 2,15,16
 170 749 170 749 170 759 c 0,17,18
 170 765 170 765 176 774 c 2,19,-1
 241 876 l 2,20,21
 253 895 253 895 302 895 c 2,22,-1
 313 895 l 2,0,1
333 702 m 2,23,24
 382 702 382 702 390 681 c 2,25,-1
 610 38 l 2,26,27
 613 28 613 28 613 20 c 0,28,29
 613 -2 613 -2 563 -2 c 2,30,-1
 519 -2 l 2,31,32
 470 -2 470 -2 463 19 c 2,33,-1
 423 141 l 1,34,-1
 187 141 l 1,35,-1
 147 19 l 2,36,37
 140 -2 140 -2 101 -2 c 2,38,-1
 61 -2 l 2,39,40
 0 -2 0 -2 0 20 c 0,41,42
 0 24 0 24 4 38 c 2,43,-1
 224 681 l 2,44,45
 232 702 232 702 281 702 c 2,46,-1
 333 702 l 2,23,24
304 515 m 1,47,48
 295 466 295 466 289 451 c 2,49,-1
 230 273 l 1,50,-1
 380 273 l 1,51,-1
 323 451 l 2,52,53
 316 471 316 471 308 515 c 1,54,-1
 304 515 l 1,47,48
EndSplineSet
Validated: 1
Position2: "'cpsp' Capital Spacing lookup 3 subtable" dx=5 dy=0 dh=10 dv=0
EndChar

StartChar: Acircumflexacute
Encoding: 7844 7844 10
Width: 613
Flags: MW
HStem: -2 21G 141 132<230 380 230 423 187 380> 682 20G<281 333 333 347.5> 840 55
VStem: 0 613<13 22.5>
LayerCount: 2
UndoRedoHistory
Layer: 1
Undoes
EndUndoes
Redoes
EndRedoes
EndUndoRedoHistory
Fore
SplineSet
510 964 m 0,0,1
 550 964 550 964 550 940 c 0,2,3
 550 933 550 933 537.5 916 c 128,-1,4
 525 899 525 899 476 840 c 1,5,6
 461 825 461 825 421 825 c 0,7,8
 400 825 400 825 400 840 c 0,9,10
 400 843 400 843 435 937 c 1,11,12
 449 964 449 964 510 964 c 0,0,1
313 895 m 2,13,14
 353 895 353 895 364 876 c 2,15,-1
 424 774 l 2,16,17
 430 765 430 765 430 759 c 0,18,19
 430 749 430 749 410 749 c 2,20,-1
 388 749 l 2,21,22
 328 749 328 749 320 773 c 2,23,-1
 307 813 l 1,24,-1
 279 774 l 2,25,26
 261 749 261 749 212 749 c 2,27,-1
 190 749 l 2,28,29
 170 749 170 749 170 759 c 0,30,31
 170 765 170 765 176 774 c 2,32,-1
 241 876 l 2,33,34
 253 895 253 895 302 895 c 2,35,-1
 313 895 l 2,13,14
333 702 m 2,36,37
 382 702 382 702 390 681 c 2,38,-1
 610 38 l 2,39,40
 613 28 613 28 613 20 c 0,41,42
 613 -2 613 -2 563 -2 c 2,43,-1
 519 -2 l 2,44,45
 470 -2 470 -2 463 19 c 2,46,-1
 423 141 l 1,47,-1
 187 141 l 1,48,-1
 147 19 l 2,49,50
 140 -2 140 -2 101 -2 c 2,51,-1
 61 -2 l 2,52,53
 0 -2 0 -2 0 20 c 0,54,55
 0 24 0 24 4 38 c 2,56,-1
 224 681 l 2,57,58
 232 702 232 702 281 702 c 2,59,-1
 333 702 l 2,36,37
304 515 m 1,60,61
 295 466 295 466 289 451 c 2,62,-1
 230 273 l 1,63,-1
 380 273 l 1,64,-1
 323 451 l 2,65,66
 316 471 316 471 308 515 c 1,67,-1
 304 515 l 1,60,61
EndSplineSet
Validated: 1
Position2: "'cpsp' Capital Spacing lookup 3 subtable" dx=5 dy=0 dh=10 dv=0
EndChar

StartChar: Acircumflexdotbelow
Encoding: 7852 7852 11
Width: 613
Flags: MW
HStem: -204 124<291 333> -2 21G 141 132<230 380 230 423 187 380> 682 20G<281 333 333 347.5> 749 146<183 313 190 313 302 403 302 425>
VStem: 252 120<-172 -112 -182.5 -101.5>
LayerCount: 2
UndoRedoHistory
Layer: 1
Undoes
EndUndoes
Redoes
EndRedoes
EndUndoRedoHistory
Fore
SplineSet
333 702 m 2,0,1
 382 702 382 702 390 681 c 2,2,-1
 610 38 l 2,3,4
 613 28 613 28 613 20 c 0,5,6
 613 -2 613 -2 563 -2 c 2,7,-1
 519 -2 l 2,8,9
 470 -2 470 -2 463 19 c 2,10,-1
 423 141 l 1,11,-1
 187 141 l 1,12,-1
 147 19 l 2,13,14
 140 -2 140 -2 101 -2 c 2,15,-1
 61 -2 l 2,16,17
 0 -2 0 -2 0 20 c 0,18,19
 0 24 0 24 4 38 c 2,20,-1
 224 681 l 2,21,22
 232 702 232 702 281 702 c 2,23,-1
 333 702 l 2,0,1
304 515 m 1,24,25
 295 466 295 466 289 451 c 2,26,-1
 230 273 l 1,27,-1
 380 273 l 1,28,-1
 323 451 l 2,29,30
 316 471 316 471 308 515 c 1,31,-1
 304 515 l 1,24,25
313 895 m 2,32,33
 362 895 362 895 374 876 c 2,34,-1
 439 774 l 2,35,36
 445 765 445 765 445 759 c 0,37,38
 445 749 445 749 425 749 c 2,39,-1
 403 749 l 2,40,41
 351 749 351 749 335 773 c 2,42,-1
 307 813 l 1,43,-1
 279 774 l 2,44,45
 261 749 261 749 212 749 c 2,46,-1
 190 749 l 2,47,48
 170 749 170 749 170 759 c 0,49,50
 170 765 170 765 176 774 c 2,51,-1
 241 876 l 2,52,53
 253 895 253 895 302 895 c 2,54,-1
 313 895 l 2,32,33
252 -112 m 2,55,56
 252 -80 252 -80 312 -80 c 128,-1,57
 372 -80 372 -80 372 -112 c 2,58,-1
 372 -172 l 2,59,60
 372 -204 372 -204 312 -204 c 128,-1,61
 252 -204 252 -204 252 -172 c 2,62,-1
 252 -112 l 2,55,56
EndSplineSet
Validated: 1
Position2: "'cpsp' Capital Spacing lookup 3 subtable" dx=5 dy=0 dh=10 dv=0
EndChar

StartChar: Acircumflexgrave
Encoding: 7846 7846 12
Width: 613
Flags: MW
HStem: -2 21G 141 132<230 380 230 423 187 380> 682 20G<281 333 333 347.5> 749 146<183 313 190 313 302 388 302 410> 824 139<359 473>
VStem: 0 613<13 22.5>
LayerCount: 2
UndoRedoHistory
Layer: 1
Undoes
EndUndoes
Redoes
EndRedoes
EndUndoRedoHistory
Fore
SplineSet
333 702 m 2,0,1
 382 702 382 702 390 681 c 2,2,-1
 610 38 l 2,3,4
 613 28 613 28 613 20 c 0,5,6
 613 -2 613 -2 563 -2 c 2,7,-1
 519 -2 l 2,8,9
 470 -2 470 -2 463 19 c 2,10,-1
 423 141 l 1,11,-1
 187 141 l 1,12,-1
 147 19 l 2,13,14
 140 -2 140 -2 101 -2 c 2,15,-1
 61 -2 l 2,16,17
 0 -2 0 -2 0 20 c 0,18,19
 0 24 0 24 4 38 c 2,20,-1
 224 681 l 2,21,22
 232 702 232 702 281 702 c 2,23,-1
 333 702 l 2,0,1
304 515 m 1,24,25
 295 466 295 466 289 451 c 2,26,-1
 230 273 l 1,27,-1
 380 273 l 1,28,-1
 323 451 l 2,29,30
 316 471 316 471 308 515 c 1,31,-1
 304 515 l 1,24,25
374 963 m 0,32,33
 447 963 447 963 459 936 c 1,34,35
 492 854 492 854 492 839 c 128,-1,36
 492 824 492 824 461 824 c 0,37,38
 420 824 420 824 399 849 c 1,39,40
 383 870 383 870 361 898 c 0,41,42
 337 929 337 929 332 936 c 128,-1,43
 327 943 327 943 327 949 c 0,44,45
 327 963 327 963 374 963 c 0,32,33
313 895 m 2,46,47
 353 895 353 895 364 876 c 2,48,-1
 424 774 l 2,49,50
 430 765 430 765 430 759 c 0,51,52
 430 749 430 749 410 749 c 2,53,-1
 388 749 l 2,54,55
 328 749 328 749 320 773 c 2,56,-1
 307 813 l 1,57,-1
 279 774 l 2,58,59
 261 749 261 749 212 749 c 2,60,-1
 190 749 l 2,61,62
 170 749 170 749 170 759 c 0,63,64
 170 765 170 765 176 774 c 2,65,-1
 241 876 l 2,66,67
 253 895 253 895 302 895 c 2,68,-1
 313 895 l 2,46,47
EndSplineSet
Validated: 1
Position2: "'cpsp' Capital Spacing lookup 3 subtable" dx=5 dy=0 dh=10 dv=0
EndChar

StartChar: Acircumflexhookabove
Encoding: 7848 7848 13
Width: 613
Flags: MW
HStem: -2 21G 141 132<230 380 230 423 187 380> 682 20G<281 333 333 347.5> 749 146<183 313 190 313 373.5 381.5 302 388 302 410> 895 70<373 456>
VStem: 451 69<891 900.5>
LayerCount: 2
UndoRedoHistory
Layer: 1
Undoes
EndUndoes
Redoes
EndRedoes
EndUndoRedoHistory
Fore
SplineSet
333 702 m 2,0,1
 382 702 382 702 390 681 c 2,2,-1
 610 38 l 2,3,4
 613 28 613 28 613 20 c 0,5,6
 613 -2 613 -2 563 -2 c 2,7,-1
 519 -2 l 2,8,9
 470 -2 470 -2 463 19 c 2,10,-1
 423 141 l 1,11,-1
 187 141 l 1,12,-1
 147 19 l 2,13,14
 140 -2 140 -2 101 -2 c 2,15,-1
 61 -2 l 2,16,17
 0 -2 0 -2 0 20 c 0,18,19
 0 24 0 24 4 38 c 2,20,-1
 224 681 l 2,21,22
 232 702 232 702 281 702 c 2,23,-1
 333 702 l 2,0,1
304 515 m 1,24,25
 295 466 295 466 289 451 c 2,26,-1
 230 273 l 1,27,-1
 380 273 l 1,28,-1
 323 451 l 2,29,30
 316 471 316 471 308 515 c 1,31,-1
 304 515 l 1,24,25
451 895 m 0,32,33
 451 912 451 912 430 912 c 0,34,35
 410 912 410 912 394 903.5 c 128,-1,36
 378 895 378 895 377 895 c 0,37,38
 371 895 371 895 359 910.5 c 128,-1,39
 347 926 347 926 347 937 c 0,40,41
 347 947 347 947 373.5 956 c 128,-1,42
 400 965 400 965 427 965 c 0,43,44
 470 965 470 965 495 947 c 128,-1,45
 520 929 520 929 520 899 c 0,46,47
 520 873 520 873 494 852 c 0,48,49
 467 830 467 830 445 830 c 0,50,51
 425 830 425 830 413 836 c 128,-1,52
 401 842 401 842 401 851 c 0,53,54
 401 858 401 858 420 867 c 0,55,56
 430 872 430 872 433.5 873.5 c 128,-1,57
 437 875 437 875 442.5 879 c 128,-1,58
 448 883 448 883 449.5 886.5 c 128,-1,59
 451 890 451 890 451 895 c 0,32,33
313 895 m 2,60,61
 353 895 353 895 364 876 c 2,62,-1
 424 774 l 2,63,64
 430 765 430 765 430 759 c 0,65,66
 430 749 430 749 410 749 c 2,67,-1
 388 749 l 2,68,69
 328 749 328 749 320 773 c 2,70,-1
 307 813 l 1,71,-1
 279 774 l 2,72,73
 261 749 261 749 212 749 c 2,74,-1
 190 749 l 2,75,76
 170 749 170 749 170 759 c 0,77,78
 170 765 170 765 176 774 c 2,79,-1
 241 876 l 2,80,81
 253 895 253 895 302 895 c 2,82,-1
 313 895 l 2,60,61
EndSplineSet
Validated: 1
Position2: "'cpsp' Capital Spacing lookup 3 subtable" dx=5 dy=0 dh=10 dv=0
EndChar

StartChar: Acircumflextilde
Encoding: 7850 7850 14
Width: 613
Flags: MW
HStem: -2 21G 141 132<230 380 230 423 187 380> 682 20G<281 333 333 347.5> 749 122<183 313 190 313 302 403 302 425> 902 86<362.5 375.5> 929 86<240.5 255>
VStem: 0 613<13 22.5>
LayerCount: 2
UndoRedoHistory
Layer: 1
Undoes
EndUndoes
Redoes
EndRedoes
EndUndoRedoHistory
Fore
SplineSet
333 702 m 2,0,1
 382 702 382 702 390 681 c 2,2,-1
 610 38 l 2,3,4
 613 28 613 28 613 20 c 0,5,6
 613 -2 613 -2 563 -2 c 2,7,-1
 519 -2 l 2,8,9
 470 -2 470 -2 463 19 c 2,10,-1
 423 141 l 1,11,-1
 187 141 l 1,12,-1
 147 19 l 2,13,14
 140 -2 140 -2 101 -2 c 2,15,-1
 61 -2 l 2,16,17
 0 -2 0 -2 0 20 c 0,18,19
 0 24 0 24 4 38 c 2,20,-1
 224 681 l 2,21,22
 232 702 232 702 281 702 c 2,23,-1
 333 702 l 2,0,1
304 515 m 1,24,25
 295 466 295 466 289 451 c 2,26,-1
 230 273 l 1,27,-1
 380 273 l 1,28,-1
 323 451 l 2,29,30
 316 471 316 471 308 515 c 1,31,-1
 304 515 l 1,24,25
420 1003 m 0,32,33
 428 1009 428 1009 438 1009 c 0,34,35
 451 1009 451 1009 460 997 c 0,36,37
 468 986 468 986 468 977 c 0,38,39
 468 962 468 962 453 943 c 1,40,41
 415 902 415 902 357 902 c 0,42,43
 325 902 325 902 291 918 c 0,44,45
 267 929 267 929 245 929 c 0,46,47
 225 929 225 929 199 915 c 0,48,49
 194 912 194 912 188 912 c 0,50,51
 173 912 173 912 161 929 c 0,52,53
 155 938 155 938 155 948 c 0,54,55
 155 961 155 961 166 974 c 1,56,57
 212 1015 212 1015 259 1015 c 0,58,59
 291 1015 291 1015 330 999 c 1,60,61
 354 988 354 988 371 988 c 0,62,63
 398 988 398 988 420 1003 c 0,32,33
313 871 m 2,64,65
 356 871 356 871 374 852 c 1,66,-1
 439 774 l 1,67,68
 445 765 445 765 445 759 c 0,69,70
 445 749 445 749 425 749 c 2,71,-1
 403 749 l 2,72,73
 374 749 374 749 335 773 c 1,74,-1
 307 800 l 1,75,-1
 279 774 l 2,76,77
 277 773 277 773 268.5 767.5 c 128,-1,78
 260 762 260 762 257.5 761 c 128,-1,79
 255 760 255 760 248 756.5 c 128,-1,80
 241 753 241 753 236.5 752 c 128,-1,81
 232 751 232 751 225.5 750 c 128,-1,82
 219 749 219 749 212 749 c 2,83,-1
 190 749 l 2,84,85
 170 749 170 749 170 759 c 0,86,87
 170 765 170 765 176 774 c 1,88,-1
 241 852 l 1,89,90
 259 871 259 871 302 871 c 2,91,-1
 313 871 l 2,64,65
EndSplineSet
Validated: 1
Position2: "'cpsp' Capital Spacing lookup 3 subtable" dx=5 dy=0 dh=10 dv=0
EndChar

StartChar: Adieresis
Encoding: 196 196 15
Width: 613
Flags: MW
HStem: -2 21G 141 132<230 380 230 423 187 380> 682 20G<281 333 333 347.5> 755 124<196 238 376 418>
VStem: 157 120<787 847 776.5 857.5> 337 120<787 847 776.5 857.5>
LayerCount: 2
UndoRedoHistory
Layer: 1
Undoes
EndUndoes
Redoes
EndRedoes
EndUndoRedoHistory
Fore
SplineSet
333 702 m 2,0,1
 382 702 382 702 390 681 c 2,2,-1
 610 38 l 2,3,4
 613 28 613 28 613 20 c 0,5,6
 613 -2 613 -2 563 -2 c 2,7,-1
 519 -2 l 2,8,9
 470 -2 470 -2 463 19 c 2,10,-1
 423 141 l 1,11,-1
 187 141 l 1,12,-1
 147 19 l 2,13,14
 140 -2 140 -2 101 -2 c 2,15,-1
 61 -2 l 2,16,17
 0 -2 0 -2 0 20 c 0,18,19
 0 24 0 24 4 38 c 2,20,-1
 224 681 l 2,21,22
 232 702 232 702 281 702 c 2,23,-1
 333 702 l 2,0,1
304 515 m 1,24,25
 295 466 295 466 289 451 c 2,26,-1
 230 273 l 1,27,-1
 380 273 l 1,28,-1
 323 451 l 2,29,30
 316 471 316 471 308 515 c 1,31,-1
 304 515 l 1,24,25
157 847 m 2,32,33
 157 879 157 879 217 879 c 128,-1,34
 277 879 277 879 277 847 c 2,35,-1
 277 787 l 2,36,37
 277 755 277 755 217 755 c 128,-1,38
 157 755 157 755 157 787 c 2,39,-1
 157 847 l 2,32,33
337 847 m 2,40,41
 337 879 337 879 397 879 c 128,-1,42
 457 879 457 879 457 847 c 2,43,-1
 457 787 l 2,44,45
 457 755 457 755 397 755 c 128,-1,46
 337 755 337 755 337 787 c 2,47,-1
 337 847 l 2,40,41
EndSplineSet
Validated: 1
Position2: "'cpsp' Capital Spacing lookup 3 subtable" dx=5 dy=0 dh=10 dv=0
EndChar

StartChar: Adotbelow
Encoding: 7840 7840 16
Width: 613
Flags: MW
HStem: -204 124<291 333> -2 21G 141 132<230 380 230 423 187 380> 682 20G<281 333 333 347.5>
VStem: 252 120<-172 -112 -182.5 -101.5>
LayerCount: 2
UndoRedoHistory
Layer: 1
Undoes
EndUndoes
Redoes
EndRedoes
EndUndoRedoHistory
Fore
SplineSet
333 702 m 2,0,1
 382 702 382 702 390 681 c 2,2,-1
 610 38 l 2,3,4
 613 28 613 28 613 20 c 0,5,6
 613 -2 613 -2 563 -2 c 2,7,-1
 519 -2 l 2,8,9
 470 -2 470 -2 463 19 c 2,10,-1
 423 141 l 1,11,-1
 187 141 l 1,12,-1
 147 19 l 2,13,14
 140 -2 140 -2 101 -2 c 2,15,-1
 61 -2 l 2,16,17
 0 -2 0 -2 0 20 c 0,18,19
 0 24 0 24 4 38 c 2,20,-1
 224 681 l 2,21,22
 232 702 232 702 281 702 c 2,23,-1
 333 702 l 2,0,1
304 515 m 1,24,25
 295 466 295 466 289 451 c 2,26,-1
 230 273 l 1,27,-1
 380 273 l 1,28,-1
 323 451 l 2,29,30
 316 471 316 471 308 515 c 1,31,-1
 304 515 l 1,24,25
252 -112 m 2,32,33
 252 -80 252 -80 312 -80 c 128,-1,34
 372 -80 372 -80 372 -112 c 2,35,-1
 372 -172 l 2,36,37
 372 -204 372 -204 312 -204 c 128,-1,38
 252 -204 252 -204 252 -172 c 2,39,-1
 252 -112 l 2,32,33
EndSplineSet
Validated: 1
Position2: "'cpsp' Capital Spacing lookup 3 subtable" dx=5 dy=0 dh=10 dv=0
EndChar

StartChar: Agrave
Encoding: 192 192 17
Width: 613
Flags: MW
HStem: -2 21G 141 132<230 380 230 423 187 380> 682 20G<281 333 333 347.5> 752 159<213 364>
VStem: 0 613<13 22.5>
LayerCount: 2
UndoRedoHistory
Layer: 1
Undoes
EndUndoes
Redoes
EndRedoes
EndUndoRedoHistory
Fore
SplineSet
233 911 m 0,0,1
 303 911 303 911 318 884 c 0,2,3
 330 863 330 863 342 842 c 128,-1,4
 354 821 354 821 361 810.5 c 128,-1,5
 368 800 368 800 373.5 790 c 128,-1,6
 379 780 379 780 381 775 c 128,-1,7
 383 770 383 770 383 767 c 0,8,9
 383 752 383 752 352 752 c 0,10,11
 300 752 300 752 277 777 c 0,12,13
 247 810 247 810 210 849 c 0,14,15
 184 877 184 877 178.5 884 c 128,-1,16
 173 891 173 891 173 897 c 0,17,18
 173 911 173 911 233 911 c 0,0,1
333 702 m 2,19,20
 382 702 382 702 390 681 c 2,21,-1
 610 38 l 2,22,23
 613 28 613 28 613 20 c 0,24,25
 613 -2 613 -2 563 -2 c 2,26,-1
 519 -2 l 2,27,28
 470 -2 470 -2 463 19 c 2,29,-1
 423 141 l 1,30,-1
 187 141 l 1,31,-1
 147 19 l 2,32,33
 140 -2 140 -2 101 -2 c 2,34,-1
 61 -2 l 2,35,36
 0 -2 0 -2 0 20 c 0,37,38
 0 24 0 24 4 38 c 2,39,-1
 224 681 l 2,40,41
 232 702 232 702 281 702 c 2,42,-1
 333 702 l 2,19,20
304 515 m 1,43,44
 295 466 295 466 289 451 c 2,45,-1
 230 273 l 1,46,-1
 380 273 l 1,47,-1
 323 451 l 2,48,49
 316 471 316 471 308 515 c 1,50,-1
 304 515 l 1,43,44
EndSplineSet
Validated: 1
Position2: "'cpsp' Capital Spacing lookup 3 subtable" dx=5 dy=0 dh=10 dv=0
EndChar

StartChar: Ahookabove
Encoding: 7842 7842 18
Width: 613
Flags: MW
HStem: -2 21G 141 132<230 380 230 423 187 380> 682 20G<281 333 333 347.5> 867 61<302.5 320>
VStem: 344 87<830 852>
LayerCount: 2
UndoRedoHistory
Layer: 1
Undoes
EndUndoes
Redoes
EndRedoes
EndUndoRedoHistory
Fore
SplineSet
344 845 m 0,0,1
 344 855 344 855 334.5 861 c 128,-1,2
 325 867 325 867 312 867 c 128,-1,3
 299 867 299 867 286 861 c 128,-1,4
 273 855 273 855 270 855 c 0,5,6
 264 855 264 855 252 870.5 c 128,-1,7
 240 886 240 886 240 897 c 0,8,9
 240 907 240 907 267 917.5 c 128,-1,10
 294 928 294 928 320 928 c 0,11,12
 373 928 373 928 402 907 c 128,-1,13
 431 886 431 886 431 849 c 0,14,15
 431 814 431 814 390.5 780.5 c 128,-1,16
 350 747 350 747 331 747 c 0,17,18
 314 747 314 747 295.5 755.5 c 128,-1,19
 277 764 277 764 277 770 c 0,20,21
 277 777 277 777 310.5 802.5 c 128,-1,22
 344 828 344 828 344 845 c 0,0,1
333 702 m 2,23,24
 382 702 382 702 390 681 c 2,25,-1
 610 38 l 2,26,27
 613 28 613 28 613 20 c 0,28,29
 613 -2 613 -2 563 -2 c 2,30,-1
 519 -2 l 2,31,32
 470 -2 470 -2 463 19 c 2,33,-1
 423 141 l 1,34,-1
 187 141 l 1,35,-1
 147 19 l 2,36,37
 140 -2 140 -2 101 -2 c 2,38,-1
 61 -2 l 2,39,40
 0 -2 0 -2 0 20 c 0,41,42
 0 24 0 24 4 38 c 2,43,-1
 224 681 l 2,44,45
 232 702 232 702 281 702 c 2,46,-1
 333 702 l 2,23,24
304 515 m 1,47,48
 295 466 295 466 289 451 c 2,49,-1
 230 273 l 1,50,-1
 380 273 l 1,51,-1
 323 451 l 2,52,53
 316 471 316 471 308 515 c 1,54,-1
 304 515 l 1,47,48
EndSplineSet
Validated: 1
Position2: "'cpsp' Capital Spacing lookup 3 subtable" dx=5 dy=0 dh=10 dv=0
EndChar

StartChar: Amacron
Encoding: 256 256 19
Width: 613
Flags: MW
HStem: -2 21G 141 132<230 380 230 423 187 380> 682 20G<281 333 333 347.5> 774 95<189.5 415 200 415>
VStem: 0 613<13 22.5>
LayerCount: 2
UndoRedoHistory
Layer: 1
Undoes
EndUndoes
Redoes
EndRedoes
EndUndoRedoHistory
Fore
SplineSet
415 869 m 2,0,1
 445 869 445 869 445 829 c 2,2,-1
 445 814 l 2,3,4
 445 774 445 774 415 774 c 2,5,-1
 200 774 l 2,6,7
 170 774 170 774 170 814 c 2,8,-1
 170 829 l 2,9,10
 170 869 170 869 200 869 c 2,11,-1
 415 869 l 2,0,1
333 702 m 2,12,13
 382 702 382 702 390 681 c 2,14,-1
 610 38 l 2,15,16
 613 28 613 28 613 20 c 0,17,18
 613 -2 613 -2 563 -2 c 2,19,-1
 519 -2 l 2,20,21
 470 -2 470 -2 463 19 c 2,22,-1
 423 141 l 1,23,-1
 187 141 l 1,24,-1
 147 19 l 2,25,26
 140 -2 140 -2 101 -2 c 2,27,-1
 61 -2 l 2,28,29
 0 -2 0 -2 0 20 c 0,30,31
 0 24 0 24 4 38 c 2,32,-1
 224 681 l 2,33,34
 232 702 232 702 281 702 c 2,35,-1
 333 702 l 2,12,13
304 515 m 1,36,37
 295 466 295 466 289 451 c 2,38,-1
 230 273 l 1,39,-1
 380 273 l 1,40,-1
 323 451 l 2,41,42
 316 471 316 471 308 515 c 1,43,-1
 304 515 l 1,36,37
EndSplineSet
Validated: 1
Position2: "'cpsp' Capital Spacing lookup 3 subtable" dx=5 dy=0 dh=10 dv=0
EndChar

StartChar: Aogonek
Encoding: 260 260 20
Width: 613
Flags: MW
HStem: -183 70<591.5 611> -2 21G -1 21G 141 132<230 380 230 423 187 380> 682 20G<281 333 333 347.5>
VStem: 474 67<-86 -73>
LayerCount: 2
UndoRedoHistory
Layer: 1
Undoes
EndUndoes
Redoes
EndRedoes
EndUndoRedoHistory
Fore
SplineSet
552 -2 m 1,0,-1
 552 -5 l 2,1,2
 552 -11 552 -11 546.5 -28.5 c 128,-1,3
 541 -46 541 -46 541 -62 c 0,4,5
 541 -113 541 -113 603 -113 c 0,6,7
 616 -113 616 -113 630 -109 c 128,-1,8
 644 -105 644 -105 652 -105 c 0,9,10
 674 -105 674 -105 674 -133 c 0,11,12
 674 -183 674 -183 592 -183 c 0,13,14
 555 -183 555 -183 529 -171.5 c 128,-1,15
 503 -160 503 -160 492.5 -142 c 128,-1,16
 482 -124 482 -124 478 -109.5 c 128,-1,17
 474 -95 474 -95 474 -81 c 0,18,19
 474 -27 474 -27 498 -1 c 1,20,21
 469 2 469 2 463 19 c 2,22,-1
 423 141 l 1,23,-1
 187 141 l 1,24,-1
 147 19 l 2,25,26
 140 -2 140 -2 101 -2 c 2,27,-1
 61 -2 l 2,28,29
 0 -2 0 -2 0 20 c 0,30,31
 0 24 0 24 4 38 c 2,32,-1
 224 681 l 2,33,34
 232 702 232 702 281 702 c 2,35,-1
 333 702 l 2,36,37
 382 702 382 702 390 681 c 2,38,-1
 610 38 l 2,39,40
 613 28 613 28 613 20 c 0,41,42
 613 -2 613 -2 563 -2 c 2,43,-1
 552 -2 l 1,0,-1
380 273 m 1,44,-1
 323 451 l 2,45,46
 316 471 316 471 308 515 c 1,47,-1
 304 515 l 1,48,49
 295 466 295 466 289 451 c 2,50,-1
 230 273 l 1,51,-1
 380 273 l 1,44,-1
EndSplineSet
Validated: 1
Position2: "'cpsp' Capital Spacing lookup 3 subtable" dx=5 dy=0 dh=10 dv=0
EndChar

StartChar: Aring
Encoding: 197 197 21
Width: 613
Flags: MW
HStem: -2 21G 141 132<230 380 230 423 187 380> 682 20G<281 333 333 347.5> 727 62<297 317 297 335> 862 64<297 317>
VStem: 208 63<815 835 815 854> 344 63<815 835>
LayerCount: 2
UndoRedoHistory
Layer: 1
Undoes
EndUndoes
Redoes
EndRedoes
EndUndoRedoHistory
Fore
SplineSet
307 926 m 128,-1,1
 349 926 349 926 378 897 c 128,-1,2
 407 868 407 868 407 826 c 128,-1,3
 407 784 407 784 378 755.5 c 128,-1,4
 349 727 349 727 307 727 c 128,-1,5
 265 727 265 727 236.5 755.5 c 128,-1,6
 208 784 208 784 208 826 c 128,-1,7
 208 868 208 868 236.5 897 c 128,-1,0
 265 926 265 926 307 926 c 128,-1,1
307 862 m 128,-1,9
 292 862 292 862 281.5 851 c 128,-1,10
 271 840 271 840 271 825 c 128,-1,11
 271 810 271 810 281.5 799.5 c 128,-1,12
 292 789 292 789 307 789 c 128,-1,13
 322 789 322 789 333 799.5 c 128,-1,14
 344 810 344 810 344 825 c 128,-1,15
 344 840 344 840 333 851 c 128,-1,8
 322 862 322 862 307 862 c 128,-1,9
333 702 m 2,16,17
 382 702 382 702 390 681 c 2,18,-1
 610 38 l 2,19,20
 613 28 613 28 613 20 c 0,21,22
 613 -2 613 -2 563 -2 c 2,23,-1
 519 -2 l 2,24,25
 470 -2 470 -2 463 19 c 2,26,-1
 423 141 l 1,27,-1
 187 141 l 1,28,-1
 147 19 l 2,29,30
 140 -2 140 -2 101 -2 c 2,31,-1
 61 -2 l 2,32,33
 0 -2 0 -2 0 20 c 0,34,35
 0 24 0 24 4 38 c 2,36,-1
 224 681 l 2,37,38
 232 702 232 702 281 702 c 2,39,-1
 333 702 l 2,16,17
304 515 m 1,40,41
 295 466 295 466 289 451 c 2,42,-1
 230 273 l 1,43,-1
 380 273 l 1,44,-1
 323 451 l 2,45,46
 316 471 316 471 308 515 c 1,47,-1
 304 515 l 1,40,41
EndSplineSet
Validated: 1
Position2: "'cpsp' Capital Spacing lookup 3 subtable" dx=5 dy=0 dh=10 dv=0
EndChar

StartChar: Aringacute
Encoding: 506 506 22
Width: 613
Flags: MW
HStem: -2 21G 141 132<230 380 230 423 187 380> 732 64<297 317> 812 119<280 407>
VStem: 208 63<689 705 685 724> 344 63<688.5 705>
LayerCount: 2
UndoRedoHistory
Layer: 1
Undoes
EndUndoes
Redoes
EndRedoes
EndUndoRedoHistory
Fore
SplineSet
610 38 m 2,0,1
 613 28 613 28 613 20 c 0,2,3
 613 -2 613 -2 563 -2 c 2,4,-1
 519 -2 l 2,5,6
 470 -2 470 -2 463 19 c 2,7,-1
 423 141 l 1,8,-1
 187 141 l 1,9,-1
 147 19 l 2,10,11
 140 -2 140 -2 101 -2 c 2,12,-1
 61 -2 l 2,13,14
 0 -2 0 -2 0 20 c 0,15,16
 0 24 0 24 4 38 c 2,17,-1
 216 657 l 1,18,19
 208 676 208 676 208 696 c 0,20,21
 208 738 208 738 236.5 767 c 128,-1,22
 265 796 265 796 307 796 c 128,-1,23
 349 796 349 796 378 767 c 128,-1,24
 407 738 407 738 407 696 c 0,25,26
 407 675 407 675 399 656 c 1,27,-1
 610 38 l 2,0,1
307 732 m 128,-1,29
 292 732 292 732 281.5 721 c 128,-1,30
 271 710 271 710 271 695 c 128,-1,31
 271 680 271 680 281.5 669.5 c 128,-1,32
 292 659 292 659 307 659 c 128,-1,33
 322 659 322 659 333 669.5 c 128,-1,34
 344 680 344 680 344 695 c 128,-1,35
 344 710 344 710 333 721 c 128,-1,28
 322 732 322 732 307 732 c 128,-1,29
380 273 m 1,36,-1
 323 451 l 2,37,38
 316 471 316 471 308 515 c 1,39,-1
 304 515 l 1,40,41
 295 466 295 466 289 451 c 2,42,-1
 230 273 l 1,43,-1
 380 273 l 1,36,-1
292 812 m 0,44,45
 261 812 261 812 261 827 c 1,46,47
 279 869 279 869 302 904 c 1,48,49
 317 931 317 931 387 931 c 0,50,51
 447 931 447 931 447 917 c 0,52,53
 447 911 447 911 411 877 c 0,54,55
 385 854 385 854 367 837 c 1,56,57
 344 812 344 812 292 812 c 0,44,45
EndSplineSet
Validated: 1
Position2: "'cpsp' Capital Spacing lookup 3 subtable" dx=5 dy=0 dh=10 dv=0
EndChar

StartChar: Atilde
Encoding: 195 195 23
Width: 613
Flags: MW
HStem: -2 21G 141 132<230 380 230 423 187 380> 682 20G<281 333 333 347.5> 757 86<362.5 376.5> 784 86<228.5 244>
VStem: 0 613<13 22.5>
LayerCount: 2
UndoRedoHistory
Layer: 1
Undoes
EndUndoes
Redoes
EndRedoes
EndUndoRedoHistory
Fore
SplineSet
426 858 m 0,0,1
 435 864 435 864 445 864 c 0,2,3
 459 864 459 864 470 852 c 0,4,5
 479 842 479 842 479 832 c 0,6,7
 479 818 479 818 462 798 c 1,8,9
 421 757 421 757 356 757 c 0,10,11
 322 757 322 757 284 773 c 0,12,13
 258 784 258 784 233 784 c 0,14,15
 211 784 211 784 183 770 c 0,16,17
 177 767 177 767 171 767 c 0,18,19
 155 767 155 767 141 784 c 0,20,21
 134 792 134 792 134 803 c 0,22,23
 134 817 134 817 146 829 c 1,24,25
 198 870 198 870 249 870 c 0,26,27
 284 870 284 870 327 854 c 1,28,29
 353 843 353 843 372 843 c 0,30,31
 400 843 400 843 426 858 c 0,0,1
333 702 m 2,32,33
 382 702 382 702 390 681 c 2,34,-1
 610 38 l 2,35,36
 613 28 613 28 613 20 c 0,37,38
 613 -2 613 -2 563 -2 c 2,39,-1
 519 -2 l 2,40,41
 470 -2 470 -2 463 19 c 2,42,-1
 423 141 l 1,43,-1
 187 141 l 1,44,-1
 147 19 l 2,45,46
 140 -2 140 -2 101 -2 c 2,47,-1
 61 -2 l 2,48,49
 0 -2 0 -2 0 20 c 0,50,51
 0 24 0 24 4 38 c 2,52,-1
 224 681 l 2,53,54
 232 702 232 702 281 702 c 2,55,-1
 333 702 l 2,32,33
304 515 m 1,56,57
 295 466 295 466 289 451 c 2,58,-1
 230 273 l 1,59,-1
 380 273 l 1,60,-1
 323 451 l 2,61,62
 316 471 316 471 308 515 c 1,63,-1
 304 515 l 1,56,57
EndSplineSet
Validated: 1
Position2: "'cpsp' Capital Spacing lookup 3 subtable" dx=5 dy=0 dh=10 dv=0
EndChar

StartChar: AE
Encoding: 198 198 24
Width: 915
Flags: MW
HStem: 0 131<493 835 602 835 602 835> 141 132<270 424 270 448 205 424> 293 131<571 807 571 571> 569 131<517 834 517 517>
VStem: 1 864<13 50>
LayerCount: 2
UndoRedoHistory
Layer: 1
Undoes
EndUndoes
Redoes
EndRedoes
EndUndoRedoHistory
Fore
SplineSet
834 700 m 2,0,1
 864 700 864 700 864 650 c 2,2,-1
 864 619 l 2,3,4
 864 569 864 569 834 569 c 2,5,-1
 517 569 l 1,6,-1
 545 424 l 1,7,-1
 807 424 l 2,8,9
 837 424 837 424 837 374 c 2,10,-1
 837 343 l 2,11,12
 837 293 837 293 807 293 c 2,13,-1
 571 293 l 1,14,-1
 602 131 l 1,15,-1
 835 131 l 2,16,17
 865 131 865 131 865 81 c 2,18,-1
 865 50 l 2,19,20
 865 0 865 0 835 0 c 2,21,-1
 504 0 l 2,22,23
 475 0 475 0 469 30 c 2,24,-1
 448 141 l 1,25,-1
 205 141 l 1,26,-1
 145 19 l 2,27,28
 134 -2 134 -2 99 -2 c 2,29,-1
 62 -2 l 2,30,31
 1 -2 1 -2 1 20 c 0,32,33
 1 30 1 30 5 38 c 2,34,-1
 326 673 l 2,35,36
 340 700 340 700 370 700 c 2,37,-1
 834 700 l 2,0,1
387 537 m 1,38,-1
 359 455 l 1,39,-1
 270 273 l 1,40,-1
 424 273 l 1,41,-1
 391 454 l 1,42,-1
 391 537 l 1,43,-1
 387 537 l 1,38,-1
EndSplineSet
Validated: 1
Position2: "'cpsp' Capital Spacing lookup 3 subtable" dx=5 dy=0 dh=10 dv=0
EndChar

StartChar: AEacute
Encoding: 508 508 25
Width: 915
Flags: MW
HStem: 0 131<493 835 602 835 602 835> 141 132<270 424 270 448 205 424> 293 131<571 807 571 571> 569 131<517 834 517 517> 752 159<407 558>
VStem: 1 864<13 50>
LayerCount: 2
UndoRedoHistory
Layer: 1
Undoes
EndUndoes
Redoes
EndRedoes
EndUndoRedoHistory
Fore
SplineSet
538 911 m 0,0,1
 598 911 598 911 598 897 c 0,2,3
 598 891 598 891 592 883 c 128,-1,4
 586 875 586 875 561 849 c 0,5,6
 550 838 550 838 543 830.5 c 128,-1,7
 536 823 536 823 522 807.5 c 128,-1,8
 508 792 508 792 494 777 c 0,9,10
 471 752 471 752 419 752 c 0,11,12
 388 752 388 752 388 767 c 0,13,14
 388 770 388 770 390 775 c 128,-1,15
 392 780 392 780 397.5 790 c 128,-1,16
 403 800 403 800 410 810.5 c 128,-1,17
 417 821 417 821 429 842 c 128,-1,18
 441 863 441 863 453 884 c 0,19,20
 468 911 468 911 538 911 c 0,0,1
834 700 m 2,21,22
 864 700 864 700 864 650 c 2,23,-1
 864 619 l 2,24,25
 864 569 864 569 834 569 c 2,26,-1
 517 569 l 1,27,-1
 545 424 l 1,28,-1
 807 424 l 2,29,30
 837 424 837 424 837 374 c 2,31,-1
 837 343 l 2,32,33
 837 293 837 293 807 293 c 2,34,-1
 571 293 l 1,35,-1
 602 131 l 1,36,-1
 835 131 l 2,37,38
 865 131 865 131 865 81 c 2,39,-1
 865 50 l 2,40,41
 865 0 865 0 835 0 c 2,42,-1
 504 0 l 2,43,44
 475 0 475 0 469 30 c 2,45,-1
 448 141 l 1,46,-1
 205 141 l 1,47,-1
 145 19 l 2,48,49
 134 -2 134 -2 99 -2 c 2,50,-1
 62 -2 l 2,51,52
 1 -2 1 -2 1 20 c 0,53,54
 1 30 1 30 5 38 c 2,55,-1
 326 673 l 2,56,57
 340 700 340 700 370 700 c 2,58,-1
 834 700 l 2,21,22
359 455 m 1,59,-1
 270 273 l 1,60,-1
 424 273 l 1,61,-1
 391 454 l 1,62,-1
 391 537 l 1,63,-1
 387 537 l 1,64,-1
 359 455 l 1,59,-1
EndSplineSet
Validated: 1
Position2: "'cpsp' Capital Spacing lookup 3 subtable" dx=5 dy=0 dh=10 dv=0
EndChar

StartChar: B
Encoding: 66 66 26
Width: 593
Flags: MW
HStem: 0 131<95 321 223 321 223 321> 290 131<223 292 223 292 292 305> 570 130<223 223 223 294>
VStem: 69 154<131 290 421 570> 385 158<489 520.5> 413 158<186 238>
LayerCount: 2
UndoRedoHistory
Layer: 1
Undoes
EndUndoes
Redoes
EndRedoes
EndUndoRedoHistory
Fore
SplineSet
307 700 m 2,0,1
 429 700 429 700 486 653 c 128,-1,2
 543 606 543 606 543 523 c 0,3,4
 543 473 543 473 512.5 431.5 c 128,-1,5
 482 390 482 390 435 371 c 1,6,-1
 436 367 l 1,7,8
 495 355 495 355 533 308 c 128,-1,9
 571 261 571 261 571 203 c 0,10,11
 571 105 571 105 508.5 52.5 c 128,-1,12
 446 0 446 0 321 0 c 2,13,-1
 109 0 l 2,14,15
 69 0 69 0 69 40 c 2,16,-1
 69 660 l 2,17,18
 69 700 69 700 109 700 c 2,19,-1
 307 700 l 2,0,1
223 570 m 1,20,-1
 223 421 l 1,21,-1
 292 421 l 2,22,23
 336 421 336 421 360.5 442 c 128,-1,24
 385 463 385 463 385 496 c 0,25,26
 385 570 385 570 294 570 c 2,27,-1
 223 570 l 1,20,-1
223 290 m 1,28,-1
 223 131 l 1,29,-1
 321 131 l 2,30,31
 365 131 365 131 389 152 c 128,-1,32
 413 173 413 173 413 212 c 0,33,34
 413 290 413 290 305 290 c 2,35,-1
 223 290 l 1,28,-1
EndSplineSet
Validated: 1
Position2: "'cpsp' Capital Spacing lookup 3 subtable" dx=5 dy=0 dh=10 dv=0
EndChar

StartChar: C
Encoding: 67 67 27
Width: 619
Flags: MW
HStem: -8 131<316.5 414> 576 132<317 423 268 423.5>
VStem: 45 158<276 426 276 471>
LayerCount: 2
UndoRedoHistory
Layer: 1
Undoes
EndUndoes
Redoes
EndRedoes
EndUndoRedoHistory
Fore
SplineSet
379 708 m 0,0,1
 452 708 452 708 520 688 c 128,-1,2
 588 668 588 668 588 638 c 0,3,4
 588 616 588 616 564.5 580 c 128,-1,5
 541 544 541 544 523 544 c 0,6,7
 520 544 520 544 502.5 552 c 128,-1,8
 485 560 485 560 451.5 568 c 128,-1,9
 418 576 418 576 376 576 c 0,10,11
 203 576 203 576 203 351 c 0,12,13
 203 123 203 123 374 123 c 0,14,15
 416 123 416 123 453 133 c 128,-1,16
 490 143 490 143 512 153 c 128,-1,17
 534 163 534 163 538 163 c 0,18,19
 559 163 559 163 578 128.5 c 128,-1,20
 597 94 597 94 597 76 c 0,21,22
 597 36 597 36 523 14 c 128,-1,23
 449 -8 449 -8 374 -8 c 0,24,25
 206 -8 206 -8 125.5 79.5 c 128,-1,26
 45 167 45 167 45 352 c 0,27,28
 45 708 45 708 379 708 c 0,0,1
EndSplineSet
Validated: 1
Position2: "'cpsp' Capital Spacing lookup 3 subtable" dx=5 dy=0 dh=10 dv=0
EndChar

StartChar: Cacute
Encoding: 262 262 28
Width: 619
Flags: MW
HStem: -8 131<316.5 414> 576 132<317 423 268 423.5> 752 159<317 468>
VStem: 45 158<276 426 276 471>
LayerCount: 2
UndoRedoHistory
Layer: 1
Undoes
EndUndoes
Redoes
EndRedoes
EndUndoRedoHistory
Fore
SplineSet
448 911 m 0,0,1
 508 911 508 911 508 897 c 0,2,3
 508 891 508 891 502 883 c 128,-1,4
 496 875 496 875 471 849 c 0,5,6
 460 838 460 838 453 830.5 c 128,-1,7
 446 823 446 823 432 807.5 c 128,-1,8
 418 792 418 792 404 777 c 0,9,10
 381 752 381 752 329 752 c 0,11,12
 298 752 298 752 298 767 c 0,13,14
 298 770 298 770 300 775 c 128,-1,15
 302 780 302 780 307.5 790 c 128,-1,16
 313 800 313 800 320 810.5 c 128,-1,17
 327 821 327 821 339 842 c 128,-1,18
 351 863 351 863 363 884 c 0,19,20
 378 911 378 911 448 911 c 0,0,1
379 708 m 0,21,22
 452 708 452 708 520 688 c 128,-1,23
 588 668 588 668 588 638 c 0,24,25
 588 616 588 616 564.5 580 c 128,-1,26
 541 544 541 544 523 544 c 0,27,28
 520 544 520 544 502.5 552 c 128,-1,29
 485 560 485 560 451.5 568 c 128,-1,30
 418 576 418 576 376 576 c 0,31,32
 203 576 203 576 203 351 c 0,33,34
 203 123 203 123 374 123 c 0,35,36
 416 123 416 123 453 133 c 128,-1,37
 490 143 490 143 512 153 c 128,-1,38
 534 163 534 163 538 163 c 0,39,40
 559 163 559 163 578 128.5 c 128,-1,41
 597 94 597 94 597 76 c 0,42,43
 597 36 597 36 523 14 c 128,-1,44
 449 -8 449 -8 374 -8 c 0,45,46
 206 -8 206 -8 125.5 79.5 c 128,-1,47
 45 167 45 167 45 352 c 0,48,49
 45 708 45 708 379 708 c 0,21,22
EndSplineSet
Validated: 1
Substitution2: "'locl' Localized Forms in Latin lookup 12 subtable" Cacute.loclPLK
Substitution2: "'aalt' Access All Alternates lookup 0 subtable" Cacute.loclPLK
Position2: "'cpsp' Capital Spacing lookup 3 subtable" dx=5 dy=0 dh=10 dv=0
EndChar

StartChar: Ccaron
Encoding: 268 268 29
Width: 619
Flags: MW
HStem: -8 131<316.5 414> 576 132<317 423 268 423.5> 749 146<251 363 251 374>
VStem: 45 158<276 426 276 471>
LayerCount: 2
UndoRedoHistory
Layer: 1
Undoes
EndUndoes
Redoes
EndRedoes
EndUndoRedoHistory
Fore
SplineSet
486 895 m 2,0,1
 506 895 506 895 506 885 c 0,2,3
 506 879 506 879 500 870 c 2,4,-1
 435 768 l 2,5,6
 423 749 423 749 374 749 c 2,7,-1
 363 749 l 2,8,9
 314 749 314 749 302 768 c 2,10,-1
 237 870 l 2,11,12
 231 879 231 879 231 885 c 0,13,14
 231 895 231 895 251 895 c 2,15,-1
 273 895 l 2,16,17
 322 895 322 895 340 870 c 2,18,-1
 368 831 l 1,19,-1
 396 871 l 2,20,21
 412 895 412 895 464 895 c 2,22,-1
 486 895 l 2,0,1
379 708 m 0,23,24
 452 708 452 708 520 688 c 128,-1,25
 588 668 588 668 588 638 c 0,26,27
 588 616 588 616 564.5 580 c 128,-1,28
 541 544 541 544 523 544 c 0,29,30
 520 544 520 544 502.5 552 c 128,-1,31
 485 560 485 560 451.5 568 c 128,-1,32
 418 576 418 576 376 576 c 0,33,34
 203 576 203 576 203 351 c 0,35,36
 203 123 203 123 374 123 c 0,37,38
 416 123 416 123 453 133 c 128,-1,39
 490 143 490 143 512 153 c 128,-1,40
 534 163 534 163 538 163 c 0,41,42
 559 163 559 163 578 128.5 c 128,-1,43
 597 94 597 94 597 76 c 0,44,45
 597 36 597 36 523 14 c 128,-1,46
 449 -8 449 -8 374 -8 c 0,47,48
 206 -8 206 -8 125.5 79.5 c 128,-1,49
 45 167 45 167 45 352 c 0,50,51
 45 708 45 708 379 708 c 0,23,24
EndSplineSet
Validated: 1
Position2: "'cpsp' Capital Spacing lookup 3 subtable" dx=5 dy=0 dh=10 dv=0
EndChar

StartChar: Ccedilla
Encoding: 199 199 30
Width: 619
Flags: MW
HStem: -212 73<327 356 326 394.5> -7 130<404 404> 576 132<317 423 268 423.5>
VStem: 45 158<276 426 276 471> 371 103<-127.5 -109.5>
LayerCount: 2
UndoRedoHistory
Layer: 1
Undoes
EndUndoes
Redoes
EndRedoes
EndUndoRedoHistory
Fore
SplineSet
397 -36 m 1,0,1
 428 -40 428 -40 451 -58.5 c 128,-1,2
 474 -77 474 -77 474 -112 c 0,3,4
 474 -212 474 -212 355 -212 c 0,5,6
 308 -212 308 -212 266 -198 c 128,-1,7
 224 -184 224 -184 224 -162 c 128,-1,8
 224 -140 224 -140 235.5 -129 c 128,-1,9
 247 -118 247 -118 256 -118 c 128,-1,10
 265 -118 265 -118 294.5 -128.5 c 128,-1,11
 324 -139 324 -139 347 -139 c 0,12,13
 371 -139 371 -139 371 -122 c 0,14,15
 371 -109 371 -109 344.5 -97.5 c 128,-1,16
 318 -86 318 -86 318 -74 c 0,17,18
 318 -68 318 -68 338 -7 c 1,19,20
 189 2 189 2 117 89.5 c 128,-1,21
 45 177 45 177 45 352 c 0,22,23
 45 708 45 708 379 708 c 0,24,25
 452 708 452 708 520 688 c 128,-1,26
 588 668 588 668 588 638 c 0,27,28
 588 616 588 616 564.5 580 c 128,-1,29
 541 544 541 544 523 544 c 0,30,31
 520 544 520 544 502.5 552 c 128,-1,32
 485 560 485 560 451.5 568 c 128,-1,33
 418 576 418 576 376 576 c 0,34,35
 203 576 203 576 203 351 c 0,36,37
 203 123 203 123 374 123 c 0,38,39
 416 123 416 123 453 133 c 128,-1,40
 490 143 490 143 512 153 c 128,-1,41
 534 163 534 163 538 163 c 0,42,43
 559 163 559 163 578 128.5 c 128,-1,44
 597 94 597 94 597 76 c 0,45,46
 597 40 597 40 537.5 18.5 c 128,-1,47
 478 -3 478 -3 404 -7 c 1,48,-1
 397 -36 l 1,0,1
EndSplineSet
Validated: 1
Position2: "'cpsp' Capital Spacing lookup 3 subtable" dx=5 dy=0 dh=10 dv=0
EndChar

StartChar: Ccircumflex
Encoding: 264 264 31
Width: 619
Flags: MW
HStem: -8 131<316.5 414> 576 132<317 423 268 423.5> 749 146<244 374 251 374 363 464 363 486>
VStem: 45 158<276 426 276 471>
LayerCount: 2
UndoRedoHistory
Layer: 1
Undoes
EndUndoes
Redoes
EndRedoes
EndUndoRedoHistory
Fore
SplineSet
374 895 m 2,0,1
 423 895 423 895 435 876 c 2,2,-1
 500 774 l 2,3,4
 506 765 506 765 506 759 c 0,5,6
 506 749 506 749 486 749 c 2,7,-1
 464 749 l 2,8,9
 412 749 412 749 396 773 c 2,10,-1
 368 813 l 1,11,-1
 340 774 l 2,12,13
 322 749 322 749 273 749 c 2,14,-1
 251 749 l 2,15,16
 231 749 231 749 231 759 c 0,17,18
 231 765 231 765 237 774 c 2,19,-1
 302 876 l 2,20,21
 314 895 314 895 363 895 c 2,22,-1
 374 895 l 2,0,1
379 708 m 0,23,24
 452 708 452 708 520 688 c 128,-1,25
 588 668 588 668 588 638 c 0,26,27
 588 616 588 616 564.5 580 c 128,-1,28
 541 544 541 544 523 544 c 0,29,30
 520 544 520 544 502.5 552 c 128,-1,31
 485 560 485 560 451.5 568 c 128,-1,32
 418 576 418 576 376 576 c 0,33,34
 203 576 203 576 203 351 c 0,35,36
 203 123 203 123 374 123 c 0,37,38
 416 123 416 123 453 133 c 128,-1,39
 490 143 490 143 512 153 c 128,-1,40
 534 163 534 163 538 163 c 0,41,42
 559 163 559 163 578 128.5 c 128,-1,43
 597 94 597 94 597 76 c 0,44,45
 597 36 597 36 523 14 c 128,-1,46
 449 -8 449 -8 374 -8 c 0,47,48
 206 -8 206 -8 125.5 79.5 c 128,-1,49
 45 167 45 167 45 352 c 0,50,51
 45 708 45 708 379 708 c 0,23,24
EndSplineSet
Validated: 1
Position2: "'cpsp' Capital Spacing lookup 3 subtable" dx=5 dy=0 dh=10 dv=0
EndChar

StartChar: Cdotaccent
Encoding: 266 266 32
Width: 619
Flags: MW
HStem: -8 131<316.5 414> 576 132<317 423 268 423.5> 755 124<347 389>
VStem: 45 158<276 426 276 471> 308 120<787 847 776.5 857.5>
LayerCount: 2
UndoRedoHistory
Layer: 1
Undoes
EndUndoes
Redoes
EndRedoes
EndUndoRedoHistory
Fore
SplineSet
308 847 m 2,0,1
 308 879 308 879 368 879 c 128,-1,2
 428 879 428 879 428 847 c 2,3,-1
 428 787 l 2,4,5
 428 755 428 755 368 755 c 128,-1,6
 308 755 308 755 308 787 c 2,7,-1
 308 847 l 2,0,1
379 708 m 0,8,9
 452 708 452 708 520 688 c 128,-1,10
 588 668 588 668 588 638 c 0,11,12
 588 616 588 616 564.5 580 c 128,-1,13
 541 544 541 544 523 544 c 0,14,15
 520 544 520 544 502.5 552 c 128,-1,16
 485 560 485 560 451.5 568 c 128,-1,17
 418 576 418 576 376 576 c 0,18,19
 203 576 203 576 203 351 c 0,20,21
 203 123 203 123 374 123 c 0,22,23
 416 123 416 123 453 133 c 128,-1,24
 490 143 490 143 512 153 c 128,-1,25
 534 163 534 163 538 163 c 0,26,27
 559 163 559 163 578 128.5 c 128,-1,28
 597 94 597 94 597 76 c 0,29,30
 597 36 597 36 523 14 c 128,-1,31
 449 -8 449 -8 374 -8 c 0,32,33
 206 -8 206 -8 125.5 79.5 c 128,-1,34
 45 167 45 167 45 352 c 0,35,36
 45 708 45 708 379 708 c 0,8,9
EndSplineSet
Validated: 1
Position2: "'cpsp' Capital Spacing lookup 3 subtable" dx=5 dy=0 dh=10 dv=0
EndChar

StartChar: D
Encoding: 68 68 33
Width: 695
Flags: MW
HStem: 0 131<95 333 224 333 224 333> 569 131<224 224 224 333>
VStem: 69 155<131 569 131 660 131 674> 495 158<279 421>
LayerCount: 2
UndoRedoHistory
Layer: 1
Undoes
EndUndoes
Redoes
EndRedoes
EndUndoRedoHistory
Fore
SplineSet
333 700 m 2,0,1
 488 700 488 700 570.5 609.5 c 128,-1,2
 653 519 653 519 653 350 c 128,-1,3
 653 181 653 181 570.5 90.5 c 128,-1,4
 488 0 488 0 333 0 c 2,5,-1
 109 0 l 2,6,7
 69 0 69 0 69 40 c 2,8,-1
 69 660 l 2,9,10
 69 700 69 700 109 700 c 2,11,-1
 333 700 l 2,0,1
224 569 m 1,12,-1
 224 131 l 1,13,-1
 333 131 l 2,14,15
 413 131 413 131 454 187 c 128,-1,16
 495 243 495 243 495 350 c 128,-1,17
 495 457 495 457 454 513 c 128,-1,18
 413 569 413 569 333 569 c 2,19,-1
 224 569 l 1,12,-1
EndSplineSet
Validated: 1
Position2: "'cpsp' Capital Spacing lookup 3 subtable" dx=5 dy=0 dh=10 dv=0
EndChar

StartChar: DZ
Encoding: 497 497 34
Width: 1311
Flags: MW
HStem: 0 131<95 333 224 333 224 333 940 1245> 569 131<224 333 224 224 781 1059>
VStem: 69 155<131 131 131 569> 495 158<279 421>
LayerCount: 2
UndoRedoHistory
Layer: 1
Undoes
EndUndoes
Redoes
EndRedoes
EndUndoRedoHistory
Fore
SplineSet
333 700 m 2,0,1
 488 700 488 700 570.5 609.5 c 128,-1,2
 653 519 653 519 653 350 c 128,-1,3
 653 181 653 181 570.5 90.5 c 128,-1,4
 488 0 488 0 333 0 c 2,5,-1
 109 0 l 2,6,7
 69 0 69 0 69 40 c 2,8,-1
 69 660 l 2,9,10
 69 700 69 700 109 700 c 2,11,-1
 333 700 l 2,0,1
1238 700 m 2,12,13
 1249 700 1249 700 1262 665 c 128,-1,14
 1275 630 1275 630 1275 608 c 0,15,16
 1275 602 1275 602 1274 600 c 2,17,-1
 940 131 l 1,18,-1
 1245 131 l 2,19,20
 1275 131 1275 131 1275 81 c 2,21,-1
 1275 50 l 2,22,23
 1275 0 1275 0 1245 0 c 2,24,-1
 761 0 l 2,25,26
 749 0 749 0 735.5 33.5 c 128,-1,27
 722 67 722 67 722 89 c 0,28,29
 722 95 722 95 724 99 c 2,30,-1
 1059 569 l 1,31,-1
 781 569 l 2,32,33
 751 569 751 569 751 619 c 2,34,-1
 751 650 l 2,35,36
 751 700 751 700 781 700 c 2,37,-1
 1238 700 l 2,12,13
224 131 m 1,38,-1
 333 131 l 2,39,40
 413 131 413 131 454 187 c 128,-1,41
 495 243 495 243 495 350 c 128,-1,42
 495 457 495 457 454 513 c 128,-1,43
 413 569 413 569 333 569 c 2,44,-1
 224 569 l 1,45,-1
 224 131 l 1,38,-1
EndSplineSet
Validated: 1
Position2: "'cpsp' Capital Spacing lookup 3 subtable" dx=5 dy=0 dh=10 dv=0
EndChar

StartChar: DZcaron
Encoding: 452 452 35
Width: 1311
Flags: MW
HStem: 0 131<95 333 224 333 224 333 940 1245> 569 131<224 333 224 224 781 1059> 749 146<886 998 886 1009>
VStem: 69 155<131 131 131 569> 495 158<279 421>
LayerCount: 2
UndoRedoHistory
Layer: 1
Undoes
EndUndoes
Redoes
EndRedoes
EndUndoRedoHistory
Fore
SplineSet
333 700 m 2,0,1
 488 700 488 700 570.5 609.5 c 128,-1,2
 653 519 653 519 653 350 c 128,-1,3
 653 181 653 181 570.5 90.5 c 128,-1,4
 488 0 488 0 333 0 c 2,5,-1
 109 0 l 2,6,7
 69 0 69 0 69 40 c 2,8,-1
 69 660 l 2,9,10
 69 700 69 700 109 700 c 2,11,-1
 333 700 l 2,0,1
224 131 m 1,12,-1
 333 131 l 2,13,14
 413 131 413 131 454 187 c 128,-1,15
 495 243 495 243 495 350 c 128,-1,16
 495 457 495 457 454 513 c 128,-1,17
 413 569 413 569 333 569 c 2,18,-1
 224 569 l 1,19,-1
 224 131 l 1,12,-1
1121 895 m 2,20,21
 1141 895 1141 895 1141 885 c 0,22,23
 1141 879 1141 879 1135 870 c 2,24,-1
 1070 768 l 2,25,26
 1058 749 1058 749 1009 749 c 2,27,-1
 998 749 l 2,28,29
 949 749 949 749 937 768 c 2,30,-1
 872 870 l 2,31,32
 866 879 866 879 866 885 c 0,33,34
 866 895 866 895 886 895 c 2,35,-1
 908 895 l 2,36,37
 957 895 957 895 975 870 c 2,38,-1
 1003 831 l 1,39,-1
 1031 871 l 2,40,41
 1047 895 1047 895 1099 895 c 2,42,-1
 1121 895 l 2,20,21
1238 700 m 2,43,44
 1249 700 1249 700 1262 665 c 128,-1,45
 1275 630 1275 630 1275 608 c 0,46,47
 1275 602 1275 602 1274 600 c 2,48,-1
 940 131 l 1,49,-1
 1245 131 l 2,50,51
 1275 131 1275 131 1275 81 c 2,52,-1
 1275 50 l 2,53,54
 1275 0 1275 0 1245 0 c 2,55,-1
 761 0 l 2,56,57
 749 0 749 0 735.5 33.5 c 128,-1,58
 722 67 722 67 722 89 c 0,59,60
 722 95 722 95 724 99 c 2,61,-1
 1059 569 l 1,62,-1
 781 569 l 2,63,64
 751 569 751 569 751 619 c 2,65,-1
 751 650 l 2,66,67
 751 700 751 700 781 700 c 2,68,-1
 1238 700 l 2,43,44
EndSplineSet
Validated: 1
Position2: "'cpsp' Capital Spacing lookup 3 subtable" dx=5 dy=0 dh=10 dv=0
EndChar

StartChar: Eth
Encoding: 208 208 36
Width: 696
Flags: MW
HStem: 0 131<97 335 226 335 226 335> 291 130<31.5 71 42 71 226 285> 569 131<226 226 226 335>
VStem: 71 155<131 291 131 291 131 291 421 569> 497 158<279 421>
LayerCount: 2
UndoRedoHistory
Layer: 1
Undoes
EndUndoes
Redoes
EndRedoes
EndUndoRedoHistory
Fore
SplineSet
335 700 m 2,0,1
 490 700 490 700 572.5 609.5 c 128,-1,2
 655 519 655 519 655 350 c 128,-1,3
 655 181 655 181 572.5 90.5 c 128,-1,4
 490 0 490 0 335 0 c 2,5,-1
 111 0 l 2,6,7
 71 0 71 0 71 40 c 2,8,-1
 71 291 l 1,9,-1
 42 291 l 2,10,11
 12 291 12 291 12 341 c 2,12,-1
 12 371 l 2,13,14
 12 421 12 421 42 421 c 2,15,-1
 71 421 l 1,16,-1
 71 660 l 2,17,18
 71 700 71 700 111 700 c 2,19,-1
 335 700 l 2,0,1
226 569 m 1,20,-1
 226 421 l 1,21,-1
 285 421 l 2,22,23
 315 421 315 421 315 371 c 2,24,-1
 315 341 l 2,25,26
 315 291 315 291 285 291 c 2,27,-1
 226 291 l 1,28,-1
 226 131 l 1,29,-1
 335 131 l 2,30,31
 415 131 415 131 456 187 c 128,-1,32
 497 243 497 243 497 350 c 128,-1,33
 497 457 497 457 456 513 c 128,-1,34
 415 569 415 569 335 569 c 2,35,-1
 226 569 l 1,20,-1
EndSplineSet
Validated: 1
Position2: "'cpsp' Capital Spacing lookup 3 subtable" dx=5 dy=0 dh=10 dv=0
EndChar

StartChar: Dcaron
Encoding: 270 270 37
Width: 695
Flags: MW
HStem: 0 131<95 333 224 333 224 333> 569 131<224 333 224 224> 749 146<216 328 216 339>
VStem: 69 155<131 131 131 569> 495 158<279 421>
LayerCount: 2
UndoRedoHistory
Layer: 1
Undoes
EndUndoes
Redoes
EndRedoes
EndUndoRedoHistory
Fore
SplineSet
451 895 m 2,0,1
 471 895 471 895 471 885 c 0,2,3
 471 879 471 879 465 870 c 2,4,-1
 400 768 l 2,5,6
 388 749 388 749 339 749 c 2,7,-1
 328 749 l 2,8,9
 279 749 279 749 267 768 c 2,10,-1
 202 870 l 2,11,12
 196 879 196 879 196 885 c 0,13,14
 196 895 196 895 216 895 c 2,15,-1
 238 895 l 2,16,17
 287 895 287 895 305 870 c 2,18,-1
 333 831 l 1,19,-1
 361 871 l 2,20,21
 377 895 377 895 429 895 c 2,22,-1
 451 895 l 2,0,1
333 700 m 2,23,24
 488 700 488 700 570.5 609.5 c 128,-1,25
 653 519 653 519 653 350 c 128,-1,26
 653 181 653 181 570.5 90.5 c 128,-1,27
 488 0 488 0 333 0 c 2,28,-1
 109 0 l 2,29,30
 69 0 69 0 69 40 c 2,31,-1
 69 660 l 2,32,33
 69 700 69 700 109 700 c 2,34,-1
 333 700 l 2,23,24
224 131 m 1,35,-1
 333 131 l 2,36,37
 413 131 413 131 454 187 c 128,-1,38
 495 243 495 243 495 350 c 128,-1,39
 495 457 495 457 454 513 c 128,-1,40
 413 569 413 569 333 569 c 2,41,-1
 224 569 l 1,42,-1
 224 131 l 1,35,-1
EndSplineSet
Validated: 1
Position2: "'cpsp' Capital Spacing lookup 3 subtable" dx=5 dy=0 dh=10 dv=0
EndChar

StartChar: Dcroat
Encoding: 272 272 38
Width: 696
Flags: MW
HStem: 0 131<97 335 226 335 226 335> 291 130<31.5 71 42 71 226 285> 569 131<226 335 226 226>
VStem: 71 155<131 291 131 291 131 291 421 569> 497 158<279 421>
LayerCount: 2
UndoRedoHistory
Layer: 1
Undoes
EndUndoes
Redoes
EndRedoes
EndUndoRedoHistory
Fore
SplineSet
335 700 m 2,0,1
 490 700 490 700 572.5 609.5 c 128,-1,2
 655 519 655 519 655 350 c 128,-1,3
 655 181 655 181 572.5 90.5 c 128,-1,4
 490 0 490 0 335 0 c 2,5,-1
 111 0 l 2,6,7
 71 0 71 0 71 40 c 2,8,-1
 71 291 l 1,9,-1
 42 291 l 2,10,11
 12 291 12 291 12 341 c 2,12,-1
 12 371 l 2,13,14
 12 421 12 421 42 421 c 2,15,-1
 71 421 l 1,16,-1
 71 660 l 2,17,18
 71 700 71 700 111 700 c 2,19,-1
 335 700 l 2,0,1
226 421 m 1,20,-1
 285 421 l 2,21,22
 315 421 315 421 315 371 c 2,23,-1
 315 341 l 2,24,25
 315 291 315 291 285 291 c 2,26,-1
 226 291 l 1,27,-1
 226 131 l 1,28,-1
 335 131 l 2,29,30
 415 131 415 131 456 187 c 128,-1,31
 497 243 497 243 497 350 c 128,-1,32
 497 457 497 457 456 513 c 128,-1,33
 415 569 415 569 335 569 c 2,34,-1
 226 569 l 1,35,-1
 226 421 l 1,20,-1
EndSplineSet
Validated: 1
Position2: "'cpsp' Capital Spacing lookup 3 subtable" dx=5 dy=0 dh=10 dv=0
EndChar

StartChar: Ddotbelow
Encoding: 7692 7692 39
Width: 695
Flags: MW
HStem: -204 124<312 354> 0 131<95 333 224 333 224 333> 569 131<224 333 224 224>
VStem: 69 155<131 131 131 569> 273 120<-172 -112 -182.5 -101.5> 495 158<279 421>
LayerCount: 2
UndoRedoHistory
Layer: 1
Undoes
EndUndoes
Redoes
EndRedoes
EndUndoRedoHistory
Fore
SplineSet
333 700 m 2,0,1
 488 700 488 700 570.5 609.5 c 128,-1,2
 653 519 653 519 653 350 c 128,-1,3
 653 181 653 181 570.5 90.5 c 128,-1,4
 488 0 488 0 333 0 c 2,5,-1
 109 0 l 2,6,7
 69 0 69 0 69 40 c 2,8,-1
 69 660 l 2,9,10
 69 700 69 700 109 700 c 2,11,-1
 333 700 l 2,0,1
224 131 m 1,12,-1
 333 131 l 2,13,14
 413 131 413 131 454 187 c 128,-1,15
 495 243 495 243 495 350 c 128,-1,16
 495 457 495 457 454 513 c 128,-1,17
 413 569 413 569 333 569 c 2,18,-1
 224 569 l 1,19,-1
 224 131 l 1,12,-1
273 -112 m 2,20,21
 273 -80 273 -80 333 -80 c 128,-1,22
 393 -80 393 -80 393 -112 c 2,23,-1
 393 -172 l 2,24,25
 393 -204 393 -204 333 -204 c 128,-1,26
 273 -204 273 -204 273 -172 c 2,27,-1
 273 -112 l 2,20,21
EndSplineSet
Validated: 1
Position2: "'cpsp' Capital Spacing lookup 3 subtable" dx=5 dy=0 dh=10 dv=0
EndChar

StartChar: Dz
Encoding: 498 498 40
Width: 1184
Flags: MW
HStem: 0 117<920 1125 920 1125> 0 131<95 333 224 333 224 333> 406 117<757.5 1122 768 954> 569 131<224 333 224 224>
VStem: 69 155<131 131 131 569> 495 158<279 421>
LayerCount: 2
UndoRedoHistory
Layer: 1
Undoes
EndUndoes
Redoes
EndRedoes
EndUndoRedoHistory
Fore
SplineSet
333 700 m 2,0,1
 488 700 488 700 570.5 609.5 c 128,-1,2
 653 519 653 519 653 350 c 128,-1,3
 653 181 653 181 570.5 90.5 c 128,-1,4
 488 0 488 0 333 0 c 2,5,-1
 109 0 l 2,6,7
 69 0 69 0 69 40 c 2,8,-1
 69 660 l 2,9,10
 69 700 69 700 109 700 c 2,11,-1
 333 700 l 2,0,1
224 131 m 1,12,-1
 333 131 l 2,13,14
 413 131 413 131 454 187 c 128,-1,15
 495 243 495 243 495 350 c 128,-1,16
 495 457 495 457 454 513 c 128,-1,17
 413 569 413 569 333 569 c 2,18,-1
 224 569 l 1,19,-1
 224 131 l 1,12,-1
1122 523 m 2,20,21
 1130 523 1130 523 1140.5 495 c 128,-1,22
 1151 467 1151 467 1151 446 c 0,23,24
 1151 436 1151 436 1148 431 c 2,25,-1
 920 117 l 1,26,-1
 1125 117 l 2,27,28
 1155 117 1155 117 1155 67 c 2,29,-1
 1155 50 l 2,30,31
 1155 0 1155 0 1125 0 c 2,32,-1
 751 0 l 2,33,34
 742 0 742 0 732 27.5 c 128,-1,35
 722 55 722 55 722 76 c 0,36,37
 722 86 722 86 725 90 c 2,38,-1
 954 406 l 1,39,-1
 768 406 l 2,40,41
 738 406 738 406 738 456 c 2,42,-1
 738 473 l 2,43,44
 738 523 738 523 768 523 c 2,45,-1
 1122 523 l 2,20,21
EndSplineSet
Validated: 1
Position2: "'cpsp' Capital Spacing lookup 3 subtable" dx=5 dy=0 dh=10 dv=0
EndChar

StartChar: Dzcaron
Encoding: 453 453 41
Width: 1184
Flags: MW
HStem: 0 117<920 1125 920 1125> 0 131<95 333 224 333 224 333> 406 117<757.5 1122 768 954> 569 131<224 333 224 224> 572 146<823 935 823 946>
VStem: 69 155<131 131 131 569> 495 158<279 421>
LayerCount: 2
UndoRedoHistory
Layer: 1
Undoes
EndUndoes
Redoes
EndRedoes
EndUndoRedoHistory
Fore
SplineSet
333 700 m 2,0,1
 488 700 488 700 570.5 609.5 c 128,-1,2
 653 519 653 519 653 350 c 128,-1,3
 653 181 653 181 570.5 90.5 c 128,-1,4
 488 0 488 0 333 0 c 2,5,-1
 109 0 l 2,6,7
 69 0 69 0 69 40 c 2,8,-1
 69 660 l 2,9,10
 69 700 69 700 109 700 c 2,11,-1
 333 700 l 2,0,1
224 131 m 1,12,-1
 333 131 l 2,13,14
 413 131 413 131 454 187 c 128,-1,15
 495 243 495 243 495 350 c 128,-1,16
 495 457 495 457 454 513 c 128,-1,17
 413 569 413 569 333 569 c 2,18,-1
 224 569 l 1,19,-1
 224 131 l 1,12,-1
1122 523 m 2,20,21
 1130 523 1130 523 1140.5 495 c 128,-1,22
 1151 467 1151 467 1151 446 c 0,23,24
 1151 436 1151 436 1148 431 c 2,25,-1
 920 117 l 1,26,-1
 1125 117 l 2,27,28
 1155 117 1155 117 1155 67 c 2,29,-1
 1155 50 l 2,30,31
 1155 0 1155 0 1125 0 c 2,32,-1
 751 0 l 2,33,34
 742 0 742 0 732 27.5 c 128,-1,35
 722 55 722 55 722 76 c 0,36,37
 722 86 722 86 725 90 c 2,38,-1
 954 406 l 1,39,-1
 768 406 l 2,40,41
 738 406 738 406 738 456 c 2,42,-1
 738 473 l 2,43,44
 738 523 738 523 768 523 c 2,45,-1
 1122 523 l 2,20,21
1058 718 m 2,46,47
 1078 718 1078 718 1078 708 c 0,48,49
 1078 702 1078 702 1072 693 c 2,50,-1
 1007 591 l 2,51,52
 995 572 995 572 946 572 c 2,53,-1
 935 572 l 2,54,55
 886 572 886 572 874 591 c 2,56,-1
 809 693 l 2,57,58
 803 702 803 702 803 708 c 0,59,60
 803 718 803 718 823 718 c 2,61,-1
 845 718 l 2,62,63
 894 718 894 718 912 693 c 2,64,-1
 940 654 l 1,65,-1
 968 694 l 2,66,67
 984 718 984 718 1036 718 c 2,68,-1
 1058 718 l 2,46,47
EndSplineSet
Validated: 1
Position2: "'cpsp' Capital Spacing lookup 3 subtable" dx=5 dy=0 dh=10 dv=0
EndChar

StartChar: E
Encoding: 69 69 42
Width: 546
Flags: MW
HStem: 0 131<95 476 223 476 223 476> 293 131<223 448 223 448> 569 131<223 475 223 223>
VStem: 69 154<131 293 424 569>
LayerCount: 2
UndoRedoHistory
Layer: 1
Undoes
EndUndoes
Redoes
EndRedoes
EndUndoRedoHistory
Fore
SplineSet
475 700 m 2,0,1
 505 700 505 700 505 650 c 2,2,-1
 505 619 l 2,3,4
 505 569 505 569 475 569 c 2,5,-1
 223 569 l 1,6,-1
 223 424 l 1,7,-1
 448 424 l 2,8,9
 478 424 478 424 478 374 c 2,10,-1
 478 343 l 2,11,12
 478 293 478 293 448 293 c 2,13,-1
 223 293 l 1,14,-1
 223 131 l 1,15,-1
 476 131 l 2,16,17
 506 131 506 131 506 81 c 2,18,-1
 506 50 l 2,19,20
 506 0 506 0 476 0 c 2,21,-1
 109 0 l 2,22,23
 69 0 69 0 69 40 c 2,24,-1
 69 660 l 2,25,26
 69 700 69 700 109 700 c 2,27,-1
 475 700 l 2,0,1
EndSplineSet
Validated: 1
Position2: "'cpsp' Capital Spacing lookup 3 subtable" dx=5 dy=0 dh=10 dv=0
EndChar

StartChar: Eacute
Encoding: 201 201 43
Width: 546
Flags: MW
HStem: 0 131<95 476 223 476 223 476> 293 131<223 448 223 448> 569 131<223 475 223 223> 752 159<244 395>
VStem: 69 154<131 293 424 569>
LayerCount: 2
UndoRedoHistory
Layer: 1
Undoes
EndUndoes
Redoes
EndRedoes
EndUndoRedoHistory
Fore
SplineSet
375 911 m 0,0,1
 435 911 435 911 435 897 c 0,2,3
 435 891 435 891 429 883 c 128,-1,4
 423 875 423 875 398 849 c 0,5,6
 387 838 387 838 380 830.5 c 128,-1,7
 373 823 373 823 359 807.5 c 128,-1,8
 345 792 345 792 331 777 c 0,9,10
 308 752 308 752 256 752 c 0,11,12
 225 752 225 752 225 767 c 0,13,14
 225 770 225 770 227 775 c 128,-1,15
 229 780 229 780 234.5 790 c 128,-1,16
 240 800 240 800 247 810.5 c 128,-1,17
 254 821 254 821 266 842 c 128,-1,18
 278 863 278 863 290 884 c 0,19,20
 305 911 305 911 375 911 c 0,0,1
475 700 m 2,21,22
 505 700 505 700 505 650 c 2,23,-1
 505 619 l 2,24,25
 505 569 505 569 475 569 c 2,26,-1
 223 569 l 1,27,-1
 223 424 l 1,28,-1
 448 424 l 2,29,30
 478 424 478 424 478 374 c 2,31,-1
 478 343 l 2,32,33
 478 293 478 293 448 293 c 2,34,-1
 223 293 l 1,35,-1
 223 131 l 1,36,-1
 476 131 l 2,37,38
 506 131 506 131 506 81 c 2,39,-1
 506 50 l 2,40,41
 506 0 506 0 476 0 c 2,42,-1
 109 0 l 2,43,44
 69 0 69 0 69 40 c 2,45,-1
 69 660 l 2,46,47
 69 700 69 700 109 700 c 2,48,-1
 475 700 l 2,21,22
EndSplineSet
Validated: 1
Position2: "'cpsp' Capital Spacing lookup 3 subtable" dx=5 dy=0 dh=10 dv=0
EndChar

StartChar: Ebreve
Encoding: 276 276 44
Width: 546
Flags: MW
HStem: 0 131<95 476 223 476 223 476> 293 131<223 448 223 448> 569 131<223 475 223 223> 752 91<269.5 322 269.5 338.5>
VStem: 69 154<131 293 424 569>
LayerCount: 2
UndoRedoHistory
Layer: 1
Undoes
EndUndoes
Redoes
EndRedoes
EndUndoRedoHistory
Fore
SplineSet
407 892 m 0,0,1
 442 892 442 892 442 864 c 0,2,3
 442 820 442 820 400 786 c 128,-1,4
 358 752 358 752 295 752 c 128,-1,5
 232 752 232 752 190 786 c 128,-1,6
 148 820 148 820 148 864 c 0,7,8
 148 892 148 892 183 892 c 0,9,10
 200 892 200 892 216 874 c 0,11,12
 225 864 225 864 231 859 c 128,-1,13
 237 854 237 854 254 848.5 c 128,-1,14
 271 843 271 843 295 843 c 0,15,16
 320 843 320 843 338 849.5 c 128,-1,17
 356 856 356 856 361 860.5 c 128,-1,18
 366 865 366 865 376 876 c 0,19,20
 390 892 390 892 407 892 c 0,0,1
475 700 m 2,21,22
 505 700 505 700 505 650 c 2,23,-1
 505 619 l 2,24,25
 505 569 505 569 475 569 c 2,26,-1
 223 569 l 1,27,-1
 223 424 l 1,28,-1
 448 424 l 2,29,30
 478 424 478 424 478 374 c 2,31,-1
 478 343 l 2,32,33
 478 293 478 293 448 293 c 2,34,-1
 223 293 l 1,35,-1
 223 131 l 1,36,-1
 476 131 l 2,37,38
 506 131 506 131 506 81 c 2,39,-1
 506 50 l 2,40,41
 506 0 506 0 476 0 c 2,42,-1
 109 0 l 2,43,44
 69 0 69 0 69 40 c 2,45,-1
 69 660 l 2,46,47
 69 700 69 700 109 700 c 2,48,-1
 475 700 l 2,21,22
EndSplineSet
Validated: 1
Position2: "'cpsp' Capital Spacing lookup 3 subtable" dx=5 dy=0 dh=10 dv=0
EndChar

StartChar: Ecaron
Encoding: 282 282 45
Width: 546
Flags: MW
HStem: 0 131<95 476 223 476 223 476> 293 131<223 448 223 448> 569 131<223 475 223 223> 749 146<178 290 178 301>
VStem: 69 154<131 293 424 569>
LayerCount: 2
UndoRedoHistory
Layer: 1
Undoes
EndUndoes
Redoes
EndRedoes
EndUndoRedoHistory
Fore
SplineSet
413 895 m 2,0,1
 433 895 433 895 433 885 c 0,2,3
 433 879 433 879 427 870 c 2,4,-1
 362 768 l 2,5,6
 350 749 350 749 301 749 c 2,7,-1
 290 749 l 2,8,9
 241 749 241 749 229 768 c 2,10,-1
 164 870 l 2,11,12
 158 879 158 879 158 885 c 0,13,14
 158 895 158 895 178 895 c 2,15,-1
 200 895 l 2,16,17
 249 895 249 895 267 870 c 2,18,-1
 295 831 l 1,19,-1
 323 871 l 2,20,21
 339 895 339 895 391 895 c 2,22,-1
 413 895 l 2,0,1
475 700 m 2,23,24
 505 700 505 700 505 650 c 2,25,-1
 505 619 l 2,26,27
 505 569 505 569 475 569 c 2,28,-1
 223 569 l 1,29,-1
 223 424 l 1,30,-1
 448 424 l 2,31,32
 478 424 478 424 478 374 c 2,33,-1
 478 343 l 2,34,35
 478 293 478 293 448 293 c 2,36,-1
 223 293 l 1,37,-1
 223 131 l 1,38,-1
 476 131 l 2,39,40
 506 131 506 131 506 81 c 2,41,-1
 506 50 l 2,42,43
 506 0 506 0 476 0 c 2,44,-1
 109 0 l 2,45,46
 69 0 69 0 69 40 c 2,47,-1
 69 660 l 2,48,49
 69 700 69 700 109 700 c 2,50,-1
 475 700 l 2,23,24
EndSplineSet
Validated: 1
Position2: "'cpsp' Capital Spacing lookup 3 subtable" dx=5 dy=0 dh=10 dv=0
EndChar

StartChar: Ecircumflex
Encoding: 202 202 46
Width: 546
Flags: MW
HStem: 0 131<95 476 223 476 223 476> 293 131<223 448 223 448> 569 131<223 475 223 223> 749 146<171 301 178 301 290 391 290 413>
VStem: 69 154<131 293 424 569>
LayerCount: 2
UndoRedoHistory
Layer: 1
Undoes
EndUndoes
Redoes
EndRedoes
EndUndoRedoHistory
Fore
SplineSet
301 895 m 2,0,1
 350 895 350 895 362 876 c 2,2,-1
 427 774 l 2,3,4
 433 765 433 765 433 759 c 0,5,6
 433 749 433 749 413 749 c 2,7,-1
 391 749 l 2,8,9
 339 749 339 749 323 773 c 2,10,-1
 295 813 l 1,11,-1
 267 774 l 2,12,13
 249 749 249 749 200 749 c 2,14,-1
 178 749 l 2,15,16
 158 749 158 749 158 759 c 0,17,18
 158 765 158 765 164 774 c 2,19,-1
 229 876 l 2,20,21
 241 895 241 895 290 895 c 2,22,-1
 301 895 l 2,0,1
475 700 m 2,23,24
 505 700 505 700 505 650 c 2,25,-1
 505 619 l 2,26,27
 505 569 505 569 475 569 c 2,28,-1
 223 569 l 1,29,-1
 223 424 l 1,30,-1
 448 424 l 2,31,32
 478 424 478 424 478 374 c 2,33,-1
 478 343 l 2,34,35
 478 293 478 293 448 293 c 2,36,-1
 223 293 l 1,37,-1
 223 131 l 1,38,-1
 476 131 l 2,39,40
 506 131 506 131 506 81 c 2,41,-1
 506 50 l 2,42,43
 506 0 506 0 476 0 c 2,44,-1
 109 0 l 2,45,46
 69 0 69 0 69 40 c 2,47,-1
 69 660 l 2,48,49
 69 700 69 700 109 700 c 2,50,-1
 475 700 l 2,23,24
EndSplineSet
Validated: 1
Position2: "'cpsp' Capital Spacing lookup 3 subtable" dx=5 dy=0 dh=10 dv=0
EndChar

StartChar: Ecircumflexacute
Encoding: 7870 7870 47
Width: 546
Flags: MW
HStem: 0 131<95 476 223 476 223 476> 293 131<223 448 223 448> 569 131<223 475 223 223> 840 55
VStem: 69 154<131 293 424 569>
LayerCount: 2
UndoRedoHistory
Layer: 1
Undoes
EndUndoes
Redoes
EndRedoes
EndUndoRedoHistory
Fore
SplineSet
498 964 m 0,0,1
 538 964 538 964 538 940 c 0,2,3
 538 933 538 933 525.5 916 c 128,-1,4
 513 899 513 899 464 840 c 1,5,6
 449 825 449 825 409 825 c 0,7,8
 388 825 388 825 388 840 c 0,9,10
 388 843 388 843 423 937 c 1,11,12
 437 964 437 964 498 964 c 0,0,1
301 895 m 2,13,14
 341 895 341 895 352 876 c 2,15,-1
 412 774 l 2,16,17
 418 765 418 765 418 759 c 0,18,19
 418 749 418 749 398 749 c 2,20,-1
 376 749 l 2,21,22
 316 749 316 749 308 773 c 2,23,-1
 295 813 l 1,24,-1
 267 774 l 2,25,26
 249 749 249 749 200 749 c 2,27,-1
 178 749 l 2,28,29
 158 749 158 749 158 759 c 0,30,31
 158 765 158 765 164 774 c 2,32,-1
 229 876 l 2,33,34
 241 895 241 895 290 895 c 2,35,-1
 301 895 l 2,13,14
475 700 m 2,36,37
 505 700 505 700 505 650 c 2,38,-1
 505 619 l 2,39,40
 505 569 505 569 475 569 c 2,41,-1
 223 569 l 1,42,-1
 223 424 l 1,43,-1
 448 424 l 2,44,45
 478 424 478 424 478 374 c 2,46,-1
 478 343 l 2,47,48
 478 293 478 293 448 293 c 2,49,-1
 223 293 l 1,50,-1
 223 131 l 1,51,-1
 476 131 l 2,52,53
 506 131 506 131 506 81 c 2,54,-1
 506 50 l 2,55,56
 506 0 506 0 476 0 c 2,57,-1
 109 0 l 2,58,59
 69 0 69 0 69 40 c 2,60,-1
 69 660 l 2,61,62
 69 700 69 700 109 700 c 2,63,-1
 475 700 l 2,36,37
EndSplineSet
Validated: 1
Position2: "'cpsp' Capital Spacing lookup 3 subtable" dx=5 dy=0 dh=10 dv=0
EndChar

StartChar: Ecircumflexdotbelow
Encoding: 7878 7878 48
Width: 546
Flags: MW
HStem: -204 124<268 310> 0 131<95 476 223 476 223 476> 293 131<223 448 223 448> 569 131<223 475 223 223> 749 146<171 301 178 301 290 391 290 413>
VStem: 69 154<131 293 424 569> 229 120<-172 -112 -182.5 -101.5>
LayerCount: 2
UndoRedoHistory
Layer: 1
Undoes
EndUndoes
Redoes
EndRedoes
EndUndoRedoHistory
Fore
SplineSet
301 895 m 2,0,1
 350 895 350 895 362 876 c 2,2,-1
 427 774 l 2,3,4
 433 765 433 765 433 759 c 0,5,6
 433 749 433 749 413 749 c 2,7,-1
 391 749 l 2,8,9
 339 749 339 749 323 773 c 2,10,-1
 295 813 l 1,11,-1
 267 774 l 2,12,13
 249 749 249 749 200 749 c 2,14,-1
 178 749 l 2,15,16
 158 749 158 749 158 759 c 0,17,18
 158 765 158 765 164 774 c 2,19,-1
 229 876 l 2,20,21
 241 895 241 895 290 895 c 2,22,-1
 301 895 l 2,0,1
475 700 m 2,23,24
 505 700 505 700 505 650 c 2,25,-1
 505 619 l 2,26,27
 505 569 505 569 475 569 c 2,28,-1
 223 569 l 1,29,-1
 223 424 l 1,30,-1
 448 424 l 2,31,32
 478 424 478 424 478 374 c 2,33,-1
 478 343 l 2,34,35
 478 293 478 293 448 293 c 2,36,-1
 223 293 l 1,37,-1
 223 131 l 1,38,-1
 476 131 l 2,39,40
 506 131 506 131 506 81 c 2,41,-1
 506 50 l 2,42,43
 506 0 506 0 476 0 c 2,44,-1
 109 0 l 2,45,46
 69 0 69 0 69 40 c 2,47,-1
 69 660 l 2,48,49
 69 700 69 700 109 700 c 2,50,-1
 475 700 l 2,23,24
229 -112 m 2,51,52
 229 -80 229 -80 289 -80 c 128,-1,53
 349 -80 349 -80 349 -112 c 2,54,-1
 349 -172 l 2,55,56
 349 -204 349 -204 289 -204 c 128,-1,57
 229 -204 229 -204 229 -172 c 2,58,-1
 229 -112 l 2,51,52
EndSplineSet
Validated: 1
Position2: "'cpsp' Capital Spacing lookup 3 subtable" dx=5 dy=0 dh=10 dv=0
EndChar

StartChar: Ecircumflexgrave
Encoding: 7872 7872 49
Width: 546
Flags: MW
HStem: 0 131<95 476 223 476 223 476> 293 131<223 448 223 448> 569 131<223 475 223 223> 749 146<171 301 178 301 290 376 290 398> 824 139<347 461>
VStem: 69 154<131 293 424 569>
LayerCount: 2
UndoRedoHistory
Layer: 1
Undoes
EndUndoes
Redoes
EndRedoes
EndUndoRedoHistory
Fore
SplineSet
362 963 m 0,0,1
 435 963 435 963 447 936 c 1,2,3
 480 854 480 854 480 839 c 128,-1,4
 480 824 480 824 449 824 c 0,5,6
 408 824 408 824 387 849 c 1,7,8
 371 870 371 870 349 898 c 0,9,10
 325 929 325 929 320 936 c 128,-1,11
 315 943 315 943 315 949 c 0,12,13
 315 963 315 963 362 963 c 0,0,1
301 895 m 2,14,15
 341 895 341 895 352 876 c 2,16,-1
 412 774 l 2,17,18
 418 765 418 765 418 759 c 0,19,20
 418 749 418 749 398 749 c 2,21,-1
 376 749 l 2,22,23
 316 749 316 749 308 773 c 2,24,-1
 295 813 l 1,25,-1
 267 774 l 2,26,27
 249 749 249 749 200 749 c 2,28,-1
 178 749 l 2,29,30
 158 749 158 749 158 759 c 0,31,32
 158 765 158 765 164 774 c 2,33,-1
 229 876 l 2,34,35
 241 895 241 895 290 895 c 2,36,-1
 301 895 l 2,14,15
475 700 m 2,37,38
 505 700 505 700 505 650 c 2,39,-1
 505 619 l 2,40,41
 505 569 505 569 475 569 c 2,42,-1
 223 569 l 1,43,-1
 223 424 l 1,44,-1
 448 424 l 2,45,46
 478 424 478 424 478 374 c 2,47,-1
 478 343 l 2,48,49
 478 293 478 293 448 293 c 2,50,-1
 223 293 l 1,51,-1
 223 131 l 1,52,-1
 476 131 l 2,53,54
 506 131 506 131 506 81 c 2,55,-1
 506 50 l 2,56,57
 506 0 506 0 476 0 c 2,58,-1
 109 0 l 2,59,60
 69 0 69 0 69 40 c 2,61,-1
 69 660 l 2,62,63
 69 700 69 700 109 700 c 2,64,-1
 475 700 l 2,37,38
EndSplineSet
Validated: 1
Position2: "'cpsp' Capital Spacing lookup 3 subtable" dx=5 dy=0 dh=10 dv=0
EndChar

StartChar: Ecircumflexhookabove
Encoding: 7874 7874 50
Width: 546
Flags: MW
HStem: 0 131<95 476 223 476 223 476> 293 131<223 448 223 448> 569 131<223 475 223 223> 749 146<171 301 178 301 361.5 369.5 290 376 290 398> 895 70<361 444>
VStem: 69 154<131 293 424 569> 439 69<891 900.5>
LayerCount: 2
UndoRedoHistory
Layer: 1
Undoes
EndUndoes
Redoes
EndRedoes
EndUndoRedoHistory
Fore
SplineSet
439 895 m 0,0,1
 439 912 439 912 418 912 c 0,2,3
 398 912 398 912 382 903.5 c 128,-1,4
 366 895 366 895 365 895 c 0,5,6
 359 895 359 895 347 910.5 c 128,-1,7
 335 926 335 926 335 937 c 0,8,9
 335 947 335 947 361.5 956 c 128,-1,10
 388 965 388 965 415 965 c 0,11,12
 458 965 458 965 483 947 c 128,-1,13
 508 929 508 929 508 899 c 0,14,15
 508 873 508 873 482 852 c 0,16,17
 454 830 454 830 433 830 c 0,18,19
 413 830 413 830 401 836 c 128,-1,20
 389 842 389 842 389 851 c 0,21,22
 389 858 389 858 408 867 c 0,23,24
 418 872 418 872 421.5 873.5 c 128,-1,25
 425 875 425 875 430.5 879 c 128,-1,26
 436 883 436 883 437.5 886.5 c 128,-1,27
 439 890 439 890 439 895 c 0,0,1
301 895 m 2,28,29
 341 895 341 895 352 876 c 2,30,-1
 412 774 l 2,31,32
 418 765 418 765 418 759 c 0,33,34
 418 749 418 749 398 749 c 2,35,-1
 376 749 l 2,36,37
 316 749 316 749 308 773 c 2,38,-1
 295 813 l 1,39,-1
 267 774 l 2,40,41
 249 749 249 749 200 749 c 2,42,-1
 178 749 l 2,43,44
 158 749 158 749 158 759 c 0,45,46
 158 765 158 765 164 774 c 2,47,-1
 229 876 l 2,48,49
 241 895 241 895 290 895 c 2,50,-1
 301 895 l 2,28,29
475 700 m 2,51,52
 505 700 505 700 505 650 c 2,53,-1
 505 619 l 2,54,55
 505 569 505 569 475 569 c 2,56,-1
 223 569 l 1,57,-1
 223 424 l 1,58,-1
 448 424 l 2,59,60
 478 424 478 424 478 374 c 2,61,-1
 478 343 l 2,62,63
 478 293 478 293 448 293 c 2,64,-1
 223 293 l 1,65,-1
 223 131 l 1,66,-1
 476 131 l 2,67,68
 506 131 506 131 506 81 c 2,69,-1
 506 50 l 2,70,71
 506 0 506 0 476 0 c 2,72,-1
 109 0 l 2,73,74
 69 0 69 0 69 40 c 2,75,-1
 69 660 l 2,76,77
 69 700 69 700 109 700 c 2,78,-1
 475 700 l 2,51,52
EndSplineSet
Validated: 1
Position2: "'cpsp' Capital Spacing lookup 3 subtable" dx=5 dy=0 dh=10 dv=0
EndChar

StartChar: Ecircumflextilde
Encoding: 7876 7876 51
Width: 546
Flags: MW
HStem: 0 131<95 476 223 476 223 476> 293 131<223 448 223 448> 569 131<223 475 223 223> 749 122<171 301 178 301 290 391 290 413> 902 86<350.5 363.5> 929 86<228.5 243>
VStem: 69 154<131 293 424 569>
LayerCount: 2
UndoRedoHistory
Layer: 1
Undoes
EndUndoes
Redoes
EndRedoes
EndUndoRedoHistory
Fore
SplineSet
408 1003 m 0,0,1
 416 1009 416 1009 426 1009 c 0,2,3
 439 1009 439 1009 448 997 c 0,4,5
 456 986 456 986 456 977 c 0,6,7
 456 962 456 962 441 943 c 1,8,9
 403 902 403 902 345 902 c 0,10,11
 313 902 313 902 279 918 c 0,12,13
 255 929 255 929 233 929 c 0,14,15
 213 929 213 929 187 915 c 0,16,17
 182 912 182 912 176 912 c 0,18,19
 161 912 161 912 149 929 c 0,20,21
 143 938 143 938 143 948 c 0,22,23
 143 961 143 961 154 974 c 1,24,25
 200 1015 200 1015 247 1015 c 0,26,27
 279 1015 279 1015 318 999 c 1,28,29
 342 988 342 988 359 988 c 0,30,31
 386 988 386 988 408 1003 c 0,0,1
301 871 m 2,32,33
 344 871 344 871 362 852 c 1,34,-1
 427 774 l 1,35,36
 433 765 433 765 433 759 c 0,37,38
 433 749 433 749 413 749 c 2,39,-1
 391 749 l 2,40,41
 362 749 362 749 323 773 c 1,42,-1
 295 800 l 1,43,-1
 267 774 l 2,44,45
 265 773 265 773 256.5 767.5 c 128,-1,46
 248 762 248 762 245.5 761 c 128,-1,47
 243 760 243 760 236 756.5 c 128,-1,48
 229 753 229 753 224.5 752 c 128,-1,49
 220 751 220 751 213.5 750 c 128,-1,50
 207 749 207 749 200 749 c 2,51,-1
 178 749 l 2,52,53
 158 749 158 749 158 759 c 0,54,55
 158 765 158 765 164 774 c 1,56,-1
 229 852 l 1,57,58
 247 871 247 871 290 871 c 2,59,-1
 301 871 l 2,32,33
475 700 m 2,60,61
 505 700 505 700 505 650 c 2,62,-1
 505 619 l 2,63,64
 505 569 505 569 475 569 c 2,65,-1
 223 569 l 1,66,-1
 223 424 l 1,67,-1
 448 424 l 2,68,69
 478 424 478 424 478 374 c 2,70,-1
 478 343 l 2,71,72
 478 293 478 293 448 293 c 2,73,-1
 223 293 l 1,74,-1
 223 131 l 1,75,-1
 476 131 l 2,76,77
 506 131 506 131 506 81 c 2,78,-1
 506 50 l 2,79,80
 506 0 506 0 476 0 c 2,81,-1
 109 0 l 2,82,83
 69 0 69 0 69 40 c 2,84,-1
 69 660 l 2,85,86
 69 700 69 700 109 700 c 2,87,-1
 475 700 l 2,60,61
EndSplineSet
Validated: 1
Position2: "'cpsp' Capital Spacing lookup 3 subtable" dx=5 dy=0 dh=10 dv=0
EndChar

StartChar: Edieresis
Encoding: 203 203 52
Width: 546
Flags: MW
HStem: 0 131<95 476 223 476 223 476> 293 131<223 448 223 448> 569 131<223 475 223 223> 755 124<184 226 364 406>
VStem: 69 154<131 293 424 569> 145 120<787 847 776.5 857.5> 325 120<787 847 776.5 857.5>
LayerCount: 2
UndoRedoHistory
Layer: 1
Undoes
EndUndoes
Redoes
EndRedoes
EndUndoRedoHistory
Fore
SplineSet
145 847 m 2,0,1
 145 879 145 879 205 879 c 128,-1,2
 265 879 265 879 265 847 c 2,3,-1
 265 787 l 2,4,5
 265 755 265 755 205 755 c 128,-1,6
 145 755 145 755 145 787 c 2,7,-1
 145 847 l 2,0,1
325 847 m 2,8,9
 325 879 325 879 385 879 c 128,-1,10
 445 879 445 879 445 847 c 2,11,-1
 445 787 l 2,12,13
 445 755 445 755 385 755 c 128,-1,14
 325 755 325 755 325 787 c 2,15,-1
 325 847 l 2,8,9
475 700 m 2,16,17
 505 700 505 700 505 650 c 2,18,-1
 505 619 l 2,19,20
 505 569 505 569 475 569 c 2,21,-1
 223 569 l 1,22,-1
 223 424 l 1,23,-1
 448 424 l 2,24,25
 478 424 478 424 478 374 c 2,26,-1
 478 343 l 2,27,28
 478 293 478 293 448 293 c 2,29,-1
 223 293 l 1,30,-1
 223 131 l 1,31,-1
 476 131 l 2,32,33
 506 131 506 131 506 81 c 2,34,-1
 506 50 l 2,35,36
 506 0 506 0 476 0 c 2,37,-1
 109 0 l 2,38,39
 69 0 69 0 69 40 c 2,40,-1
 69 660 l 2,41,42
 69 700 69 700 109 700 c 2,43,-1
 475 700 l 2,16,17
EndSplineSet
Validated: 1
Position2: "'cpsp' Capital Spacing lookup 3 subtable" dx=5 dy=0 dh=10 dv=0
EndChar

StartChar: Edotaccent
Encoding: 278 278 53
Width: 546
Flags: MW
HStem: 0 131<95 476 223 476 223 476> 293 131<223 448 223 448> 569 131<223 475 223 223> 755 124<274 316>
VStem: 69 154<131 293 424 569> 235 120<787 847 776.5 857.5>
LayerCount: 2
UndoRedoHistory
Layer: 1
Undoes
EndUndoes
Redoes
EndRedoes
EndUndoRedoHistory
Fore
SplineSet
235 847 m 2,0,1
 235 879 235 879 295 879 c 128,-1,2
 355 879 355 879 355 847 c 2,3,-1
 355 787 l 2,4,5
 355 755 355 755 295 755 c 128,-1,6
 235 755 235 755 235 787 c 2,7,-1
 235 847 l 2,0,1
475 700 m 2,8,9
 505 700 505 700 505 650 c 2,10,-1
 505 619 l 2,11,12
 505 569 505 569 475 569 c 2,13,-1
 223 569 l 1,14,-1
 223 424 l 1,15,-1
 448 424 l 2,16,17
 478 424 478 424 478 374 c 2,18,-1
 478 343 l 2,19,20
 478 293 478 293 448 293 c 2,21,-1
 223 293 l 1,22,-1
 223 131 l 1,23,-1
 476 131 l 2,24,25
 506 131 506 131 506 81 c 2,26,-1
 506 50 l 2,27,28
 506 0 506 0 476 0 c 2,29,-1
 109 0 l 2,30,31
 69 0 69 0 69 40 c 2,32,-1
 69 660 l 2,33,34
 69 700 69 700 109 700 c 2,35,-1
 475 700 l 2,8,9
EndSplineSet
Validated: 1
Position2: "'cpsp' Capital Spacing lookup 3 subtable" dx=5 dy=0 dh=10 dv=0
EndChar

StartChar: Edotbelow
Encoding: 7864 7864 54
Width: 546
Flags: MW
HStem: -204 124<268 310> 0 131<95 476 223 476 223 476> 293 131<223 448 223 448> 569 131<223 475 223 223>
VStem: 69 154<131 293 424 569> 229 120<-172 -112 -182.5 -101.5>
LayerCount: 2
UndoRedoHistory
Layer: 1
Undoes
EndUndoes
Redoes
EndRedoes
EndUndoRedoHistory
Fore
SplineSet
475 700 m 2,0,1
 505 700 505 700 505 650 c 2,2,-1
 505 619 l 2,3,4
 505 569 505 569 475 569 c 2,5,-1
 223 569 l 1,6,-1
 223 424 l 1,7,-1
 448 424 l 2,8,9
 478 424 478 424 478 374 c 2,10,-1
 478 343 l 2,11,12
 478 293 478 293 448 293 c 2,13,-1
 223 293 l 1,14,-1
 223 131 l 1,15,-1
 476 131 l 2,16,17
 506 131 506 131 506 81 c 2,18,-1
 506 50 l 2,19,20
 506 0 506 0 476 0 c 2,21,-1
 109 0 l 2,22,23
 69 0 69 0 69 40 c 2,24,-1
 69 660 l 2,25,26
 69 700 69 700 109 700 c 2,27,-1
 475 700 l 2,0,1
229 -112 m 2,28,29
 229 -80 229 -80 289 -80 c 128,-1,30
 349 -80 349 -80 349 -112 c 2,31,-1
 349 -172 l 2,32,33
 349 -204 349 -204 289 -204 c 128,-1,34
 229 -204 229 -204 229 -172 c 2,35,-1
 229 -112 l 2,28,29
EndSplineSet
Validated: 1
Position2: "'cpsp' Capital Spacing lookup 3 subtable" dx=5 dy=0 dh=10 dv=0
EndChar

StartChar: Egrave
Encoding: 200 200 55
Width: 546
Flags: MW
HStem: 0 131<95 476 223 476 223 476> 293 131<223 448 223 448> 569 131<223 475 223 223> 752 159<201 352>
VStem: 69 154<131 293 424 569>
LayerCount: 2
UndoRedoHistory
Layer: 1
Undoes
EndUndoes
Redoes
EndRedoes
EndUndoRedoHistory
Fore
SplineSet
221 911 m 0,0,1
 291 911 291 911 306 884 c 0,2,3
 318 863 318 863 330 842 c 128,-1,4
 342 821 342 821 349 810.5 c 128,-1,5
 356 800 356 800 361.5 790 c 128,-1,6
 367 780 367 780 369 775 c 128,-1,7
 371 770 371 770 371 767 c 0,8,9
 371 752 371 752 340 752 c 0,10,11
 288 752 288 752 265 777 c 0,12,13
 235 810 235 810 198 849 c 0,14,15
 172 877 172 877 166.5 884 c 128,-1,16
 161 891 161 891 161 897 c 0,17,18
 161 911 161 911 221 911 c 0,0,1
475 700 m 2,19,20
 505 700 505 700 505 650 c 2,21,-1
 505 619 l 2,22,23
 505 569 505 569 475 569 c 2,24,-1
 223 569 l 1,25,-1
 223 424 l 1,26,-1
 448 424 l 2,27,28
 478 424 478 424 478 374 c 2,29,-1
 478 343 l 2,30,31
 478 293 478 293 448 293 c 2,32,-1
 223 293 l 1,33,-1
 223 131 l 1,34,-1
 476 131 l 2,35,36
 506 131 506 131 506 81 c 2,37,-1
 506 50 l 2,38,39
 506 0 506 0 476 0 c 2,40,-1
 109 0 l 2,41,42
 69 0 69 0 69 40 c 2,43,-1
 69 660 l 2,44,45
 69 700 69 700 109 700 c 2,46,-1
 475 700 l 2,19,20
EndSplineSet
Validated: 1
Position2: "'cpsp' Capital Spacing lookup 3 subtable" dx=5 dy=0 dh=10 dv=0
EndChar

StartChar: Ehookabove
Encoding: 7866 7866 56
Width: 546
Flags: MW
HStem: 0 131<95 476 223 476 223 476> 293 131<223 448 223 448> 569 131<223 475 223 223> 867 61<290.5 308>
VStem: 69 154<131 293 424 569> 332 87<830 852>
LayerCount: 2
UndoRedoHistory
Layer: 1
Undoes
EndUndoes
Redoes
EndRedoes
EndUndoRedoHistory
Fore
SplineSet
332 845 m 0,0,1
 332 855 332 855 322.5 861 c 128,-1,2
 313 867 313 867 300 867 c 128,-1,3
 287 867 287 867 274 861 c 128,-1,4
 261 855 261 855 258 855 c 0,5,6
 252 855 252 855 240 870.5 c 128,-1,7
 228 886 228 886 228 897 c 0,8,9
 228 907 228 907 255 917.5 c 128,-1,10
 282 928 282 928 308 928 c 0,11,12
 361 928 361 928 390 907 c 128,-1,13
 419 886 419 886 419 849 c 0,14,15
 419 814 419 814 378.5 780.5 c 128,-1,16
 338 747 338 747 319 747 c 0,17,18
 302 747 302 747 283.5 755.5 c 128,-1,19
 265 764 265 764 265 770 c 0,20,21
 265 777 265 777 298.5 802.5 c 128,-1,22
 332 828 332 828 332 845 c 0,0,1
475 700 m 2,23,24
 505 700 505 700 505 650 c 2,25,-1
 505 619 l 2,26,27
 505 569 505 569 475 569 c 2,28,-1
 223 569 l 1,29,-1
 223 424 l 1,30,-1
 448 424 l 2,31,32
 478 424 478 424 478 374 c 2,33,-1
 478 343 l 2,34,35
 478 293 478 293 448 293 c 2,36,-1
 223 293 l 1,37,-1
 223 131 l 1,38,-1
 476 131 l 2,39,40
 506 131 506 131 506 81 c 2,41,-1
 506 50 l 2,42,43
 506 0 506 0 476 0 c 2,44,-1
 109 0 l 2,45,46
 69 0 69 0 69 40 c 2,47,-1
 69 660 l 2,48,49
 69 700 69 700 109 700 c 2,50,-1
 475 700 l 2,23,24
EndSplineSet
Validated: 1
Position2: "'cpsp' Capital Spacing lookup 3 subtable" dx=5 dy=0 dh=10 dv=0
EndChar

StartChar: Emacron
Encoding: 274 274 57
Width: 546
Flags: MW
HStem: 0 131<95 476 223 476 223 476> 293 131<223 448 223 448> 569 131<223 475 223 223> 774 95<177.5 403 188 403>
VStem: 69 154<131 293 424 569>
LayerCount: 2
UndoRedoHistory
Layer: 1
Undoes
EndUndoes
Redoes
EndRedoes
EndUndoRedoHistory
Fore
SplineSet
403 869 m 2,0,1
 433 869 433 869 433 829 c 2,2,-1
 433 814 l 2,3,4
 433 774 433 774 403 774 c 2,5,-1
 188 774 l 2,6,7
 158 774 158 774 158 814 c 2,8,-1
 158 829 l 2,9,10
 158 869 158 869 188 869 c 2,11,-1
 403 869 l 2,0,1
475 700 m 2,12,13
 505 700 505 700 505 650 c 2,14,-1
 505 619 l 2,15,16
 505 569 505 569 475 569 c 2,17,-1
 223 569 l 1,18,-1
 223 424 l 1,19,-1
 448 424 l 2,20,21
 478 424 478 424 478 374 c 2,22,-1
 478 343 l 2,23,24
 478 293 478 293 448 293 c 2,25,-1
 223 293 l 1,26,-1
 223 131 l 1,27,-1
 476 131 l 2,28,29
 506 131 506 131 506 81 c 2,30,-1
 506 50 l 2,31,32
 506 0 506 0 476 0 c 2,33,-1
 109 0 l 2,34,35
 69 0 69 0 69 40 c 2,36,-1
 69 660 l 2,37,38
 69 700 69 700 109 700 c 2,39,-1
 475 700 l 2,12,13
EndSplineSet
Validated: 1
Position2: "'cpsp' Capital Spacing lookup 3 subtable" dx=5 dy=0 dh=10 dv=0
EndChar

StartChar: Eogonek
Encoding: 280 280 58
Width: 546
Flags: MW
HStem: -183 70<512.5 532> 0 131<95 476 223 420 473 476 473 473> 293 131<223 448 223 448> 569 131<223 475 223 223>
VStem: 69 154<131 293 424 569> 395 67<-86 -72.5>
LayerCount: 2
UndoRedoHistory
Layer: 1
Undoes
EndUndoes
Redoes
EndRedoes
EndUndoRedoHistory
Fore
SplineSet
473 0 m 1,0,-1
 473 -5 l 2,1,2
 473 -11 473 -11 467.5 -28.5 c 128,-1,3
 462 -46 462 -46 462 -62 c 0,4,5
 462 -113 462 -113 524 -113 c 0,6,7
 537 -113 537 -113 551 -109 c 128,-1,8
 565 -105 565 -105 573 -105 c 0,9,10
 595 -105 595 -105 595 -133 c 0,11,12
 595 -183 595 -183 513 -183 c 0,13,14
 476 -183 476 -183 450 -171.5 c 128,-1,15
 424 -160 424 -160 413.5 -142 c 128,-1,16
 403 -124 403 -124 399 -109.5 c 128,-1,17
 395 -95 395 -95 395 -81 c 0,18,19
 395 -26 395 -26 420 0 c 1,20,-1
 109 0 l 2,21,22
 69 0 69 0 69 40 c 2,23,-1
 69 660 l 2,24,25
 69 700 69 700 109 700 c 2,26,-1
 475 700 l 2,27,28
 505 700 505 700 505 650 c 2,29,-1
 505 619 l 2,30,31
 505 569 505 569 475 569 c 2,32,-1
 223 569 l 1,33,-1
 223 424 l 1,34,-1
 448 424 l 2,35,36
 478 424 478 424 478 374 c 2,37,-1
 478 343 l 2,38,39
 478 293 478 293 448 293 c 2,40,-1
 223 293 l 1,41,-1
 223 131 l 1,42,-1
 476 131 l 2,43,44
 506 131 506 131 506 81 c 2,45,-1
 506 50 l 2,46,47
 506 0 506 0 476 0 c 2,48,-1
 473 0 l 1,0,-1
EndSplineSet
Validated: 1
Position2: "'cpsp' Capital Spacing lookup 3 subtable" dx=5 dy=0 dh=10 dv=0
EndChar

StartChar: Etilde
Encoding: 7868 7868 59
Width: 546
Flags: MW
HStem: 0 131<95 476 223 476 223 476> 293 131<223 448 223 448> 569 131<223 475 223 223> 757 86<350.5 364.5> 784 86<216.5 232>
VStem: 69 154<131 293 424 569>
LayerCount: 2
UndoRedoHistory
Layer: 1
Undoes
EndUndoes
Redoes
EndRedoes
EndUndoRedoHistory
Fore
SplineSet
414 858 m 0,0,1
 423 864 423 864 433 864 c 0,2,3
 447 864 447 864 458 852 c 0,4,5
 467 842 467 842 467 832 c 0,6,7
 467 818 467 818 450 798 c 1,8,9
 409 757 409 757 344 757 c 0,10,11
 310 757 310 757 272 773 c 0,12,13
 246 784 246 784 221 784 c 0,14,15
 199 784 199 784 171 770 c 0,16,17
 165 767 165 767 159 767 c 0,18,19
 143 767 143 767 129 784 c 0,20,21
 122 792 122 792 122 803 c 0,22,23
 122 817 122 817 134 829 c 1,24,25
 186 870 186 870 237 870 c 0,26,27
 272 870 272 870 315 854 c 1,28,29
 341 843 341 843 360 843 c 0,30,31
 388 843 388 843 414 858 c 0,0,1
475 700 m 2,32,33
 505 700 505 700 505 650 c 2,34,-1
 505 619 l 2,35,36
 505 569 505 569 475 569 c 2,37,-1
 223 569 l 1,38,-1
 223 424 l 1,39,-1
 448 424 l 2,40,41
 478 424 478 424 478 374 c 2,42,-1
 478 343 l 2,43,44
 478 293 478 293 448 293 c 2,45,-1
 223 293 l 1,46,-1
 223 131 l 1,47,-1
 476 131 l 2,48,49
 506 131 506 131 506 81 c 2,50,-1
 506 50 l 2,51,52
 506 0 506 0 476 0 c 2,53,-1
 109 0 l 2,54,55
 69 0 69 0 69 40 c 2,56,-1
 69 660 l 2,57,58
 69 700 69 700 109 700 c 2,59,-1
 475 700 l 2,32,33
EndSplineSet
Validated: 1
Position2: "'cpsp' Capital Spacing lookup 3 subtable" dx=5 dy=0 dh=10 dv=0
EndChar

StartChar: F
Encoding: 70 70 60
Width: 503
Flags: MW
HStem: -2 21G<108 129 129 163> 292 131<223 436 223 436> 569 131<223 443 223 223>
VStem: 69 154<30 292 423 569>
LayerCount: 2
UndoRedoHistory
Layer: 1
Undoes
EndUndoes
Redoes
EndRedoes
EndUndoRedoHistory
Fore
SplineSet
443 700 m 2,0,1
 473 700 473 700 473 650 c 2,2,-1
 473 619 l 2,3,4
 473 569 473 569 443 569 c 2,5,-1
 223 569 l 1,6,-1
 223 423 l 1,7,-1
 436 423 l 2,8,9
 466 423 466 423 466 373 c 2,10,-1
 466 342 l 2,11,12
 466 292 466 292 436 292 c 2,13,-1
 223 292 l 1,14,-1
 223 30 l 2,15,16
 223 -2 223 -2 163 -2 c 2,17,-1
 129 -2 l 2,18,19
 69 -2 69 -2 69 30 c 2,20,-1
 69 660 l 2,21,22
 69 700 69 700 109 700 c 2,23,-1
 443 700 l 2,0,1
EndSplineSet
Validated: 1
Position2: "'cpsp' Capital Spacing lookup 3 subtable" dx=5 dy=0 dh=10 dv=0
EndChar

StartChar: G
Encoding: 71 71 61
Width: 672
Flags: MW
HStem: -8 131<316.5 388 316.5 409.5> 257 132<353.5 567 364 452> 576 132<317 423 268 423.5>
VStem: 45 158<276 426 276 471> 452 155<130 257 257 257>
LayerCount: 2
UndoRedoHistory
Layer: 1
Undoes
EndUndoes
Redoes
EndRedoes
EndUndoRedoHistory
Fore
SplineSet
607 71 m 2,0,1
 607 47 607 47 581.5 30 c 128,-1,2
 556 13 556 13 516 5.5 c 128,-1,3
 476 -2 476 -2 441.5 -5 c 128,-1,4
 407 -8 407 -8 374 -8 c 0,5,6
 206 -8 206 -8 125.5 79.5 c 128,-1,7
 45 167 45 167 45 352 c 0,8,9
 45 708 45 708 379 708 c 0,10,11
 452 708 452 708 522.5 687.5 c 128,-1,12
 593 667 593 667 593 638 c 0,13,14
 593 616 593 616 569.5 580 c 128,-1,15
 546 544 546 544 528 544 c 0,16,17
 525 544 525 544 506.5 552 c 128,-1,18
 488 560 488 560 453 568 c 128,-1,19
 418 576 418 576 376 576 c 0,20,21
 203 576 203 576 203 351 c 0,22,23
 203 123 203 123 374 123 c 0,24,25
 414 123 414 123 452 130 c 1,26,-1
 452 257 l 1,27,-1
 364 257 l 2,28,29
 334 257 334 257 334 307 c 2,30,-1
 334 339 l 2,31,32
 334 389 334 389 364 389 c 2,33,-1
 567 389 l 2,34,35
 607 389 607 389 607 349 c 2,36,-1
 607 71 l 2,0,1
EndSplineSet
Validated: 1
Position2: "'cpsp' Capital Spacing lookup 3 subtable" dx=5 dy=0 dh=10 dv=0
EndChar

StartChar: Gbreve
Encoding: 286 286 62
Width: 672
Flags: MW
HStem: -8 131<316.5 388 316.5 409.5> 257 132<353.5 567 364 452> 576 132<317 423 268 423.5> 752 91<324.5 377 324.5 393.5>
VStem: 45 158<276 426 276 471> 452 155<130 257 257 257>
LayerCount: 2
UndoRedoHistory
Layer: 1
Undoes
EndUndoes
Redoes
EndRedoes
EndUndoRedoHistory
Fore
SplineSet
462 892 m 0,0,1
 497 892 497 892 497 864 c 0,2,3
 497 820 497 820 455 786 c 128,-1,4
 413 752 413 752 350 752 c 128,-1,5
 287 752 287 752 245 786 c 128,-1,6
 203 820 203 820 203 864 c 0,7,8
 203 892 203 892 238 892 c 0,9,10
 255 892 255 892 271 874 c 0,11,12
 280 864 280 864 286 859 c 128,-1,13
 292 854 292 854 309 848.5 c 128,-1,14
 326 843 326 843 350 843 c 0,15,16
 375 843 375 843 393 849.5 c 128,-1,17
 411 856 411 856 416 860.5 c 128,-1,18
 421 865 421 865 431 876 c 0,19,20
 445 892 445 892 462 892 c 0,0,1
607 71 m 2,21,22
 607 47 607 47 581.5 30 c 128,-1,23
 556 13 556 13 516 5.5 c 128,-1,24
 476 -2 476 -2 441.5 -5 c 128,-1,25
 407 -8 407 -8 374 -8 c 0,26,27
 206 -8 206 -8 125.5 79.5 c 128,-1,28
 45 167 45 167 45 352 c 0,29,30
 45 708 45 708 379 708 c 0,31,32
 452 708 452 708 522.5 687.5 c 128,-1,33
 593 667 593 667 593 638 c 0,34,35
 593 616 593 616 569.5 580 c 128,-1,36
 546 544 546 544 528 544 c 0,37,38
 525 544 525 544 506.5 552 c 128,-1,39
 488 560 488 560 453 568 c 128,-1,40
 418 576 418 576 376 576 c 0,41,42
 203 576 203 576 203 351 c 0,43,44
 203 123 203 123 374 123 c 0,45,46
 414 123 414 123 452 130 c 1,47,-1
 452 257 l 1,48,-1
 364 257 l 2,49,50
 334 257 334 257 334 307 c 2,51,-1
 334 339 l 2,52,53
 334 389 334 389 364 389 c 2,54,-1
 567 389 l 2,55,56
 607 389 607 389 607 349 c 2,57,-1
 607 71 l 2,21,22
EndSplineSet
Validated: 1
Position2: "'cpsp' Capital Spacing lookup 3 subtable" dx=5 dy=0 dh=10 dv=0
EndChar

StartChar: Gcircumflex
Encoding: 284 284 63
Width: 672
Flags: MW
HStem: -8 131<316.5 388 316.5 409.5> 257 132<353.5 567 364 452> 576 132<317 423 268 423.5> 749 146<226 356 233 356 345 446 345 468>
VStem: 45 158<276 426 276 471> 452 155<130 257 257 257>
LayerCount: 2
UndoRedoHistory
Layer: 1
Undoes
EndUndoes
Redoes
EndRedoes
EndUndoRedoHistory
Fore
SplineSet
356 895 m 2,0,1
 405 895 405 895 417 876 c 2,2,-1
 482 774 l 2,3,4
 488 765 488 765 488 759 c 0,5,6
 488 749 488 749 468 749 c 2,7,-1
 446 749 l 2,8,9
 394 749 394 749 378 773 c 2,10,-1
 350 813 l 1,11,-1
 322 774 l 2,12,13
 304 749 304 749 255 749 c 2,14,-1
 233 749 l 2,15,16
 213 749 213 749 213 759 c 0,17,18
 213 765 213 765 219 774 c 2,19,-1
 284 876 l 2,20,21
 296 895 296 895 345 895 c 2,22,-1
 356 895 l 2,0,1
607 71 m 2,23,24
 607 47 607 47 581.5 30 c 128,-1,25
 556 13 556 13 516 5.5 c 128,-1,26
 476 -2 476 -2 441.5 -5 c 128,-1,27
 407 -8 407 -8 374 -8 c 0,28,29
 206 -8 206 -8 125.5 79.5 c 128,-1,30
 45 167 45 167 45 352 c 0,31,32
 45 708 45 708 379 708 c 0,33,34
 452 708 452 708 522.5 687.5 c 128,-1,35
 593 667 593 667 593 638 c 0,36,37
 593 616 593 616 569.5 580 c 128,-1,38
 546 544 546 544 528 544 c 0,39,40
 525 544 525 544 506.5 552 c 128,-1,41
 488 560 488 560 453 568 c 128,-1,42
 418 576 418 576 376 576 c 0,43,44
 203 576 203 576 203 351 c 0,45,46
 203 123 203 123 374 123 c 0,47,48
 414 123 414 123 452 130 c 1,49,-1
 452 257 l 1,50,-1
 364 257 l 2,51,52
 334 257 334 257 334 307 c 2,53,-1
 334 339 l 2,54,55
 334 389 334 389 364 389 c 2,56,-1
 567 389 l 2,57,58
 607 389 607 389 607 349 c 2,59,-1
 607 71 l 2,23,24
EndSplineSet
Validated: 1
Position2: "'cpsp' Capital Spacing lookup 3 subtable" dx=5 dy=0 dh=10 dv=0
EndChar

StartChar: Gcommaaccent
Encoding: 290 290 64
Width: 672
Flags: MW
HStem: -240 21G<300 326.5> -8 131<316.5 388 316.5 409.5> 257 132<353.5 567 364 452> 576 132<317 423 268 423.5>
VStem: 45 158<276 426 276 471> 288 129<-128.5 -82.5 -128.5 -81.5> 452 155<130 257 257 257>
LayerCount: 2
UndoRedoHistory
Layer: 1
Undoes
EndUndoes
Redoes
EndRedoes
EndUndoRedoHistory
Fore
SplineSet
607 71 m 2,0,1
 607 47 607 47 581.5 30 c 128,-1,2
 556 13 556 13 516 5.5 c 128,-1,3
 476 -2 476 -2 441.5 -5 c 128,-1,4
 407 -8 407 -8 374 -8 c 0,5,6
 206 -8 206 -8 125.5 79.5 c 128,-1,7
 45 167 45 167 45 352 c 0,8,9
 45 708 45 708 379 708 c 0,10,11
 452 708 452 708 522.5 687.5 c 128,-1,12
 593 667 593 667 593 638 c 0,13,14
 593 616 593 616 569.5 580 c 128,-1,15
 546 544 546 544 528 544 c 0,16,17
 525 544 525 544 506.5 552 c 128,-1,18
 488 560 488 560 453 568 c 128,-1,19
 418 576 418 576 376 576 c 0,20,21
 203 576 203 576 203 351 c 0,22,23
 203 123 203 123 374 123 c 0,24,25
 414 123 414 123 452 130 c 1,26,-1
 452 257 l 1,27,-1
 364 257 l 2,28,29
 334 257 334 257 334 307 c 2,30,-1
 334 339 l 2,31,32
 334 389 334 389 364 389 c 2,33,-1
 567 389 l 2,34,35
 607 389 607 389 607 349 c 2,36,-1
 607 71 l 2,0,1
367 -51 m 2,37,38
 417 -51 417 -51 417 -95 c 0,39,40
 417 -142 417 -142 377.5 -191 c 128,-1,41
 338 -240 338 -240 309 -240 c 0,42,43
 293 -240 293 -240 278.5 -234.5 c 128,-1,44
 264 -229 264 -229 264 -218 c 0,45,46
 264 -217 264 -217 276 -180 c 128,-1,47
 288 -143 288 -143 288 -95 c 0,48,49
 288 -51 288 -51 348 -51 c 2,50,-1
 367 -51 l 2,37,38
EndSplineSet
Validated: 1
Position2: "'cpsp' Capital Spacing lookup 3 subtable" dx=5 dy=0 dh=10 dv=0
EndChar

StartChar: Gdotaccent
Encoding: 288 288 65
Width: 672
Flags: MW
HStem: -8 131<316.5 388 316.5 409.5> 257 132<353.5 567 364 452> 576 132<317 423 268 423.5> 755 124<329 371>
VStem: 45 158<276 426 276 471> 290 120<787 847 776.5 857.5> 452 155<130 257 257 257>
LayerCount: 2
UndoRedoHistory
Layer: 1
Undoes
EndUndoes
Redoes
EndRedoes
EndUndoRedoHistory
Fore
SplineSet
290 847 m 2,0,1
 290 879 290 879 350 879 c 128,-1,2
 410 879 410 879 410 847 c 2,3,-1
 410 787 l 2,4,5
 410 755 410 755 350 755 c 128,-1,6
 290 755 290 755 290 787 c 2,7,-1
 290 847 l 2,0,1
607 71 m 2,8,9
 607 47 607 47 581.5 30 c 128,-1,10
 556 13 556 13 516 5.5 c 128,-1,11
 476 -2 476 -2 441.5 -5 c 128,-1,12
 407 -8 407 -8 374 -8 c 0,13,14
 206 -8 206 -8 125.5 79.5 c 128,-1,15
 45 167 45 167 45 352 c 0,16,17
 45 708 45 708 379 708 c 0,18,19
 452 708 452 708 522.5 687.5 c 128,-1,20
 593 667 593 667 593 638 c 0,21,22
 593 616 593 616 569.5 580 c 128,-1,23
 546 544 546 544 528 544 c 0,24,25
 525 544 525 544 506.5 552 c 128,-1,26
 488 560 488 560 453 568 c 128,-1,27
 418 576 418 576 376 576 c 0,28,29
 203 576 203 576 203 351 c 0,30,31
 203 123 203 123 374 123 c 0,32,33
 414 123 414 123 452 130 c 1,34,-1
 452 257 l 1,35,-1
 364 257 l 2,36,37
 334 257 334 257 334 307 c 2,38,-1
 334 339 l 2,39,40
 334 389 334 389 364 389 c 2,41,-1
 567 389 l 2,42,43
 607 389 607 389 607 349 c 2,44,-1
 607 71 l 2,8,9
EndSplineSet
Validated: 1
Position2: "'cpsp' Capital Spacing lookup 3 subtable" dx=5 dy=0 dh=10 dv=0
EndChar

StartChar: H
Encoding: 72 72 66
Width: 733
Flags: MW
HStem: -2 21G<123 144 144 179 548 569 569 604> 291 132<239 509 239 509> 682 20G<144 179 179 200 569 604 604 625>
VStem: 84 155<30 291 423 670> 509 155<30 291 291 291 423 670>
LayerCount: 2
UndoRedoHistory
Layer: 1
Undoes
EndUndoes
Redoes
EndRedoes
EndUndoRedoHistory
Fore
SplineSet
604 702 m 2,0,1
 664 702 664 702 664 670 c 2,2,-1
 664 30 l 2,3,4
 664 -2 664 -2 604 -2 c 2,5,-1
 569 -2 l 2,6,7
 509 -2 509 -2 509 30 c 2,8,-1
 509 291 l 1,9,-1
 239 291 l 1,10,-1
 239 30 l 2,11,12
 239 -2 239 -2 179 -2 c 2,13,-1
 144 -2 l 2,14,15
 84 -2 84 -2 84 30 c 2,16,-1
 84 670 l 2,17,18
 84 702 84 702 144 702 c 2,19,-1
 179 702 l 2,20,21
 239 702 239 702 239 670 c 2,22,-1
 239 423 l 1,23,-1
 509 423 l 1,24,-1
 509 670 l 2,25,26
 509 702 509 702 569 702 c 2,27,-1
 604 702 l 2,0,1
EndSplineSet
Validated: 1
Position2: "'cpsp' Capital Spacing lookup 3 subtable" dx=5 dy=0 dh=10 dv=0
EndChar

StartChar: Hbar
Encoding: 294 294 67
Width: 733
Flags: MW
HStem: -2 21G<123 144 144 179 548 569 569 604> 291 132<239 509 239 509> 476 95<49.5 84 60 84 239 509 664 675> 682 20G<144 179 179 200 569 604 604 625>
VStem: 84 155<30 291 423 476 571 670> 509 155<30 291 291 291 423 476 571 670>
LayerCount: 2
UndoRedoHistory
Layer: 1
Undoes
EndUndoes
Redoes
EndRedoes
EndUndoRedoHistory
Fore
SplineSet
675 571 m 2,0,1
 705 571 705 571 705 531 c 2,2,-1
 705 516 l 2,3,4
 705 476 705 476 675 476 c 2,5,-1
 664 476 l 1,6,-1
 664 30 l 2,7,8
 664 -2 664 -2 604 -2 c 2,9,-1
 569 -2 l 2,10,11
 509 -2 509 -2 509 30 c 2,12,-1
 509 291 l 1,13,-1
 239 291 l 1,14,-1
 239 30 l 2,15,16
 239 -2 239 -2 179 -2 c 2,17,-1
 144 -2 l 2,18,19
 84 -2 84 -2 84 30 c 2,20,-1
 84 476 l 1,21,-1
 60 476 l 2,22,23
 30 476 30 476 30 516 c 2,24,-1
 30 531 l 2,25,26
 30 571 30 571 60 571 c 2,27,-1
 84 571 l 1,28,-1
 84 670 l 2,29,30
 84 702 84 702 144 702 c 2,31,-1
 179 702 l 2,32,33
 239 702 239 702 239 670 c 2,34,-1
 239 571 l 1,35,-1
 509 571 l 1,36,-1
 509 670 l 2,37,38
 509 702 509 702 569 702 c 2,39,-1
 604 702 l 2,40,41
 664 702 664 702 664 670 c 2,42,-1
 664 571 l 1,43,-1
 675 571 l 2,0,1
509 476 m 1,44,-1
 239 476 l 1,45,-1
 239 423 l 1,46,-1
 509 423 l 1,47,-1
 509 476 l 1,44,-1
EndSplineSet
Validated: 1
Position2: "'cpsp' Capital Spacing lookup 3 subtable" dx=5 dy=0 dh=10 dv=0
EndChar

StartChar: Hcircumflex
Encoding: 292 292 68
Width: 733
Flags: MW
HStem: -2 21G<123 144 144 179 548 569 569 604> 291 132<239 509 239 509> 682 20G<144 179 179 200 569 604 604 625> 749 146<243 373 250 373 362 463 362 485>
VStem: 84 155<30 291 423 670> 509 155<30 291 291 291 423 670>
LayerCount: 2
UndoRedoHistory
Layer: 1
Undoes
EndUndoes
Redoes
EndRedoes
EndUndoRedoHistory
Fore
SplineSet
373 895 m 2,0,1
 422 895 422 895 434 876 c 2,2,-1
 499 774 l 2,3,4
 505 765 505 765 505 759 c 0,5,6
 505 749 505 749 485 749 c 2,7,-1
 463 749 l 2,8,9
 411 749 411 749 395 773 c 2,10,-1
 367 813 l 1,11,-1
 339 774 l 2,12,13
 321 749 321 749 272 749 c 2,14,-1
 250 749 l 2,15,16
 230 749 230 749 230 759 c 0,17,18
 230 765 230 765 236 774 c 2,19,-1
 301 876 l 2,20,21
 313 895 313 895 362 895 c 2,22,-1
 373 895 l 2,0,1
604 702 m 2,23,24
 664 702 664 702 664 670 c 2,25,-1
 664 30 l 2,26,27
 664 -2 664 -2 604 -2 c 2,28,-1
 569 -2 l 2,29,30
 509 -2 509 -2 509 30 c 2,31,-1
 509 291 l 1,32,-1
 239 291 l 1,33,-1
 239 30 l 2,34,35
 239 -2 239 -2 179 -2 c 2,36,-1
 144 -2 l 2,37,38
 84 -2 84 -2 84 30 c 2,39,-1
 84 670 l 2,40,41
 84 702 84 702 144 702 c 2,42,-1
 179 702 l 2,43,44
 239 702 239 702 239 670 c 2,45,-1
 239 423 l 1,46,-1
 509 423 l 1,47,-1
 509 670 l 2,48,49
 509 702 509 702 569 702 c 2,50,-1
 604 702 l 2,23,24
EndSplineSet
Validated: 1
Position2: "'cpsp' Capital Spacing lookup 3 subtable" dx=5 dy=0 dh=10 dv=0
EndChar

StartChar: Hdotbelow
Encoding: 7716 7716 69
Width: 733
Flags: MW
HStem: -204 124<362 404> -2 21G<123 144 144 179 548 569 569 604> 291 132<239 509 239 509> 682 20G<144 179 179 200 569 604 604 625>
VStem: 84 155<30 291 423 670> 323 120<-172 -112 -182.5 -101.5> 509 155<30 291 291 291 423 670>
LayerCount: 2
UndoRedoHistory
Layer: 1
Undoes
EndUndoes
Redoes
EndRedoes
EndUndoRedoHistory
Fore
SplineSet
604 702 m 2,0,1
 664 702 664 702 664 670 c 2,2,-1
 664 30 l 2,3,4
 664 -2 664 -2 604 -2 c 2,5,-1
 569 -2 l 2,6,7
 509 -2 509 -2 509 30 c 2,8,-1
 509 291 l 1,9,-1
 239 291 l 1,10,-1
 239 30 l 2,11,12
 239 -2 239 -2 179 -2 c 2,13,-1
 144 -2 l 2,14,15
 84 -2 84 -2 84 30 c 2,16,-1
 84 670 l 2,17,18
 84 702 84 702 144 702 c 2,19,-1
 179 702 l 2,20,21
 239 702 239 702 239 670 c 2,22,-1
 239 423 l 1,23,-1
 509 423 l 1,24,-1
 509 670 l 2,25,26
 509 702 509 702 569 702 c 2,27,-1
 604 702 l 2,0,1
323 -112 m 2,28,29
 323 -80 323 -80 383 -80 c 128,-1,30
 443 -80 443 -80 443 -112 c 2,31,-1
 443 -172 l 2,32,33
 443 -204 443 -204 383 -204 c 128,-1,34
 323 -204 323 -204 323 -172 c 2,35,-1
 323 -112 l 2,28,29
EndSplineSet
Validated: 1
Position2: "'cpsp' Capital Spacing lookup 3 subtable" dx=5 dy=0 dh=10 dv=0
EndChar

StartChar: I
Encoding: 73 73 70
Width: 282
Flags: MW
HStem: -3 21G<102 123 123 158> 683 20G<123 158 158 179>
VStem: 63 155<30 670>
LayerCount: 2
UndoRedoHistory
Layer: 1
Undoes
EndUndoes
Redoes
EndRedoes
EndUndoRedoHistory
Fore
SplineSet
158 703 m 2,0,1
 218 703 218 703 218 670 c 2,2,-1
 218 30 l 2,3,4
 218 -3 218 -3 158 -3 c 2,5,-1
 123 -3 l 2,6,7
 63 -3 63 -3 63 30 c 2,8,-1
 63 670 l 2,9,10
 63 703 63 703 123 703 c 2,11,-1
 158 703 l 2,0,1
EndSplineSet
Validated: 1
Position2: "'cpsp' Capital Spacing lookup 3 subtable" dx=5 dy=0 dh=10 dv=0
EndChar

StartChar: IJ
Encoding: 306 306 71
Width: 684
Flags: MW
HStem: -8 131<394 409 363 480.5> -3 21G<102 123 123 158> 683 20G<123 158 158 179 523 558 558 579>
VStem: 63 155<30 670> 463 155<227 670>
LayerCount: 2
UndoRedoHistory
Layer: 1
Undoes
EndUndoes
Redoes
EndRedoes
EndUndoRedoHistory
Fore
SplineSet
158 703 m 2,0,1
 218 703 218 703 218 670 c 2,2,-1
 218 30 l 2,3,4
 218 -3 218 -3 158 -3 c 2,5,-1
 123 -3 l 2,6,7
 63 -3 63 -3 63 30 c 2,8,-1
 63 670 l 2,9,10
 63 703 63 703 123 703 c 2,11,-1
 158 703 l 2,0,1
558 703 m 2,12,13
 618 703 618 703 618 670 c 2,14,-1
 618 202 l 2,15,16
 618 103 618 103 566 47.5 c 128,-1,17
 514 -8 514 -8 406 -8 c 0,18,19
 392 -8 392 -8 375.5 -6.5 c 128,-1,20
 359 -5 359 -5 335.5 -1 c 128,-1,21
 312 3 312 3 297 13 c 128,-1,22
 282 23 282 23 282 38 c 0,23,24
 282 61 282 61 292.5 95 c 128,-1,25
 303 129 303 129 323 131 c 0,26,27
 325 131 325 131 342.5 127 c 128,-1,28
 360 123 360 123 379 123 c 0,29,30
 424 123 424 123 443.5 147.5 c 128,-1,31
 463 172 463 172 463 227 c 2,32,-1
 463 670 l 2,33,34
 463 703 463 703 523 703 c 2,35,-1
 558 703 l 2,12,13
EndSplineSet
Validated: 1
Position2: "'cpsp' Capital Spacing lookup 3 subtable" dx=5 dy=0 dh=10 dv=0
EndChar

StartChar: Iacute
Encoding: 205 205 72
Width: 282
Flags: MW
HStem: -3 21G<102 123 123 158> 683 20G<123 158 158 179> 752 159<90 241>
VStem: 63 155<30 670>
LayerCount: 2
UndoRedoHistory
Layer: 1
Undoes
EndUndoes
Redoes
EndRedoes
EndUndoRedoHistory
Fore
SplineSet
221 911 m 0,0,1
 281 911 281 911 281 897 c 0,2,3
 281 891 281 891 275 883 c 128,-1,4
 269 875 269 875 244 849 c 0,5,6
 233 838 233 838 226 830.5 c 128,-1,7
 219 823 219 823 205 807.5 c 128,-1,8
 191 792 191 792 177 777 c 0,9,10
 154 752 154 752 102 752 c 0,11,12
 71 752 71 752 71 767 c 0,13,14
 71 770 71 770 73 775 c 128,-1,15
 75 780 75 780 80.5 790 c 128,-1,16
 86 800 86 800 93 810.5 c 128,-1,17
 100 821 100 821 112 842 c 128,-1,18
 124 863 124 863 136 884 c 0,19,20
 151 911 151 911 221 911 c 0,0,1
158 703 m 2,21,22
 218 703 218 703 218 670 c 2,23,-1
 218 30 l 2,24,25
 218 -3 218 -3 158 -3 c 2,26,-1
 123 -3 l 2,27,28
 63 -3 63 -3 63 30 c 2,29,-1
 63 670 l 2,30,31
 63 703 63 703 123 703 c 2,32,-1
 158 703 l 2,21,22
EndSplineSet
Validated: 1
Position2: "'cpsp' Capital Spacing lookup 3 subtable" dx=5 dy=0 dh=10 dv=0
EndChar

StartChar: Ibreve
Encoding: 300 300 73
Width: 282
Flags: MW
HStem: -3 21G<102 123 123 158> 683 20G<123 158 158 179> 752 91<115.5 168 115.5 184.5>
VStem: 63 155<30 670>
LayerCount: 2
UndoRedoHistory
Layer: 1
Undoes
EndUndoes
Redoes
EndRedoes
EndUndoRedoHistory
Fore
SplineSet
253 892 m 0,0,1
 288 892 288 892 288 864 c 0,2,3
 288 820 288 820 246 786 c 128,-1,4
 204 752 204 752 141 752 c 128,-1,5
 78 752 78 752 36 786 c 128,-1,6
 -6 820 -6 820 -6 864 c 0,7,8
 -6 892 -6 892 29 892 c 0,9,10
 46 892 46 892 62 874 c 0,11,12
 71 864 71 864 77 859 c 128,-1,13
 83 854 83 854 100 848.5 c 128,-1,14
 117 843 117 843 141 843 c 0,15,16
 166 843 166 843 184 849.5 c 128,-1,17
 202 856 202 856 207 860.5 c 128,-1,18
 212 865 212 865 222 876 c 0,19,20
 236 892 236 892 253 892 c 0,0,1
158 703 m 2,21,22
 218 703 218 703 218 670 c 2,23,-1
 218 30 l 2,24,25
 218 -3 218 -3 158 -3 c 2,26,-1
 123 -3 l 2,27,28
 63 -3 63 -3 63 30 c 2,29,-1
 63 670 l 2,30,31
 63 703 63 703 123 703 c 2,32,-1
 158 703 l 2,21,22
EndSplineSet
Validated: 1
Position2: "'cpsp' Capital Spacing lookup 3 subtable" dx=5 dy=0 dh=10 dv=0
EndChar

StartChar: Icircumflex
Encoding: 206 206 74
Width: 282
Flags: MW
HStem: -3 21G<102 123 123 158> 683 20G<123 158 158 179> 749 146<17 147 24 147 136 237 136 259>
VStem: 63 155<30 670>
LayerCount: 2
UndoRedoHistory
Layer: 1
Undoes
EndUndoes
Redoes
EndRedoes
EndUndoRedoHistory
Fore
SplineSet
147 895 m 2,0,1
 196 895 196 895 208 876 c 2,2,-1
 273 774 l 2,3,4
 279 765 279 765 279 759 c 0,5,6
 279 749 279 749 259 749 c 2,7,-1
 237 749 l 2,8,9
 185 749 185 749 169 773 c 2,10,-1
 141 813 l 1,11,-1
 113 774 l 2,12,13
 95 749 95 749 46 749 c 2,14,-1
 24 749 l 2,15,16
 4 749 4 749 4 759 c 0,17,18
 4 765 4 765 10 774 c 2,19,-1
 75 876 l 2,20,21
 87 895 87 895 136 895 c 2,22,-1
 147 895 l 2,0,1
158 703 m 2,23,24
 218 703 218 703 218 670 c 2,25,-1
 218 30 l 2,26,27
 218 -3 218 -3 158 -3 c 2,28,-1
 123 -3 l 2,29,30
 63 -3 63 -3 63 30 c 2,31,-1
 63 670 l 2,32,33
 63 703 63 703 123 703 c 2,34,-1
 158 703 l 2,23,24
EndSplineSet
Validated: 1
Position2: "'cpsp' Capital Spacing lookup 3 subtable" dx=5 dy=0 dh=10 dv=0
EndChar

StartChar: Idieresis
Encoding: 207 207 75
Width: 282
Flags: MW
HStem: -3 21G<102 123 123 158> 683 20G<123 158 158 179> 755 124<30 72 210 252>
VStem: -9 120<787 847 776.5 857.5> 63 155<30 670> 171 120<787 847 776.5 857.5>
LayerCount: 2
UndoRedoHistory
Layer: 1
Undoes
EndUndoes
Redoes
EndRedoes
EndUndoRedoHistory
Fore
SplineSet
-9 847 m 2,0,1
 -9 879 -9 879 51 879 c 128,-1,2
 111 879 111 879 111 847 c 2,3,-1
 111 787 l 2,4,5
 111 755 111 755 51 755 c 128,-1,6
 -9 755 -9 755 -9 787 c 2,7,-1
 -9 847 l 2,0,1
171 847 m 2,8,9
 171 879 171 879 231 879 c 128,-1,10
 291 879 291 879 291 847 c 2,11,-1
 291 787 l 2,12,13
 291 755 291 755 231 755 c 128,-1,14
 171 755 171 755 171 787 c 2,15,-1
 171 847 l 2,8,9
158 703 m 2,16,17
 218 703 218 703 218 670 c 2,18,-1
 218 30 l 2,19,20
 218 -3 218 -3 158 -3 c 2,21,-1
 123 -3 l 2,22,23
 63 -3 63 -3 63 30 c 2,24,-1
 63 670 l 2,25,26
 63 703 63 703 123 703 c 2,27,-1
 158 703 l 2,16,17
EndSplineSet
Validated: 1
Position2: "'cpsp' Capital Spacing lookup 3 subtable" dx=5 dy=0 dh=10 dv=0
EndChar

StartChar: Idotaccent
Encoding: 304 304 76
Width: 282
Flags: MW
HStem: -3 21G<102 123 123 158> 683 20G<123 158 158 179> 755 124<120 162>
VStem: 63 155<30 670> 81 120<787 847 776.5 857.5>
LayerCount: 2
UndoRedoHistory
Layer: 1
Undoes
EndUndoes
Redoes
EndRedoes
EndUndoRedoHistory
Fore
SplineSet
81 847 m 2,0,1
 81 879 81 879 141 879 c 128,-1,2
 201 879 201 879 201 847 c 2,3,-1
 201 787 l 2,4,5
 201 755 201 755 141 755 c 128,-1,6
 81 755 81 755 81 787 c 2,7,-1
 81 847 l 2,0,1
158 703 m 2,8,9
 218 703 218 703 218 670 c 2,10,-1
 218 30 l 2,11,12
 218 -3 218 -3 158 -3 c 2,13,-1
 123 -3 l 2,14,15
 63 -3 63 -3 63 30 c 2,16,-1
 63 670 l 2,17,18
 63 703 63 703 123 703 c 2,19,-1
 158 703 l 2,8,9
EndSplineSet
Validated: 1
Position2: "'cpsp' Capital Spacing lookup 3 subtable" dx=5 dy=0 dh=10 dv=0
EndChar

StartChar: Idotbelow
Encoding: 7882 7882 77
Width: 282
Flags: MW
HStem: -204 124<122 164> -3 21G<102 123 123 158> 683 20G<123 158 158 179>
VStem: 63 155<30 670> 83 120<-172 -112 -182.5 -101.5>
LayerCount: 2
UndoRedoHistory
Layer: 1
Undoes
EndUndoes
Redoes
EndRedoes
EndUndoRedoHistory
Fore
SplineSet
158 703 m 2,0,1
 218 703 218 703 218 670 c 2,2,-1
 218 30 l 2,3,4
 218 -3 218 -3 158 -3 c 2,5,-1
 123 -3 l 2,6,7
 63 -3 63 -3 63 30 c 2,8,-1
 63 670 l 2,9,10
 63 703 63 703 123 703 c 2,11,-1
 158 703 l 2,0,1
83 -112 m 2,12,13
 83 -80 83 -80 143 -80 c 128,-1,14
 203 -80 203 -80 203 -112 c 2,15,-1
 203 -172 l 2,16,17
 203 -204 203 -204 143 -204 c 128,-1,18
 83 -204 83 -204 83 -172 c 2,19,-1
 83 -112 l 2,12,13
EndSplineSet
Validated: 1
Position2: "'cpsp' Capital Spacing lookup 3 subtable" dx=5 dy=0 dh=10 dv=0
EndChar

StartChar: Igrave
Encoding: 204 204 78
Width: 282
Flags: MW
HStem: -3 21G<102 123 123 158> 683 20G<123 158 158 179> 752 159<47 198>
VStem: 63 155<30 670>
LayerCount: 2
UndoRedoHistory
Layer: 1
Undoes
EndUndoes
Redoes
EndRedoes
EndUndoRedoHistory
Fore
SplineSet
67 911 m 0,0,1
 137 911 137 911 152 884 c 0,2,3
 164 863 164 863 176 842 c 128,-1,4
 188 821 188 821 195 810.5 c 128,-1,5
 202 800 202 800 207.5 790 c 128,-1,6
 213 780 213 780 215 775 c 128,-1,7
 217 770 217 770 217 767 c 0,8,9
 217 752 217 752 186 752 c 0,10,11
 134 752 134 752 111 777 c 0,12,13
 81 810 81 810 44 849 c 0,14,15
 18 877 18 877 12.5 884 c 128,-1,16
 7 891 7 891 7 897 c 0,17,18
 7 911 7 911 67 911 c 0,0,1
158 703 m 2,19,20
 218 703 218 703 218 670 c 2,21,-1
 218 30 l 2,22,23
 218 -3 218 -3 158 -3 c 2,24,-1
 123 -3 l 2,25,26
 63 -3 63 -3 63 30 c 2,27,-1
 63 670 l 2,28,29
 63 703 63 703 123 703 c 2,30,-1
 158 703 l 2,19,20
EndSplineSet
Validated: 1
Position2: "'cpsp' Capital Spacing lookup 3 subtable" dx=5 dy=0 dh=10 dv=0
EndChar

StartChar: Ihookabove
Encoding: 7880 7880 79
Width: 282
Flags: MW
HStem: -3 21G<102 123 123 158> 683 20G<123 158 158 179> 867 61<136.5 154>
VStem: 63 155<30 670> 178 87<830 852>
LayerCount: 2
UndoRedoHistory
Layer: 1
Undoes
EndUndoes
Redoes
EndRedoes
EndUndoRedoHistory
Fore
SplineSet
178 845 m 0,0,1
 178 855 178 855 168.5 861 c 128,-1,2
 159 867 159 867 146 867 c 128,-1,3
 133 867 133 867 120 861 c 128,-1,4
 107 855 107 855 104 855 c 0,5,6
 98 855 98 855 86 870.5 c 128,-1,7
 74 886 74 886 74 897 c 0,8,9
 74 907 74 907 101 917.5 c 128,-1,10
 128 928 128 928 154 928 c 0,11,12
 207 928 207 928 236 907 c 128,-1,13
 265 886 265 886 265 849 c 0,14,15
 265 814 265 814 224.5 780.5 c 128,-1,16
 184 747 184 747 165 747 c 0,17,18
 148 747 148 747 129.5 755.5 c 128,-1,19
 111 764 111 764 111 770 c 0,20,21
 111 777 111 777 144.5 802.5 c 128,-1,22
 178 828 178 828 178 845 c 0,0,1
158 703 m 2,23,24
 218 703 218 703 218 670 c 2,25,-1
 218 30 l 2,26,27
 218 -3 218 -3 158 -3 c 2,28,-1
 123 -3 l 2,29,30
 63 -3 63 -3 63 30 c 2,31,-1
 63 670 l 2,32,33
 63 703 63 703 123 703 c 2,34,-1
 158 703 l 2,23,24
EndSplineSet
Validated: 1
Position2: "'cpsp' Capital Spacing lookup 3 subtable" dx=5 dy=0 dh=10 dv=0
EndChar

StartChar: Imacron
Encoding: 298 298 80
Width: 282
Flags: MW
HStem: -3 21G<102 123 123 158> 683 20G<123 158 158 179> 774 95<23.5 249 34 249>
VStem: 63 155<30 670>
LayerCount: 2
UndoRedoHistory
Layer: 1
Undoes
EndUndoes
Redoes
EndRedoes
EndUndoRedoHistory
Fore
SplineSet
249 869 m 2,0,1
 279 869 279 869 279 829 c 2,2,-1
 279 814 l 2,3,4
 279 774 279 774 249 774 c 2,5,-1
 34 774 l 2,6,7
 4 774 4 774 4 814 c 2,8,-1
 4 829 l 2,9,10
 4 869 4 869 34 869 c 2,11,-1
 249 869 l 2,0,1
158 703 m 2,12,13
 218 703 218 703 218 670 c 2,14,-1
 218 30 l 2,15,16
 218 -3 218 -3 158 -3 c 2,17,-1
 123 -3 l 2,18,19
 63 -3 63 -3 63 30 c 2,20,-1
 63 670 l 2,21,22
 63 703 63 703 123 703 c 2,23,-1
 158 703 l 2,12,13
EndSplineSet
Validated: 1
Position2: "'cpsp' Capital Spacing lookup 3 subtable" dx=5 dy=0 dh=10 dv=0
EndChar

StartChar: Iogonek
Encoding: 302 302 81
Width: 282
Flags: MW
HStem: -183 70<221.5 241> -3 21G<102 123 123 126> -1 21G<182 182> 683 20G<123 158 158 179>
VStem: 63 155<30 670>
LayerCount: 2
UndoRedoHistory
Layer: 1
Undoes
EndUndoes
Redoes
EndRedoes
EndUndoRedoHistory
Fore
SplineSet
218 30 m 2,0,1
 218 5 218 5 182 -1 c 1,2,-1
 182 -5 l 2,3,4
 182 -11 182 -11 176.5 -28.5 c 128,-1,5
 171 -46 171 -46 171 -62 c 0,6,7
 171 -113 171 -113 233 -113 c 0,8,9
 246 -113 246 -113 260 -109 c 128,-1,10
 274 -105 274 -105 282 -105 c 0,11,12
 304 -105 304 -105 304 -133 c 0,13,14
 304 -183 304 -183 222 -183 c 0,15,16
 185 -183 185 -183 159 -171.5 c 128,-1,17
 133 -160 133 -160 122.5 -142 c 128,-1,18
 112 -124 112 -124 108 -109.5 c 128,-1,19
 104 -95 104 -95 104 -81 c 0,20,21
 104 -31 104 -31 126 -3 c 1,22,-1
 123 -3 l 2,23,24
 63 -3 63 -3 63 30 c 2,25,-1
 63 670 l 2,26,27
 63 703 63 703 123 703 c 2,28,-1
 158 703 l 2,29,30
 218 703 218 703 218 670 c 2,31,-1
 218 30 l 2,0,1
EndSplineSet
Validated: 1
Position2: "'cpsp' Capital Spacing lookup 3 subtable" dx=5 dy=0 dh=10 dv=0
EndChar

StartChar: Itilde
Encoding: 296 296 82
Width: 282
Flags: MW
HStem: -3 21G<102 123 123 158> 683 20G<123 158 158 179> 757 86<190.5 203.5> 784 86<70.5 84>
VStem: 63 155<30 670>
LayerCount: 2
UndoRedoHistory
Layer: 1
Undoes
EndUndoes
Redoes
EndRedoes
EndUndoRedoHistory
Fore
SplineSet
248 858 m 0,0,1
 256 864 256 864 266 864 c 0,2,3
 277 864 277 864 288 852 c 0,4,5
 295 844 295 844 295 832 c 0,6,7
 295 817 295 817 280 798 c 1,8,9
 244 757 244 757 185 757 c 0,10,11
 154 757 154 757 120 773 c 0,12,13
 98 784 98 784 74 784 c 0,14,15
 55 784 55 784 29 770 c 0,16,17
 25 767 25 767 18 767 c 0,18,19
 3 767 3 767 -8 784 c 1,20,21
 -15 792 -15 792 -15 804 c 0,22,23
 -15 818 -15 818 -4 829 c 0,24,25
 42 870 42 870 89 870 c 0,26,27
 120 870 120 870 159 854 c 1,28,29
 183 843 183 843 199 843 c 0,30,31
 225 843 225 843 248 858 c 0,0,1
158 703 m 2,32,33
 218 703 218 703 218 670 c 2,34,-1
 218 30 l 2,35,36
 218 -3 218 -3 158 -3 c 2,37,-1
 123 -3 l 2,38,39
 63 -3 63 -3 63 30 c 2,40,-1
 63 670 l 2,41,42
 63 703 63 703 123 703 c 2,43,-1
 158 703 l 2,32,33
EndSplineSet
Validated: 1
Position2: "'cpsp' Capital Spacing lookup 3 subtable" dx=5 dy=0 dh=10 dv=0
EndChar

StartChar: J
Encoding: 74 74 83
Width: 402
Flags: MW
HStem: -8 131<112 127 81 198.5> 683 20G<241 276 276 297>
VStem: 181 155<227 670>
LayerCount: 2
UndoRedoHistory
Layer: 1
Undoes
EndUndoes
Redoes
EndRedoes
EndUndoRedoHistory
Fore
SplineSet
276 703 m 2,0,1
 336 703 336 703 336 670 c 2,2,-1
 336 202 l 2,3,4
 336 103 336 103 284 47.5 c 128,-1,5
 232 -8 232 -8 124 -8 c 0,6,7
 110 -8 110 -8 93.5 -6.5 c 128,-1,8
 77 -5 77 -5 53.5 -1 c 128,-1,9
 30 3 30 3 15 13 c 128,-1,10
 0 23 0 23 0 38 c 0,11,12
 0 61 0 61 10.5 95 c 128,-1,13
 21 129 21 129 41 131 c 0,14,15
 43 131 43 131 60.5 127 c 128,-1,16
 78 123 78 123 97 123 c 0,17,18
 142 123 142 123 161.5 147.5 c 128,-1,19
 181 172 181 172 181 227 c 2,20,-1
 181 670 l 2,21,22
 181 703 181 703 241 703 c 2,23,-1
 276 703 l 2,0,1
EndSplineSet
Validated: 1
Position2: "'cpsp' Capital Spacing lookup 3 subtable" dx=5 dy=0 dh=10 dv=0
EndChar

StartChar: Jcircumflex
Encoding: 308 308 84
Width: 402
Flags: MW
HStem: -8 131<112 127 81 198.5> 683 20G<241 276 276 297> 749 146<137 267 144 267 256 357 256 379>
VStem: 181 155<227 670>
LayerCount: 2
UndoRedoHistory
Layer: 1
Undoes
EndUndoes
Redoes
EndRedoes
EndUndoRedoHistory
Fore
SplineSet
267 895 m 2,0,1
 316 895 316 895 328 876 c 2,2,-1
 393 774 l 2,3,4
 399 765 399 765 399 759 c 0,5,6
 399 749 399 749 379 749 c 2,7,-1
 357 749 l 2,8,9
 305 749 305 749 289 773 c 2,10,-1
 261 813 l 1,11,-1
 233 774 l 2,12,13
 215 749 215 749 166 749 c 2,14,-1
 144 749 l 2,15,16
 124 749 124 749 124 759 c 0,17,18
 124 765 124 765 130 774 c 2,19,-1
 195 876 l 2,20,21
 207 895 207 895 256 895 c 2,22,-1
 267 895 l 2,0,1
276 703 m 2,23,24
 336 703 336 703 336 670 c 2,25,-1
 336 202 l 2,26,27
 336 103 336 103 284 47.5 c 128,-1,28
 232 -8 232 -8 124 -8 c 0,29,30
 110 -8 110 -8 93.5 -6.5 c 128,-1,31
 77 -5 77 -5 53.5 -1 c 128,-1,32
 30 3 30 3 15 13 c 128,-1,33
 0 23 0 23 0 38 c 0,34,35
 0 61 0 61 10.5 95 c 128,-1,36
 21 129 21 129 41 131 c 0,37,38
 43 131 43 131 60.5 127 c 128,-1,39
 78 123 78 123 97 123 c 0,40,41
 142 123 142 123 161.5 147.5 c 128,-1,42
 181 172 181 172 181 227 c 2,43,-1
 181 670 l 2,44,45
 181 703 181 703 241 703 c 2,46,-1
 276 703 l 2,23,24
EndSplineSet
Validated: 1
Position2: "'cpsp' Capital Spacing lookup 3 subtable" dx=5 dy=0 dh=10 dv=0
EndChar

StartChar: K
Encoding: 75 75 85
Width: 576
Flags: MW
HStem: -2 21G<108 129 129 164 462.5 477 477 535> 682 20G<129 164 164 185 462 509 509 528.5>
VStem: 69 155<30 320 402 670>
LayerCount: 2
UndoRedoHistory
Layer: 1
Undoes
EndUndoes
Redoes
EndRedoes
EndUndoRedoHistory
Fore
SplineSet
509 702 m 2,0,1
 565 702 565 702 565 687 c 0,2,3
 565 678 565 678 557 666 c 2,4,-1
 364 370 l 1,5,-1
 583 34 l 2,6,7
 591 22 591 22 591 13 c 0,8,9
 591 -2 591 -2 535 -2 c 2,10,-1
 477 -2 l 2,11,12
 427 -2 427 -2 416 17 c 2,13,-1
 228 321 l 1,14,-1
 224 320 l 1,15,-1
 224 30 l 2,16,17
 224 -2 224 -2 164 -2 c 2,18,-1
 129 -2 l 2,19,20
 69 -2 69 -2 69 30 c 2,21,-1
 69 670 l 2,22,23
 69 702 69 702 129 702 c 2,24,-1
 164 702 l 2,25,26
 224 702 224 702 224 670 c 2,27,-1
 224 402 l 1,28,-1
 228 401 l 1,29,-1
 402 683 l 2,30,31
 413 702 413 702 462 702 c 2,32,-1
 509 702 l 2,0,1
EndSplineSet
Validated: 1
Position2: "'cpsp' Capital Spacing lookup 3 subtable" dx=5 dy=0 dh=10 dv=0
EndChar

StartChar: Kcommaaccent
Encoding: 310 310 86
Width: 576
Flags: MW
HStem: -240 21G<243 269.5> -2 21G<108 129 129 164 462.5 477 477 535> 682 20G<129 164 164 185 462 509 509 528.5>
VStem: 69 155<30 320 402 670> 231 129<-128.5 -82.5 -128.5 -81.5>
LayerCount: 2
UndoRedoHistory
Layer: 1
Undoes
EndUndoes
Redoes
EndRedoes
EndUndoRedoHistory
Fore
SplineSet
509 702 m 2,0,1
 565 702 565 702 565 687 c 0,2,3
 565 678 565 678 557 666 c 2,4,-1
 364 370 l 1,5,-1
 583 34 l 2,6,7
 591 22 591 22 591 13 c 0,8,9
 591 -2 591 -2 535 -2 c 2,10,-1
 477 -2 l 2,11,12
 427 -2 427 -2 416 17 c 2,13,-1
 228 321 l 1,14,-1
 224 320 l 1,15,-1
 224 30 l 2,16,17
 224 -2 224 -2 164 -2 c 2,18,-1
 129 -2 l 2,19,20
 69 -2 69 -2 69 30 c 2,21,-1
 69 670 l 2,22,23
 69 702 69 702 129 702 c 2,24,-1
 164 702 l 2,25,26
 224 702 224 702 224 670 c 2,27,-1
 224 402 l 1,28,-1
 228 401 l 1,29,-1
 402 683 l 2,30,31
 413 702 413 702 462 702 c 2,32,-1
 509 702 l 2,0,1
310 -51 m 2,33,34
 360 -51 360 -51 360 -95 c 0,35,36
 360 -142 360 -142 320.5 -191 c 128,-1,37
 281 -240 281 -240 252 -240 c 0,38,39
 236 -240 236 -240 221.5 -234.5 c 128,-1,40
 207 -229 207 -229 207 -218 c 0,41,42
 207 -217 207 -217 219 -180 c 128,-1,43
 231 -143 231 -143 231 -95 c 0,44,45
 231 -51 231 -51 291 -51 c 2,46,-1
 310 -51 l 2,33,34
EndSplineSet
Validated: 1
Position2: "'cpsp' Capital Spacing lookup 3 subtable" dx=5 dy=0 dh=10 dv=0
EndChar

StartChar: L
Encoding: 76 76 87
Width: 484
Flags: MW
HStem: 0 131<95 446 223 446 223 446> 682 20G<129 163 163 184>
VStem: 69 154<131 670 131 670 131 680.5>
LayerCount: 2
UndoRedoHistory
Layer: 1
Undoes
EndUndoes
Redoes
EndRedoes
EndUndoRedoHistory
Fore
SplineSet
163 702 m 2,0,1
 223 702 223 702 223 670 c 2,2,-1
 223 131 l 1,3,-1
 446 131 l 2,4,5
 476 131 476 131 476 81 c 2,6,-1
 476 50 l 2,7,8
 476 0 476 0 446 0 c 2,9,-1
 109 0 l 2,10,11
 69 0 69 0 69 40 c 2,12,-1
 69 670 l 2,13,14
 69 702 69 702 129 702 c 2,15,-1
 163 702 l 2,0,1
EndSplineSet
Validated: 1
Position2: "'cpsp' Capital Spacing lookup 3 subtable" dx=5 dy=0 dh=10 dv=0
EndChar

StartChar: LJ
Encoding: 455 455 88
Width: 718
Flags: MW
HStem: -181 131<436 451 405 522.5> 0 131<95 376 223 376 223 376> 682 20G<129 163 163 184> 683 20G<565 600 600 621>
VStem: 69 154<131 670 131 670 131 680.5> 505 155<54 670>
LayerCount: 2
UndoRedoHistory
Layer: 1
Undoes
EndUndoes
Redoes
EndRedoes
EndUndoRedoHistory
Fore
SplineSet
600 703 m 2,0,1
 660 703 660 703 660 670 c 2,2,-1
 660 42 l 2,3,4
 660 -59 660 -59 607.5 -120 c 128,-1,5
 555 -181 555 -181 448 -181 c 0,6,7
 434 -181 434 -181 417.5 -179.5 c 128,-1,8
 401 -178 401 -178 377.5 -174 c 128,-1,9
 354 -170 354 -170 339 -160 c 128,-1,10
 324 -150 324 -150 324 -135 c 0,11,12
 324 -112 324 -112 334.5 -78 c 128,-1,13
 345 -44 345 -44 365 -42 c 0,14,15
 367 -42 367 -42 384.5 -46 c 128,-1,16
 402 -50 402 -50 421 -50 c 0,17,18
 466 -50 466 -50 485.5 -25.5 c 128,-1,19
 505 -1 505 -1 505 54 c 2,20,-1
 505 670 l 2,21,22
 505 703 505 703 565 703 c 2,23,-1
 600 703 l 2,0,1
163 702 m 2,24,25
 223 702 223 702 223 670 c 2,26,-1
 223 131 l 1,27,-1
 376 131 l 2,28,29
 406 131 406 131 406 81 c 2,30,-1
 406 50 l 2,31,32
 406 0 406 0 376 0 c 2,33,-1
 109 0 l 2,34,35
 69 0 69 0 69 40 c 2,36,-1
 69 670 l 2,37,38
 69 702 69 702 129 702 c 2,39,-1
 163 702 l 2,24,25
EndSplineSet
Validated: 1
Position2: "'cpsp' Capital Spacing lookup 3 subtable" dx=5 dy=0 dh=10 dv=0
EndChar

StartChar: Lacute
Encoding: 313 313 89
Width: 484
Flags: MW
HStem: 0 131<95 446 223 446 223 446> 682 20G<129 163 163 184> 752 159<99 250>
VStem: 69 154<131 670 131 670 131 680.5>
LayerCount: 2
UndoRedoHistory
Layer: 1
Undoes
EndUndoes
Redoes
EndRedoes
EndUndoRedoHistory
Fore
SplineSet
230 911 m 0,0,1
 290 911 290 911 290 897 c 0,2,3
 290 891 290 891 284 883 c 128,-1,4
 278 875 278 875 253 849 c 0,5,6
 242 838 242 838 235 830.5 c 128,-1,7
 228 823 228 823 214 807.5 c 128,-1,8
 200 792 200 792 186 777 c 0,9,10
 163 752 163 752 111 752 c 0,11,12
 80 752 80 752 80 767 c 0,13,14
 80 770 80 770 82 775 c 128,-1,15
 84 780 84 780 89.5 790 c 128,-1,16
 95 800 95 800 102 810.5 c 128,-1,17
 109 821 109 821 121 842 c 128,-1,18
 133 863 133 863 145 884 c 0,19,20
 160 911 160 911 230 911 c 0,0,1
163 702 m 2,21,22
 223 702 223 702 223 670 c 2,23,-1
 223 131 l 1,24,-1
 446 131 l 2,25,26
 476 131 476 131 476 81 c 2,27,-1
 476 50 l 2,28,29
 476 0 476 0 446 0 c 2,30,-1
 109 0 l 2,31,32
 69 0 69 0 69 40 c 2,33,-1
 69 670 l 2,34,35
 69 702 69 702 129 702 c 2,36,-1
 163 702 l 2,21,22
EndSplineSet
Validated: 1
Position2: "'cpsp' Capital Spacing lookup 3 subtable" dx=5 dy=0 dh=10 dv=0
EndChar

StartChar: Lcaron
Encoding: 317 317 90
Width: 484
Flags: MW
HStem: 0 131<95 446 223 446 223 446> 680 20G<379 398 398 415.5> 682 20G<129 163 163 184>
VStem: 69 154<131 670 131 670 131 680.5> 315 133<525 668.5>
LayerCount: 2
UndoRedoHistory
Layer: 1
Undoes
EndUndoes
Redoes
EndRedoes
EndUndoRedoHistory
Fore
SplineSet
163 702 m 2,0,1
 223 702 223 702 223 670 c 2,2,-1
 223 131 l 1,3,-1
 446 131 l 2,4,5
 476 131 476 131 476 81 c 2,6,-1
 476 50 l 2,7,8
 476 0 476 0 446 0 c 2,9,-1
 109 0 l 2,10,11
 69 0 69 0 69 40 c 2,12,-1
 69 670 l 2,13,14
 69 702 69 702 129 702 c 2,15,-1
 163 702 l 2,0,1
398 700 m 2,16,17
 448 700 448 700 448 656 c 0,18,19
 448 609 448 609 416 561 c 128,-1,20
 384 513 384 513 360 511 c 1,21,22
 344 511 344 511 329.5 516.5 c 128,-1,23
 315 522 315 522 315 533 c 0,24,25
 315 560 315 560 317 600.5 c 128,-1,26
 319 641 319 641 319 656 c 0,27,28
 319 700 319 700 379 700 c 2,29,-1
 398 700 l 2,16,17
EndSplineSet
Validated: 1
Position2: "'cpsp' Capital Spacing lookup 3 subtable" dx=5 dy=0 dh=10 dv=0
EndChar

StartChar: Lcommaaccent
Encoding: 315 315 91
Width: 484
Flags: MW
HStem: -240 21G<187 213.5> 0 131<95 446 223 446 223 446> 682 20G<129 163 163 184>
VStem: 69 154<131 670 131 670 131 680.5> 175 129<-128.5 -82.5 -128.5 -81.5>
LayerCount: 2
UndoRedoHistory
Layer: 1
Undoes
EndUndoes
Redoes
EndRedoes
EndUndoRedoHistory
Fore
SplineSet
163 702 m 2,0,1
 223 702 223 702 223 670 c 2,2,-1
 223 131 l 1,3,-1
 446 131 l 2,4,5
 476 131 476 131 476 81 c 2,6,-1
 476 50 l 2,7,8
 476 0 476 0 446 0 c 2,9,-1
 109 0 l 2,10,11
 69 0 69 0 69 40 c 2,12,-1
 69 670 l 2,13,14
 69 702 69 702 129 702 c 2,15,-1
 163 702 l 2,0,1
254 -51 m 2,16,17
 304 -51 304 -51 304 -95 c 0,18,19
 304 -142 304 -142 264.5 -191 c 128,-1,20
 225 -240 225 -240 196 -240 c 0,21,22
 180 -240 180 -240 165.5 -234.5 c 128,-1,23
 151 -229 151 -229 151 -218 c 0,24,25
 151 -217 151 -217 163 -180 c 128,-1,26
 175 -143 175 -143 175 -95 c 0,27,28
 175 -51 175 -51 235 -51 c 2,29,-1
 254 -51 l 2,16,17
EndSplineSet
Validated: 1
Position2: "'cpsp' Capital Spacing lookup 3 subtable" dx=5 dy=0 dh=10 dv=0
EndChar

StartChar: Ldot
Encoding: 319 319 92
Width: 484
Flags: MW
HStem: 0 131<95 446 223 446 223 446> 289 140<311.5 350.5> 682 20G<129 163 163 184>
VStem: 69 154<131 670 131 670 131 680.5> 261 140<339.5 378.5>
LayerCount: 2
UndoRedoHistory
Layer: 1
Undoes
EndUndoes
Redoes
EndRedoes
EndUndoRedoHistory
Fore
SplineSet
163 702 m 2,0,1
 223 702 223 702 223 670 c 2,2,-1
 223 131 l 1,3,-1
 446 131 l 2,4,5
 476 131 476 131 476 81 c 2,6,-1
 476 50 l 2,7,8
 476 0 476 0 446 0 c 2,9,-1
 109 0 l 2,10,11
 69 0 69 0 69 40 c 2,12,-1
 69 670 l 2,13,14
 69 702 69 702 129 702 c 2,15,-1
 163 702 l 2,0,1
331 429 m 128,-1,17
 360 429 360 429 380.5 408.5 c 128,-1,18
 401 388 401 388 401 359 c 128,-1,19
 401 330 401 330 380.5 309.5 c 128,-1,20
 360 289 360 289 331 289 c 128,-1,21
 302 289 302 289 281.5 309.5 c 128,-1,22
 261 330 261 330 261 359 c 128,-1,23
 261 388 261 388 281.5 408.5 c 128,-1,16
 302 429 302 429 331 429 c 128,-1,17
EndSplineSet
Validated: 1
Ligature2: "Ligature Substitution lookup 20 subtable" L periodcentered
Position2: "'cpsp' Capital Spacing lookup 3 subtable" dx=5 dy=0 dh=10 dv=0
EndChar

StartChar: Lj
Encoding: 456 456 93
Width: 760
Flags: MW
HStem: -212 117<516.5 531 512.5 597.5> 0 131<95 446 223 446 223 446> 609 145<593 642 614 642> 682 20G<129 163 163 184>
VStem: 69 154<131 670 131 670 131 680.5> 554 148<-52 -50 -50 493 641 722>
LayerCount: 2
UndoRedoHistory
Layer: 1
Undoes
EndUndoes
Redoes
EndRedoes
EndUndoRedoHistory
Fore
SplineSet
642 754 m 2,0,1
 702 754 702 754 702 722 c 2,2,-1
 702 641 l 2,3,4
 702 609 702 609 642 609 c 2,5,-1
 614 609 l 2,6,7
 554 609 554 609 554 641 c 2,8,-1
 554 722 l 2,9,10
 554 754 554 754 614 754 c 2,11,-1
 642 754 l 2,0,1
163 702 m 2,12,13
 223 702 223 702 223 670 c 2,14,-1
 223 131 l 1,15,-1
 446 131 l 2,16,17
 476 131 476 131 476 81 c 2,18,-1
 476 50 l 2,19,20
 476 0 476 0 446 0 c 2,21,-1
 109 0 l 2,22,23
 69 0 69 0 69 40 c 2,24,-1
 69 670 l 2,25,26
 69 702 69 702 129 702 c 2,27,-1
 163 702 l 2,12,13
642 525 m 2,28,29
 702 525 702 525 702 493 c 2,30,-1
 702 -50 l 2,31,32
 702 -129 702 -129 661.5 -170.5 c 128,-1,33
 621 -212 621 -212 556 -212 c 0,34,35
 497 -212 497 -212 474.5 -200.5 c 128,-1,36
 452 -189 452 -189 452 -160 c 0,37,38
 452 -140 452 -140 463 -115.5 c 128,-1,39
 474 -91 474 -91 488 -91 c 0,40,41
 490 -91 490 -91 501 -93 c 128,-1,42
 512 -95 512 -95 518 -95 c 0,43,44
 554 -95 554 -95 554 -52 c 2,45,-1
 554 493 l 2,46,47
 554 525 554 525 614 525 c 2,48,-1
 642 525 l 2,28,29
EndSplineSet
Validated: 1
Position2: "'cpsp' Capital Spacing lookup 3 subtable" dx=5 dy=0 dh=10 dv=0
EndChar

StartChar: Lslash
Encoding: 321 321 94
Width: 486
Flags: MW
HStem: 0 131<97 448 225 448 225 448> 682 20G<131 165 165 186>
VStem: 71 154<131 301 301 301 381 395 475 670>
LayerCount: 2
UndoRedoHistory
Layer: 1
Undoes
EndUndoes
Redoes
EndRedoes
EndUndoRedoHistory
Fore
SplineSet
165 702 m 2,0,1
 225 702 225 702 225 670 c 2,2,-1
 225 475 l 1,3,-1
 312 528 l 2,4,5
 321 534 321 534 327 534 c 0,6,7
 338 534 338 534 338 514 c 2,8,-1
 338 494 l 2,9,10
 338 464 338 464 312 448 c 2,11,-1
 225 395 l 1,12,-1
 225 131 l 1,13,-1
 448 131 l 2,14,15
 478 131 478 131 478 81 c 2,16,-1
 478 50 l 2,17,18
 478 0 478 0 448 0 c 2,19,-1
 111 0 l 2,20,21
 71 0 71 0 71 40 c 2,22,-1
 71 301 l 1,23,-1
 52 289 l 2,24,25
 44 284 44 284 37 284 c 0,26,27
 26 284 26 284 26 304 c 2,28,-1
 26 324 l 2,29,30
 26 353 26 353 52 369 c 2,31,-1
 71 381 l 1,32,-1
 71 670 l 2,33,34
 71 702 71 702 131 702 c 2,35,-1
 165 702 l 2,0,1
EndSplineSet
Validated: 1
Position2: "'cpsp' Capital Spacing lookup 3 subtable" dx=5 dy=0 dh=10 dv=0
EndChar

StartChar: M
Encoding: 77 77 95
Width: 843
Flags: MW
HStem: -2 21G<108 129 129 158 664 685 685 714> 682 20G<129 182 182 196.5 662 714 714 735>
VStem: 69 149<30 444> 625 149<30 444 444 444>
LayerCount: 2
UndoRedoHistory
Layer: 1
Undoes
EndUndoes
Redoes
EndRedoes
EndUndoRedoHistory
Fore
SplineSet
714 702 m 2,0,1
 774 702 774 702 774 670 c 2,2,-1
 774 30 l 2,3,4
 774 -2 774 -2 714 -2 c 2,5,-1
 685 -2 l 2,6,7
 625 -2 625 -2 625 30 c 2,8,-1
 625 444 l 1,9,-1
 621 445 l 1,10,-1
 476 186 l 1,11,12
 462 167 462 167 436 167 c 2,13,-1
 407 167 l 2,14,15
 381 167 381 167 367 186 c 1,16,-1
 222 445 l 1,17,-1
 218 444 l 1,18,-1
 218 30 l 2,19,20
 218 -2 218 -2 158 -2 c 2,21,-1
 129 -2 l 2,22,23
 69 -2 69 -2 69 30 c 2,24,-1
 69 670 l 2,25,26
 69 702 69 702 129 702 c 2,27,-1
 182 702 l 2,28,29
 230 702 230 702 245 675 c 2,30,-1
 413 376 l 1,31,-1
 421 362 l 1,32,-1
 430 379 l 1,33,-1
 599 675 l 2,34,35
 614 702 614 702 662 702 c 2,36,-1
 714 702 l 2,0,1
EndSplineSet
Validated: 1
Position2: "'cpsp' Capital Spacing lookup 3 subtable" dx=5 dy=0 dh=10 dv=0
EndChar

StartChar: N
Encoding: 78 78 96
Width: 719
Flags: MW
HStem: -2 21G<108 129 129 158 537.5 552 552 590> 682 20G<129 172 172 186.5 561 590 590 611>
VStem: 69 149<30 435> 501 149<270 670>
LayerCount: 2
UndoRedoHistory
Layer: 1
Undoes
EndUndoes
Redoes
EndRedoes
EndUndoRedoHistory
Fore
SplineSet
590 702 m 2,0,1
 650 702 650 702 650 670 c 2,2,-1
 650 30 l 2,3,4
 650 -2 650 -2 590 -2 c 2,5,-1
 552 -2 l 2,6,7
 504 -2 504 -2 486 25 c 2,8,-1
 218 435 l 1,9,-1
 218 30 l 2,10,11
 218 -2 218 -2 158 -2 c 2,12,-1
 129 -2 l 2,13,14
 69 -2 69 -2 69 30 c 2,15,-1
 69 670 l 2,16,17
 69 702 69 702 129 702 c 2,18,-1
 172 702 l 2,19,20
 220 702 220 702 238 675 c 2,21,-1
 474 311 l 1,22,-1
 501 270 l 1,23,-1
 501 670 l 2,24,25
 501 702 501 702 561 702 c 2,26,-1
 590 702 l 2,0,1
EndSplineSet
Validated: 1
Position2: "'cpsp' Capital Spacing lookup 3 subtable" dx=5 dy=0 dh=10 dv=0
EndChar

StartChar: NJ
Encoding: 458 458 97
Width: 1121
Flags: MW
HStem: -8 131<831 846 800 917.5> -2 21G<108 129 129 158 537.5 552 552 590> 682 20G<129 172 172 186.5 561 590 590 611> 683 20G<960 995 995 1016>
VStem: 69 149<30 435> 501 149<270 670> 900 155<227 670>
LayerCount: 2
UndoRedoHistory
Layer: 1
Undoes
EndUndoes
Redoes
EndRedoes
EndUndoRedoHistory
Fore
SplineSet
995 703 m 2,0,1
 1055 703 1055 703 1055 670 c 2,2,-1
 1055 202 l 2,3,4
 1055 103 1055 103 1003 47.5 c 128,-1,5
 951 -8 951 -8 843 -8 c 0,6,7
 829 -8 829 -8 812.5 -6.5 c 128,-1,8
 796 -5 796 -5 772.5 -1 c 128,-1,9
 749 3 749 3 734 13 c 128,-1,10
 719 23 719 23 719 38 c 0,11,12
 719 61 719 61 729.5 95 c 128,-1,13
 740 129 740 129 760 131 c 0,14,15
 762 131 762 131 779.5 127 c 128,-1,16
 797 123 797 123 816 123 c 0,17,18
 861 123 861 123 880.5 147.5 c 128,-1,19
 900 172 900 172 900 227 c 2,20,-1
 900 670 l 2,21,22
 900 703 900 703 960 703 c 2,23,-1
 995 703 l 2,0,1
590 702 m 2,24,25
 650 702 650 702 650 670 c 2,26,-1
 650 30 l 2,27,28
 650 -2 650 -2 590 -2 c 2,29,-1
 552 -2 l 2,30,31
 504 -2 504 -2 486 25 c 2,32,-1
 218 435 l 1,33,-1
 218 30 l 2,34,35
 218 -2 218 -2 158 -2 c 2,36,-1
 129 -2 l 2,37,38
 69 -2 69 -2 69 30 c 2,39,-1
 69 670 l 2,40,41
 69 702 69 702 129 702 c 2,42,-1
 172 702 l 2,43,44
 220 702 220 702 238 675 c 2,45,-1
 474 311 l 1,46,-1
 501 270 l 1,47,-1
 501 670 l 2,48,49
 501 702 501 702 561 702 c 2,50,-1
 590 702 l 2,24,25
EndSplineSet
Validated: 1
Position2: "'cpsp' Capital Spacing lookup 3 subtable" dx=5 dy=0 dh=10 dv=0
EndChar

StartChar: Nacute
Encoding: 323 323 98
Width: 719
Flags: MW
HStem: -2 21G<108 129 129 158 537.5 552 552 590> 682 20G<129 172 172 186.5 561 590 590 611> 752 159<309 460>
VStem: 69 149<30 435> 501 149<270 670>
LayerCount: 2
UndoRedoHistory
Layer: 1
Undoes
EndUndoes
Redoes
EndRedoes
EndUndoRedoHistory
Fore
SplineSet
440 911 m 0,0,1
 500 911 500 911 500 897 c 0,2,3
 500 891 500 891 494 883 c 128,-1,4
 488 875 488 875 463 849 c 0,5,6
 452 838 452 838 445 830.5 c 128,-1,7
 438 823 438 823 424 807.5 c 128,-1,8
 410 792 410 792 396 777 c 0,9,10
 373 752 373 752 321 752 c 0,11,12
 290 752 290 752 290 767 c 0,13,14
 290 770 290 770 292 775 c 128,-1,15
 294 780 294 780 299.5 790 c 128,-1,16
 305 800 305 800 312 810.5 c 128,-1,17
 319 821 319 821 331 842 c 128,-1,18
 343 863 343 863 355 884 c 0,19,20
 370 911 370 911 440 911 c 0,0,1
590 702 m 2,21,22
 650 702 650 702 650 670 c 2,23,-1
 650 30 l 2,24,25
 650 -2 650 -2 590 -2 c 2,26,-1
 552 -2 l 2,27,28
 504 -2 504 -2 486 25 c 2,29,-1
 218 435 l 1,30,-1
 218 30 l 2,31,32
 218 -2 218 -2 158 -2 c 2,33,-1
 129 -2 l 2,34,35
 69 -2 69 -2 69 30 c 2,36,-1
 69 670 l 2,37,38
 69 702 69 702 129 702 c 2,39,-1
 172 702 l 2,40,41
 220 702 220 702 238 675 c 2,42,-1
 474 311 l 1,43,-1
 501 270 l 1,44,-1
 501 670 l 2,45,46
 501 702 501 702 561 702 c 2,47,-1
 590 702 l 2,21,22
EndSplineSet
Validated: 1
Substitution2: "'locl' Localized Forms in Latin lookup 12 subtable" Nacute.loclPLK
Substitution2: "'aalt' Access All Alternates lookup 0 subtable" Nacute.loclPLK
Position2: "'cpsp' Capital Spacing lookup 3 subtable" dx=5 dy=0 dh=10 dv=0
EndChar

StartChar: Ncaron
Encoding: 327 327 99
Width: 719
Flags: MW
HStem: -2 21G<108 129 129 158 537.5 552 552 590> 682 20G<129 172 172 186.5 561 590 590 611> 749 146<243 355 243 366>
VStem: 69 149<30 435> 501 149<270 670>
LayerCount: 2
UndoRedoHistory
Layer: 1
Undoes
EndUndoes
Redoes
EndRedoes
EndUndoRedoHistory
Fore
SplineSet
478 895 m 2,0,1
 498 895 498 895 498 885 c 0,2,3
 498 879 498 879 492 870 c 2,4,-1
 427 768 l 2,5,6
 415 749 415 749 366 749 c 2,7,-1
 355 749 l 2,8,9
 306 749 306 749 294 768 c 2,10,-1
 229 870 l 2,11,12
 223 879 223 879 223 885 c 0,13,14
 223 895 223 895 243 895 c 2,15,-1
 265 895 l 2,16,17
 314 895 314 895 332 870 c 2,18,-1
 360 831 l 1,19,-1
 388 871 l 2,20,21
 404 895 404 895 456 895 c 2,22,-1
 478 895 l 2,0,1
590 702 m 2,23,24
 650 702 650 702 650 670 c 2,25,-1
 650 30 l 2,26,27
 650 -2 650 -2 590 -2 c 2,28,-1
 552 -2 l 2,29,30
 504 -2 504 -2 486 25 c 2,31,-1
 218 435 l 1,32,-1
 218 30 l 2,33,34
 218 -2 218 -2 158 -2 c 2,35,-1
 129 -2 l 2,36,37
 69 -2 69 -2 69 30 c 2,38,-1
 69 670 l 2,39,40
 69 702 69 702 129 702 c 2,41,-1
 172 702 l 2,42,43
 220 702 220 702 238 675 c 2,44,-1
 474 311 l 1,45,-1
 501 270 l 1,46,-1
 501 670 l 2,47,48
 501 702 501 702 561 702 c 2,49,-1
 590 702 l 2,23,24
EndSplineSet
Validated: 1
Position2: "'cpsp' Capital Spacing lookup 3 subtable" dx=5 dy=0 dh=10 dv=0
EndChar

StartChar: Ncommaaccent
Encoding: 325 325 100
Width: 719
Flags: MW
HStem: -240 21G<305 331.5> -2 21G<108 129 129 158 537.5 552 552 590> 682 20G<129 172 172 186.5 561 590 590 611>
VStem: 69 149<30 435> 293 129<-128.5 -82.5 -128.5 -81.5> 501 149<270 670>
LayerCount: 2
UndoRedoHistory
Layer: 1
Undoes
EndUndoes
Redoes
EndRedoes
EndUndoRedoHistory
Fore
SplineSet
590 702 m 2,0,1
 650 702 650 702 650 670 c 2,2,-1
 650 30 l 2,3,4
 650 -2 650 -2 590 -2 c 2,5,-1
 552 -2 l 2,6,7
 504 -2 504 -2 486 25 c 2,8,-1
 218 435 l 1,9,-1
 218 30 l 2,10,11
 218 -2 218 -2 158 -2 c 2,12,-1
 129 -2 l 2,13,14
 69 -2 69 -2 69 30 c 2,15,-1
 69 670 l 2,16,17
 69 702 69 702 129 702 c 2,18,-1
 172 702 l 2,19,20
 220 702 220 702 238 675 c 2,21,-1
 474 311 l 1,22,-1
 501 270 l 1,23,-1
 501 670 l 2,24,25
 501 702 501 702 561 702 c 2,26,-1
 590 702 l 2,0,1
372 -51 m 2,27,28
 422 -51 422 -51 422 -95 c 0,29,30
 422 -142 422 -142 382.5 -191 c 128,-1,31
 343 -240 343 -240 314 -240 c 0,32,33
 298 -240 298 -240 283.5 -234.5 c 128,-1,34
 269 -229 269 -229 269 -218 c 0,35,36
 269 -217 269 -217 281 -180 c 128,-1,37
 293 -143 293 -143 293 -95 c 0,38,39
 293 -51 293 -51 353 -51 c 2,40,-1
 372 -51 l 2,27,28
EndSplineSet
Validated: 1
Position2: "'cpsp' Capital Spacing lookup 3 subtable" dx=5 dy=0 dh=10 dv=0
EndChar

StartChar: Ndotaccent
Encoding: 7748 7748 101
Width: 719
Flags: MW
HStem: -2 21G<108 129 129 158 537.5 552 552 590> 682 20G<129 172 172 186.5 561 590 590 611> 755 124<339 381>
VStem: 69 149<30 435> 300 120<787 847 776.5 857.5> 501 149<270 670>
LayerCount: 2
UndoRedoHistory
Layer: 1
Undoes
EndUndoes
Redoes
EndRedoes
EndUndoRedoHistory
Fore
SplineSet
300 847 m 2,0,1
 300 879 300 879 360 879 c 128,-1,2
 420 879 420 879 420 847 c 2,3,-1
 420 787 l 2,4,5
 420 755 420 755 360 755 c 128,-1,6
 300 755 300 755 300 787 c 2,7,-1
 300 847 l 2,0,1
590 702 m 2,8,9
 650 702 650 702 650 670 c 2,10,-1
 650 30 l 2,11,12
 650 -2 650 -2 590 -2 c 2,13,-1
 552 -2 l 2,14,15
 504 -2 504 -2 486 25 c 2,16,-1
 218 435 l 1,17,-1
 218 30 l 2,18,19
 218 -2 218 -2 158 -2 c 2,20,-1
 129 -2 l 2,21,22
 69 -2 69 -2 69 30 c 2,23,-1
 69 670 l 2,24,25
 69 702 69 702 129 702 c 2,26,-1
 172 702 l 2,27,28
 220 702 220 702 238 675 c 2,29,-1
 474 311 l 1,30,-1
 501 270 l 1,31,-1
 501 670 l 2,32,33
 501 702 501 702 561 702 c 2,34,-1
 590 702 l 2,8,9
EndSplineSet
Validated: 1
Position2: "'cpsp' Capital Spacing lookup 3 subtable" dx=5 dy=0 dh=10 dv=0
EndChar

StartChar: Eng
Encoding: 330 330 102
Width: 719
Flags: MW
HStem: -212 117<464.5 479 460.5 545.5> -2 21G<108 129 129 158> 682 20G<129 172 172 186.5 561 590 590 611>
VStem: 69 149<30 435> 501 149<270 670>
LayerCount: 2
UndoRedoHistory
Layer: 1
Undoes
EndUndoes
Redoes
EndRedoes
EndUndoRedoHistory
Fore
SplineSet
590 702 m 2,0,1
 650 702 650 702 650 670 c 2,2,-1
 650 -50 l 2,3,4
 650 -129 650 -129 609.5 -170.5 c 128,-1,5
 569 -212 569 -212 504 -212 c 0,6,7
 445 -212 445 -212 422.5 -200.5 c 128,-1,8
 400 -189 400 -189 400 -160 c 0,9,10
 400 -140 400 -140 411 -115.5 c 128,-1,11
 422 -91 422 -91 436 -91 c 0,12,13
 438 -91 438 -91 449 -93 c 128,-1,14
 460 -95 460 -95 466 -95 c 0,15,16
 502 -95 502 -95 502 -52 c 2,17,-1
 502 1 l 1,18,-1
 243 396 l 1,19,-1
 218 435 l 1,20,-1
 218 30 l 2,21,22
 218 -2 218 -2 158 -2 c 2,23,-1
 129 -2 l 2,24,25
 69 -2 69 -2 69 30 c 2,26,-1
 69 670 l 2,27,28
 69 702 69 702 129 702 c 2,29,-1
 172 702 l 2,30,31
 220 702 220 702 238 675 c 2,32,-1
 501 270 l 1,33,-1
 501 670 l 2,34,35
 501 702 501 702 561 702 c 2,36,-1
 590 702 l 2,0,1
EndSplineSet
Validated: 1
Position2: "'cpsp' Capital Spacing lookup 3 subtable" dx=5 dy=0 dh=10 dv=0
EndChar

StartChar: Nj
Encoding: 459 459 103
Width: 995
Flags: MW
HStem: -212 117<751.5 766 747.5 832.5> -2 21G<108 129 129 158 537.5 552 552 590> 609 145<828 877 849 877> 682 20G<129 172 172 186.5 561 590 590 611>
VStem: 69 149<30 435> 501 149<270 670> 789 148<-52 -50 -50 493 641 722>
LayerCount: 2
UndoRedoHistory
Layer: 1
Undoes
EndUndoes
Redoes
EndRedoes
EndUndoRedoHistory
Fore
SplineSet
877 754 m 2,0,1
 937 754 937 754 937 722 c 2,2,-1
 937 641 l 2,3,4
 937 609 937 609 877 609 c 2,5,-1
 849 609 l 2,6,7
 789 609 789 609 789 641 c 2,8,-1
 789 722 l 2,9,10
 789 754 789 754 849 754 c 2,11,-1
 877 754 l 2,0,1
590 702 m 2,12,13
 650 702 650 702 650 670 c 2,14,-1
 650 30 l 2,15,16
 650 -2 650 -2 590 -2 c 2,17,-1
 552 -2 l 2,18,19
 504 -2 504 -2 486 25 c 2,20,-1
 218 435 l 1,21,-1
 218 30 l 2,22,23
 218 -2 218 -2 158 -2 c 2,24,-1
 129 -2 l 2,25,26
 69 -2 69 -2 69 30 c 2,27,-1
 69 670 l 2,28,29
 69 702 69 702 129 702 c 2,30,-1
 172 702 l 2,31,32
 220 702 220 702 238 675 c 2,33,-1
 474 311 l 1,34,-1
 501 270 l 1,35,-1
 501 670 l 2,36,37
 501 702 501 702 561 702 c 2,38,-1
 590 702 l 2,12,13
877 525 m 2,39,40
 937 525 937 525 937 493 c 2,41,-1
 937 -50 l 2,42,43
 937 -129 937 -129 896.5 -170.5 c 128,-1,44
 856 -212 856 -212 791 -212 c 0,45,46
 732 -212 732 -212 709.5 -200.5 c 128,-1,47
 687 -189 687 -189 687 -160 c 0,48,49
 687 -140 687 -140 698 -115.5 c 128,-1,50
 709 -91 709 -91 723 -91 c 0,51,52
 725 -91 725 -91 736 -93 c 128,-1,53
 747 -95 747 -95 753 -95 c 0,54,55
 789 -95 789 -95 789 -52 c 2,56,-1
 789 493 l 2,57,58
 789 525 789 525 849 525 c 2,59,-1
 877 525 l 2,39,40
EndSplineSet
Validated: 1
Position2: "'cpsp' Capital Spacing lookup 3 subtable" dx=5 dy=0 dh=10 dv=0
EndChar

StartChar: Ntilde
Encoding: 209 209 104
Width: 719
Flags: MW
HStem: -2 21G<108 129 129 158 537.5 552 552 590> 682 20G<129 172 172 186.5 561 590 590 611> 757 86<415.5 429.5> 784 86<281.5 297>
VStem: 69 149<30 435> 501 149<270 670>
LayerCount: 2
UndoRedoHistory
Layer: 1
Undoes
EndUndoes
Redoes
EndRedoes
EndUndoRedoHistory
Fore
SplineSet
479 858 m 0,0,1
 488 864 488 864 498 864 c 0,2,3
 512 864 512 864 523 852 c 0,4,5
 532 842 532 842 532 832 c 0,6,7
 532 818 532 818 515 798 c 1,8,9
 474 757 474 757 409 757 c 0,10,11
 375 757 375 757 337 773 c 0,12,13
 311 784 311 784 286 784 c 0,14,15
 264 784 264 784 236 770 c 0,16,17
 230 767 230 767 224 767 c 0,18,19
 208 767 208 767 194 784 c 0,20,21
 187 792 187 792 187 803 c 0,22,23
 187 817 187 817 199 829 c 1,24,25
 251 870 251 870 302 870 c 0,26,27
 337 870 337 870 380 854 c 1,28,29
 406 843 406 843 425 843 c 0,30,31
 453 843 453 843 479 858 c 0,0,1
590 702 m 2,32,33
 650 702 650 702 650 670 c 2,34,-1
 650 30 l 2,35,36
 650 -2 650 -2 590 -2 c 2,37,-1
 552 -2 l 2,38,39
 504 -2 504 -2 486 25 c 2,40,-1
 218 435 l 1,41,-1
 218 30 l 2,42,43
 218 -2 218 -2 158 -2 c 2,44,-1
 129 -2 l 2,45,46
 69 -2 69 -2 69 30 c 2,47,-1
 69 670 l 2,48,49
 69 702 69 702 129 702 c 2,50,-1
 172 702 l 2,51,52
 220 702 220 702 238 675 c 2,53,-1
 474 311 l 1,54,-1
 501 270 l 1,55,-1
 501 670 l 2,56,57
 501 702 501 702 561 702 c 2,58,-1
 590 702 l 2,32,33
EndSplineSet
Validated: 1
Position2: "'cpsp' Capital Spacing lookup 3 subtable" dx=5 dy=0 dh=10 dv=0
EndChar

StartChar: O
Encoding: 79 79 105
Width: 731
Flags: MW
HStem: -8 131<312.5 419.5 312.5 469> 576 132<312.5 419.5>
VStem: 45 158<276.5 423.5 276.5 465.5> 528 158<276.5 423.5>
LayerCount: 2
UndoRedoHistory
Layer: 1
Undoes
EndUndoes
Redoes
EndRedoes
EndUndoRedoHistory
Fore
SplineSet
366 708 m 128,-1,1
 521 708 521 708 603.5 615.5 c 128,-1,2
 686 523 686 523 686 350 c 128,-1,3
 686 177 686 177 603.5 84.5 c 128,-1,4
 521 -8 521 -8 366 -8 c 128,-1,5
 211 -8 211 -8 128 84.5 c 128,-1,6
 45 177 45 177 45 350 c 128,-1,7
 45 523 45 523 128 615.5 c 128,-1,0
 211 708 211 708 366 708 c 128,-1,1
366 576 m 128,-1,9
 286 576 286 576 244.5 518.5 c 128,-1,10
 203 461 203 461 203 350 c 128,-1,11
 203 239 203 239 244.5 181 c 128,-1,12
 286 123 286 123 366 123 c 128,-1,13
 446 123 446 123 487 181 c 128,-1,14
 528 239 528 239 528 350 c 128,-1,15
 528 461 528 461 487 518.5 c 128,-1,8
 446 576 446 576 366 576 c 128,-1,9
EndSplineSet
Validated: 1
Substitution2: "Single Substitution lookup 21 subtable" ordmasculine
Substitution2: "'aalt' Access All Alternates lookup 0 subtable" ordmasculine
Position2: "'cpsp' Capital Spacing lookup 3 subtable" dx=5 dy=0 dh=10 dv=0
EndChar

StartChar: Oacute
Encoding: 211 211 106
Width: 731
Flags: MW
HStem: -8 131<312.5 419.5 312.5 469> 576 132<312.5 419.5> 752 159<315 466>
VStem: 45 158<276.5 423.5 276.5 465.5> 528 158<276.5 423.5>
LayerCount: 2
UndoRedoHistory
Layer: 1
Undoes
EndUndoes
Redoes
EndRedoes
EndUndoRedoHistory
Fore
SplineSet
446 911 m 0,0,1
 506 911 506 911 506 897 c 0,2,3
 506 891 506 891 500 883 c 128,-1,4
 494 875 494 875 469 849 c 0,5,6
 458 838 458 838 451 830.5 c 128,-1,7
 444 823 444 823 430 807.5 c 128,-1,8
 416 792 416 792 402 777 c 0,9,10
 379 752 379 752 327 752 c 0,11,12
 296 752 296 752 296 767 c 0,13,14
 296 770 296 770 298 775 c 128,-1,15
 300 780 300 780 305.5 790 c 128,-1,16
 311 800 311 800 318 810.5 c 128,-1,17
 325 821 325 821 337 842 c 128,-1,18
 349 863 349 863 361 884 c 0,19,20
 376 911 376 911 446 911 c 0,0,1
366 708 m 128,-1,22
 521 708 521 708 603.5 615.5 c 128,-1,23
 686 523 686 523 686 350 c 128,-1,24
 686 177 686 177 603.5 84.5 c 128,-1,25
 521 -8 521 -8 366 -8 c 128,-1,26
 211 -8 211 -8 128 84.5 c 128,-1,27
 45 177 45 177 45 350 c 128,-1,28
 45 523 45 523 128 615.5 c 128,-1,21
 211 708 211 708 366 708 c 128,-1,22
366 576 m 128,-1,30
 286 576 286 576 244.5 518.5 c 128,-1,31
 203 461 203 461 203 350 c 128,-1,32
 203 239 203 239 244.5 181 c 128,-1,33
 286 123 286 123 366 123 c 128,-1,34
 446 123 446 123 487 181 c 128,-1,35
 528 239 528 239 528 350 c 128,-1,36
 528 461 528 461 487 518.5 c 128,-1,29
 446 576 446 576 366 576 c 128,-1,30
EndSplineSet
Validated: 1
Substitution2: "'locl' Localized Forms in Latin lookup 12 subtable" Oacute.loclPLK
Substitution2: "'aalt' Access All Alternates lookup 0 subtable" Oacute.loclPLK
Position2: "'cpsp' Capital Spacing lookup 3 subtable" dx=5 dy=0 dh=10 dv=0
EndChar

StartChar: Obreve
Encoding: 334 334 107
Width: 731
Flags: MW
HStem: -8 131<312.5 419.5 312.5 469> 576 132<312.5 419.5> 752 91<340.5 393 340.5 409.5>
VStem: 45 158<276.5 423.5 276.5 465.5> 528 158<276.5 423.5>
LayerCount: 2
UndoRedoHistory
Layer: 1
Undoes
EndUndoes
Redoes
EndRedoes
EndUndoRedoHistory
Fore
SplineSet
478 892 m 0,0,1
 513 892 513 892 513 864 c 0,2,3
 513 820 513 820 471 786 c 128,-1,4
 429 752 429 752 366 752 c 128,-1,5
 303 752 303 752 261 786 c 128,-1,6
 219 820 219 820 219 864 c 0,7,8
 219 892 219 892 254 892 c 0,9,10
 271 892 271 892 287 874 c 0,11,12
 296 864 296 864 302 859 c 128,-1,13
 308 854 308 854 325 848.5 c 128,-1,14
 342 843 342 843 366 843 c 0,15,16
 391 843 391 843 409 849.5 c 128,-1,17
 427 856 427 856 432 860.5 c 128,-1,18
 437 865 437 865 447 876 c 0,19,20
 461 892 461 892 478 892 c 0,0,1
366 708 m 128,-1,22
 521 708 521 708 603.5 615.5 c 128,-1,23
 686 523 686 523 686 350 c 128,-1,24
 686 177 686 177 603.5 84.5 c 128,-1,25
 521 -8 521 -8 366 -8 c 128,-1,26
 211 -8 211 -8 128 84.5 c 128,-1,27
 45 177 45 177 45 350 c 128,-1,28
 45 523 45 523 128 615.5 c 128,-1,21
 211 708 211 708 366 708 c 128,-1,22
366 576 m 128,-1,30
 286 576 286 576 244.5 518.5 c 128,-1,31
 203 461 203 461 203 350 c 128,-1,32
 203 239 203 239 244.5 181 c 128,-1,33
 286 123 286 123 366 123 c 128,-1,34
 446 123 446 123 487 181 c 128,-1,35
 528 239 528 239 528 350 c 128,-1,36
 528 461 528 461 487 518.5 c 128,-1,29
 446 576 446 576 366 576 c 128,-1,30
EndSplineSet
Validated: 1
Position2: "'cpsp' Capital Spacing lookup 3 subtable" dx=5 dy=0 dh=10 dv=0
EndChar

StartChar: Ocircumflex
Encoding: 212 212 108
Width: 731
Flags: MW
HStem: -8 131<312.5 419.5 312.5 469> 576 132<312.5 419.5> 749 146<242 372 249 372 361 462 361 484>
VStem: 45 158<276.5 423.5 276.5 465.5> 528 158<276.5 423.5>
LayerCount: 2
UndoRedoHistory
Layer: 1
Undoes
EndUndoes
Redoes
EndRedoes
EndUndoRedoHistory
Fore
SplineSet
372 895 m 2,0,1
 421 895 421 895 433 876 c 2,2,-1
 498 774 l 2,3,4
 504 765 504 765 504 759 c 0,5,6
 504 749 504 749 484 749 c 2,7,-1
 462 749 l 2,8,9
 410 749 410 749 394 773 c 2,10,-1
 366 813 l 1,11,-1
 338 774 l 2,12,13
 320 749 320 749 271 749 c 2,14,-1
 249 749 l 2,15,16
 229 749 229 749 229 759 c 0,17,18
 229 765 229 765 235 774 c 2,19,-1
 300 876 l 2,20,21
 312 895 312 895 361 895 c 2,22,-1
 372 895 l 2,0,1
366 708 m 128,-1,24
 521 708 521 708 603.5 615.5 c 128,-1,25
 686 523 686 523 686 350 c 128,-1,26
 686 177 686 177 603.5 84.5 c 128,-1,27
 521 -8 521 -8 366 -8 c 128,-1,28
 211 -8 211 -8 128 84.5 c 128,-1,29
 45 177 45 177 45 350 c 128,-1,30
 45 523 45 523 128 615.5 c 128,-1,23
 211 708 211 708 366 708 c 128,-1,24
366 576 m 128,-1,32
 286 576 286 576 244.5 518.5 c 128,-1,33
 203 461 203 461 203 350 c 128,-1,34
 203 239 203 239 244.5 181 c 128,-1,35
 286 123 286 123 366 123 c 128,-1,36
 446 123 446 123 487 181 c 128,-1,37
 528 239 528 239 528 350 c 128,-1,38
 528 461 528 461 487 518.5 c 128,-1,31
 446 576 446 576 366 576 c 128,-1,32
EndSplineSet
Validated: 1
Position2: "'cpsp' Capital Spacing lookup 3 subtable" dx=5 dy=0 dh=10 dv=0
EndChar

StartChar: Ocircumflexacute
Encoding: 7888 7888 109
Width: 731
Flags: MW
HStem: -8 131<312.5 419.5 312.5 469> 576 132<312.5 419.5> 840 55
VStem: 45 158<276.5 423.5 276.5 465.5> 528 158<276.5 423.5>
LayerCount: 2
UndoRedoHistory
Layer: 1
Undoes
EndUndoes
Redoes
EndRedoes
EndUndoRedoHistory
Fore
SplineSet
569 964 m 0,0,1
 609 964 609 964 609 940 c 0,2,3
 609 933 609 933 596.5 916 c 128,-1,4
 584 899 584 899 535 840 c 1,5,6
 520 825 520 825 480 825 c 0,7,8
 459 825 459 825 459 840 c 0,9,10
 459 843 459 843 494 937 c 1,11,12
 508 964 508 964 569 964 c 0,0,1
372 895 m 2,13,14
 412 895 412 895 423 876 c 2,15,-1
 483 774 l 2,16,17
 489 765 489 765 489 759 c 0,18,19
 489 749 489 749 469 749 c 2,20,-1
 447 749 l 2,21,22
 387 749 387 749 379 773 c 2,23,-1
 366 813 l 1,24,-1
 338 774 l 2,25,26
 320 749 320 749 271 749 c 2,27,-1
 249 749 l 2,28,29
 229 749 229 749 229 759 c 0,30,31
 229 765 229 765 235 774 c 2,32,-1
 300 876 l 2,33,34
 312 895 312 895 361 895 c 2,35,-1
 372 895 l 2,13,14
366 708 m 128,-1,37
 521 708 521 708 603.5 615.5 c 128,-1,38
 686 523 686 523 686 350 c 128,-1,39
 686 177 686 177 603.5 84.5 c 128,-1,40
 521 -8 521 -8 366 -8 c 128,-1,41
 211 -8 211 -8 128 84.5 c 128,-1,42
 45 177 45 177 45 350 c 128,-1,43
 45 523 45 523 128 615.5 c 128,-1,36
 211 708 211 708 366 708 c 128,-1,37
366 576 m 128,-1,45
 286 576 286 576 244.5 518.5 c 128,-1,46
 203 461 203 461 203 350 c 128,-1,47
 203 239 203 239 244.5 181 c 128,-1,48
 286 123 286 123 366 123 c 128,-1,49
 446 123 446 123 487 181 c 128,-1,50
 528 239 528 239 528 350 c 128,-1,51
 528 461 528 461 487 518.5 c 128,-1,44
 446 576 446 576 366 576 c 128,-1,45
EndSplineSet
Validated: 1
Position2: "'cpsp' Capital Spacing lookup 3 subtable" dx=5 dy=0 dh=10 dv=0
EndChar

StartChar: Ocircumflexdotbelow
Encoding: 7896 7896 110
Width: 731
Flags: MW
HStem: -204 124<348 390> -8 131<312.5 419.5 312.5 469> 576 132<312.5 419.5> 749 146<242 372 249 372 361 462 361 484>
VStem: 45 158<276.5 423.5 276.5 465.5> 309 120<-172 -112 -182.5 -101.5> 528 158<276.5 423.5>
LayerCount: 2
UndoRedoHistory
Layer: 1
Undoes
EndUndoes
Redoes
EndRedoes
EndUndoRedoHistory
Fore
SplineSet
366 708 m 128,-1,1
 521 708 521 708 603.5 615.5 c 128,-1,2
 686 523 686 523 686 350 c 128,-1,3
 686 177 686 177 603.5 84.5 c 128,-1,4
 521 -8 521 -8 366 -8 c 128,-1,5
 211 -8 211 -8 128 84.5 c 128,-1,6
 45 177 45 177 45 350 c 128,-1,7
 45 523 45 523 128 615.5 c 128,-1,0
 211 708 211 708 366 708 c 128,-1,1
366 576 m 128,-1,9
 286 576 286 576 244.5 518.5 c 128,-1,10
 203 461 203 461 203 350 c 128,-1,11
 203 239 203 239 244.5 181 c 128,-1,12
 286 123 286 123 366 123 c 128,-1,13
 446 123 446 123 487 181 c 128,-1,14
 528 239 528 239 528 350 c 128,-1,15
 528 461 528 461 487 518.5 c 128,-1,8
 446 576 446 576 366 576 c 128,-1,9
372 895 m 2,16,17
 421 895 421 895 433 876 c 2,18,-1
 498 774 l 2,19,20
 504 765 504 765 504 759 c 0,21,22
 504 749 504 749 484 749 c 2,23,-1
 462 749 l 2,24,25
 410 749 410 749 394 773 c 2,26,-1
 366 813 l 1,27,-1
 338 774 l 2,28,29
 320 749 320 749 271 749 c 2,30,-1
 249 749 l 2,31,32
 229 749 229 749 229 759 c 0,33,34
 229 765 229 765 235 774 c 2,35,-1
 300 876 l 2,36,37
 312 895 312 895 361 895 c 2,38,-1
 372 895 l 2,16,17
309 -112 m 2,39,40
 309 -80 309 -80 369 -80 c 128,-1,41
 429 -80 429 -80 429 -112 c 2,42,-1
 429 -172 l 2,43,44
 429 -204 429 -204 369 -204 c 128,-1,45
 309 -204 309 -204 309 -172 c 2,46,-1
 309 -112 l 2,39,40
EndSplineSet
Validated: 1
Position2: "'cpsp' Capital Spacing lookup 3 subtable" dx=5 dy=0 dh=10 dv=0
EndChar

StartChar: Ocircumflexgrave
Encoding: 7890 7890 111
Width: 731
Flags: MW
HStem: -8 131<312.5 419.5 312.5 469> 576 132<312.5 419.5> 749 146<242 372 249 372 361 447 361 469> 824 139<418 532>
VStem: 45 158<276.5 423.5 276.5 465.5> 528 158<276.5 423.5>
LayerCount: 2
UndoRedoHistory
Layer: 1
Undoes
EndUndoes
Redoes
EndRedoes
EndUndoRedoHistory
Fore
SplineSet
366 708 m 128,-1,1
 521 708 521 708 603.5 615.5 c 128,-1,2
 686 523 686 523 686 350 c 128,-1,3
 686 177 686 177 603.5 84.5 c 128,-1,4
 521 -8 521 -8 366 -8 c 128,-1,5
 211 -8 211 -8 128 84.5 c 128,-1,6
 45 177 45 177 45 350 c 128,-1,7
 45 523 45 523 128 615.5 c 128,-1,0
 211 708 211 708 366 708 c 128,-1,1
366 576 m 128,-1,9
 286 576 286 576 244.5 518.5 c 128,-1,10
 203 461 203 461 203 350 c 128,-1,11
 203 239 203 239 244.5 181 c 128,-1,12
 286 123 286 123 366 123 c 128,-1,13
 446 123 446 123 487 181 c 128,-1,14
 528 239 528 239 528 350 c 128,-1,15
 528 461 528 461 487 518.5 c 128,-1,8
 446 576 446 576 366 576 c 128,-1,9
433 963 m 0,16,17
 506 963 506 963 518 936 c 1,18,19
 551 854 551 854 551 839 c 128,-1,20
 551 824 551 824 520 824 c 0,21,22
 479 824 479 824 458 849 c 1,23,24
 442 870 442 870 420 898 c 0,25,26
 396 929 396 929 391 936 c 128,-1,27
 386 943 386 943 386 949 c 0,28,29
 386 963 386 963 433 963 c 0,16,17
372 895 m 2,30,31
 412 895 412 895 423 876 c 2,32,-1
 483 774 l 2,33,34
 489 765 489 765 489 759 c 0,35,36
 489 749 489 749 469 749 c 2,37,-1
 447 749 l 2,38,39
 387 749 387 749 379 773 c 2,40,-1
 366 813 l 1,41,-1
 338 774 l 2,42,43
 320 749 320 749 271 749 c 2,44,-1
 249 749 l 2,45,46
 229 749 229 749 229 759 c 0,47,48
 229 765 229 765 235 774 c 2,49,-1
 300 876 l 2,50,51
 312 895 312 895 361 895 c 2,52,-1
 372 895 l 2,30,31
EndSplineSet
Validated: 1
Position2: "'cpsp' Capital Spacing lookup 3 subtable" dx=5 dy=0 dh=10 dv=0
EndChar

StartChar: Ocircumflexhookabove
Encoding: 7892 7892 112
Width: 731
Flags: MW
HStem: -8 131<312.5 419.5 312.5 469> 576 132<312.5 419.5> 749 146<242 372 249 372 432.5 440.5 361 447 361 469> 895 70<432 515>
VStem: 45 158<276.5 423.5 276.5 465.5> 510 69<891 900.5> 528 158<276.5 423.5>
LayerCount: 2
UndoRedoHistory
Layer: 1
Undoes
EndUndoes
Redoes
EndRedoes
EndUndoRedoHistory
Fore
SplineSet
366 708 m 128,-1,1
 521 708 521 708 603.5 615.5 c 128,-1,2
 686 523 686 523 686 350 c 128,-1,3
 686 177 686 177 603.5 84.5 c 128,-1,4
 521 -8 521 -8 366 -8 c 128,-1,5
 211 -8 211 -8 128 84.5 c 128,-1,6
 45 177 45 177 45 350 c 128,-1,7
 45 523 45 523 128 615.5 c 128,-1,0
 211 708 211 708 366 708 c 128,-1,1
366 576 m 128,-1,9
 286 576 286 576 244.5 518.5 c 128,-1,10
 203 461 203 461 203 350 c 128,-1,11
 203 239 203 239 244.5 181 c 128,-1,12
 286 123 286 123 366 123 c 128,-1,13
 446 123 446 123 487 181 c 128,-1,14
 528 239 528 239 528 350 c 128,-1,15
 528 461 528 461 487 518.5 c 128,-1,8
 446 576 446 576 366 576 c 128,-1,9
510 895 m 0,16,17
 510 912 510 912 489 912 c 0,18,19
 470 912 470 912 454 903.5 c 128,-1,20
 438 895 438 895 436 895 c 0,21,22
 430 895 430 895 418 910.5 c 128,-1,23
 406 926 406 926 406 937 c 0,24,25
 406 947 406 947 432.5 956 c 128,-1,26
 459 965 459 965 486 965 c 0,27,28
 529 965 529 965 554 947 c 128,-1,29
 579 929 579 929 579 899 c 0,30,31
 579 873 579 873 553 852 c 0,32,33
 526 830 526 830 504 830 c 0,34,35
 484 830 484 830 472 836 c 128,-1,36
 460 842 460 842 460 851 c 0,37,38
 460 858 460 858 479 867 c 0,39,40
 489 872 489 872 492.5 873.5 c 128,-1,41
 496 875 496 875 501.5 879 c 128,-1,42
 507 883 507 883 508.5 886.5 c 128,-1,43
 510 890 510 890 510 895 c 0,16,17
372 895 m 2,44,45
 412 895 412 895 423 876 c 2,46,-1
 483 774 l 2,47,48
 489 765 489 765 489 759 c 0,49,50
 489 749 489 749 469 749 c 2,51,-1
 447 749 l 2,52,53
 387 749 387 749 379 773 c 2,54,-1
 366 813 l 1,55,-1
 338 774 l 2,56,57
 320 749 320 749 271 749 c 2,58,-1
 249 749 l 2,59,60
 229 749 229 749 229 759 c 0,61,62
 229 765 229 765 235 774 c 2,63,-1
 300 876 l 2,64,65
 312 895 312 895 361 895 c 2,66,-1
 372 895 l 2,44,45
EndSplineSet
Validated: 1
Position2: "'cpsp' Capital Spacing lookup 3 subtable" dx=5 dy=0 dh=10 dv=0
EndChar

StartChar: Ocircumflextilde
Encoding: 7894 7894 113
Width: 731
Flags: MW
HStem: -8 131<312.5 419.5 312.5 469> 576 132<312.5 419.5> 749 122<242 372 249 372 361 462 361 484> 902 86<421.5 434.5> 929 86<299.5 314>
VStem: 45 158<276.5 423.5 276.5 465.5> 528 158<276.5 423.5>
LayerCount: 2
UndoRedoHistory
Layer: 1
Undoes
EndUndoes
Redoes
EndRedoes
EndUndoRedoHistory
Fore
SplineSet
366 708 m 128,-1,1
 521 708 521 708 603.5 615.5 c 128,-1,2
 686 523 686 523 686 350 c 128,-1,3
 686 177 686 177 603.5 84.5 c 128,-1,4
 521 -8 521 -8 366 -8 c 128,-1,5
 211 -8 211 -8 128 84.5 c 128,-1,6
 45 177 45 177 45 350 c 128,-1,7
 45 523 45 523 128 615.5 c 128,-1,0
 211 708 211 708 366 708 c 128,-1,1
366 576 m 128,-1,9
 286 576 286 576 244.5 518.5 c 128,-1,10
 203 461 203 461 203 350 c 128,-1,11
 203 239 203 239 244.5 181 c 128,-1,12
 286 123 286 123 366 123 c 128,-1,13
 446 123 446 123 487 181 c 128,-1,14
 528 239 528 239 528 350 c 128,-1,15
 528 461 528 461 487 518.5 c 128,-1,8
 446 576 446 576 366 576 c 128,-1,9
479 1003 m 0,16,17
 487 1009 487 1009 497 1009 c 0,18,19
 510 1009 510 1009 519 997 c 0,20,21
 527 986 527 986 527 977 c 0,22,23
 527 962 527 962 512 943 c 1,24,25
 474 902 474 902 416 902 c 0,26,27
 384 902 384 902 350 918 c 0,28,29
 326 929 326 929 304 929 c 0,30,31
 284 929 284 929 258 915 c 0,32,33
 254 912 254 912 247 912 c 0,34,35
 232 912 232 912 220 929 c 0,36,37
 214 938 214 938 214 948 c 0,38,39
 214 961 214 961 225 974 c 1,40,41
 271 1015 271 1015 318 1015 c 0,42,43
 350 1015 350 1015 389 999 c 1,44,45
 413 988 413 988 430 988 c 0,46,47
 456 988 456 988 479 1003 c 0,16,17
372 871 m 2,48,49
 415 871 415 871 433 852 c 1,50,-1
 498 774 l 1,51,52
 504 765 504 765 504 759 c 0,53,54
 504 749 504 749 484 749 c 2,55,-1
 462 749 l 2,56,57
 433 749 433 749 394 773 c 1,58,-1
 366 800 l 1,59,-1
 338 774 l 2,60,61
 336 773 336 773 327.5 767.5 c 128,-1,62
 319 762 319 762 316.5 761 c 128,-1,63
 314 760 314 760 307 756.5 c 128,-1,64
 300 753 300 753 295.5 752 c 128,-1,65
 291 751 291 751 284.5 750 c 128,-1,66
 278 749 278 749 271 749 c 2,67,-1
 249 749 l 2,68,69
 229 749 229 749 229 759 c 0,70,71
 229 765 229 765 235 774 c 1,72,-1
 300 852 l 1,73,74
 318 871 318 871 361 871 c 2,75,-1
 372 871 l 2,48,49
EndSplineSet
Validated: 1
Position2: "'cpsp' Capital Spacing lookup 3 subtable" dx=5 dy=0 dh=10 dv=0
EndChar

StartChar: Odieresis
Encoding: 214 214 114
Width: 731
Flags: MW
HStem: -8 131<312.5 419.5 312.5 469> 576 132<312.5 419.5> 755 124<255 297 435 477>
VStem: 45 158<276.5 423.5 276.5 465.5> 216 120<787 847 776.5 857.5> 396 120<787 847 776.5 857.5> 528 158<276.5 423.5>
LayerCount: 2
UndoRedoHistory
Layer: 1
Undoes
EndUndoes
Redoes
EndRedoes
EndUndoRedoHistory
Fore
SplineSet
366 708 m 128,-1,1
 521 708 521 708 603.5 615.5 c 128,-1,2
 686 523 686 523 686 350 c 128,-1,3
 686 177 686 177 603.5 84.5 c 128,-1,4
 521 -8 521 -8 366 -8 c 128,-1,5
 211 -8 211 -8 128 84.5 c 128,-1,6
 45 177 45 177 45 350 c 128,-1,7
 45 523 45 523 128 615.5 c 128,-1,0
 211 708 211 708 366 708 c 128,-1,1
366 576 m 128,-1,9
 286 576 286 576 244.5 518.5 c 128,-1,10
 203 461 203 461 203 350 c 128,-1,11
 203 239 203 239 244.5 181 c 128,-1,12
 286 123 286 123 366 123 c 128,-1,13
 446 123 446 123 487 181 c 128,-1,14
 528 239 528 239 528 350 c 128,-1,15
 528 461 528 461 487 518.5 c 128,-1,8
 446 576 446 576 366 576 c 128,-1,9
216 847 m 2,16,17
 216 879 216 879 276 879 c 128,-1,18
 336 879 336 879 336 847 c 2,19,-1
 336 787 l 2,20,21
 336 755 336 755 276 755 c 128,-1,22
 216 755 216 755 216 787 c 2,23,-1
 216 847 l 2,16,17
396 847 m 2,24,25
 396 879 396 879 456 879 c 128,-1,26
 516 879 516 879 516 847 c 2,27,-1
 516 787 l 2,28,29
 516 755 516 755 456 755 c 128,-1,30
 396 755 396 755 396 787 c 2,31,-1
 396 847 l 2,24,25
EndSplineSet
Validated: 1
Position2: "'cpsp' Capital Spacing lookup 3 subtable" dx=5 dy=0 dh=10 dv=0
EndChar

StartChar: Odotbelow
Encoding: 7884 7884 115
Width: 731
Flags: MW
HStem: -204 124<348 390> -8 131<312.5 419.5 312.5 469> 576 132<312.5 419.5>
VStem: 45 158<276.5 423.5 276.5 465.5> 309 120<-172 -112 -182.5 -101.5> 528 158<276.5 423.5>
LayerCount: 2
UndoRedoHistory
Layer: 1
Undoes
EndUndoes
Redoes
EndRedoes
EndUndoRedoHistory
Fore
SplineSet
366 708 m 128,-1,1
 521 708 521 708 603.5 615.5 c 128,-1,2
 686 523 686 523 686 350 c 128,-1,3
 686 177 686 177 603.5 84.5 c 128,-1,4
 521 -8 521 -8 366 -8 c 128,-1,5
 211 -8 211 -8 128 84.5 c 128,-1,6
 45 177 45 177 45 350 c 128,-1,7
 45 523 45 523 128 615.5 c 128,-1,0
 211 708 211 708 366 708 c 128,-1,1
366 576 m 128,-1,9
 286 576 286 576 244.5 518.5 c 128,-1,10
 203 461 203 461 203 350 c 128,-1,11
 203 239 203 239 244.5 181 c 128,-1,12
 286 123 286 123 366 123 c 128,-1,13
 446 123 446 123 487 181 c 128,-1,14
 528 239 528 239 528 350 c 128,-1,15
 528 461 528 461 487 518.5 c 128,-1,8
 446 576 446 576 366 576 c 128,-1,9
309 -112 m 2,16,17
 309 -80 309 -80 369 -80 c 128,-1,18
 429 -80 429 -80 429 -112 c 2,19,-1
 429 -172 l 2,20,21
 429 -204 429 -204 369 -204 c 128,-1,22
 309 -204 309 -204 309 -172 c 2,23,-1
 309 -112 l 2,16,17
EndSplineSet
Validated: 1
Position2: "'cpsp' Capital Spacing lookup 3 subtable" dx=5 dy=0 dh=10 dv=0
EndChar

StartChar: Ograve
Encoding: 210 210 116
Width: 731
Flags: MW
HStem: -8 131<312.5 419.5 312.5 469> 576 132<312.5 419.5> 752 159<272 423>
VStem: 45 158<276.5 423.5 276.5 465.5> 528 158<276.5 423.5>
LayerCount: 2
UndoRedoHistory
Layer: 1
Undoes
EndUndoes
Redoes
EndRedoes
EndUndoRedoHistory
Fore
SplineSet
292 911 m 0,0,1
 362 911 362 911 377 884 c 0,2,3
 389 863 389 863 401 842 c 128,-1,4
 413 821 413 821 420 810.5 c 128,-1,5
 427 800 427 800 432.5 790 c 128,-1,6
 438 780 438 780 440 775 c 128,-1,7
 442 770 442 770 442 767 c 0,8,9
 442 752 442 752 411 752 c 0,10,11
 359 752 359 752 336 777 c 0,12,13
 306 810 306 810 269 849 c 0,14,15
 243 877 243 877 237.5 884 c 128,-1,16
 232 891 232 891 232 897 c 0,17,18
 232 911 232 911 292 911 c 0,0,1
366 708 m 128,-1,20
 521 708 521 708 603.5 615.5 c 128,-1,21
 686 523 686 523 686 350 c 128,-1,22
 686 177 686 177 603.5 84.5 c 128,-1,23
 521 -8 521 -8 366 -8 c 128,-1,24
 211 -8 211 -8 128 84.5 c 128,-1,25
 45 177 45 177 45 350 c 128,-1,26
 45 523 45 523 128 615.5 c 128,-1,19
 211 708 211 708 366 708 c 128,-1,20
366 576 m 128,-1,28
 286 576 286 576 244.5 518.5 c 128,-1,29
 203 461 203 461 203 350 c 128,-1,30
 203 239 203 239 244.5 181 c 128,-1,31
 286 123 286 123 366 123 c 128,-1,32
 446 123 446 123 487 181 c 128,-1,33
 528 239 528 239 528 350 c 128,-1,34
 528 461 528 461 487 518.5 c 128,-1,27
 446 576 446 576 366 576 c 128,-1,28
EndSplineSet
Validated: 1
Position2: "'cpsp' Capital Spacing lookup 3 subtable" dx=5 dy=0 dh=10 dv=0
EndChar

StartChar: Ohookabove
Encoding: 7886 7886 117
Width: 731
Flags: MW
HStem: -8 131<312.5 419.5 312.5 469> 576 132<312.5 419.5> 867 61<361.5 379>
VStem: 45 158<276.5 423.5 276.5 465.5> 403 87<830 852> 528 158<276.5 423.5>
LayerCount: 2
UndoRedoHistory
Layer: 1
Undoes
EndUndoes
Redoes
EndRedoes
EndUndoRedoHistory
Fore
SplineSet
403 845 m 0,0,1
 403 855 403 855 393.5 861 c 128,-1,2
 384 867 384 867 371 867 c 128,-1,3
 358 867 358 867 345 861 c 128,-1,4
 332 855 332 855 329 855 c 0,5,6
 323 855 323 855 311 870.5 c 128,-1,7
 299 886 299 886 299 897 c 0,8,9
 299 907 299 907 326 917.5 c 128,-1,10
 353 928 353 928 379 928 c 0,11,12
 432 928 432 928 461 907 c 128,-1,13
 490 886 490 886 490 849 c 0,14,15
 490 814 490 814 449.5 780.5 c 128,-1,16
 409 747 409 747 390 747 c 0,17,18
 373 747 373 747 354.5 755.5 c 128,-1,19
 336 764 336 764 336 770 c 0,20,21
 336 777 336 777 369.5 802.5 c 128,-1,22
 403 828 403 828 403 845 c 0,0,1
366 708 m 128,-1,24
 521 708 521 708 603.5 615.5 c 128,-1,25
 686 523 686 523 686 350 c 128,-1,26
 686 177 686 177 603.5 84.5 c 128,-1,27
 521 -8 521 -8 366 -8 c 128,-1,28
 211 -8 211 -8 128 84.5 c 128,-1,29
 45 177 45 177 45 350 c 128,-1,30
 45 523 45 523 128 615.5 c 128,-1,23
 211 708 211 708 366 708 c 128,-1,24
366 576 m 128,-1,32
 286 576 286 576 244.5 518.5 c 128,-1,33
 203 461 203 461 203 350 c 128,-1,34
 203 239 203 239 244.5 181 c 128,-1,35
 286 123 286 123 366 123 c 128,-1,36
 446 123 446 123 487 181 c 128,-1,37
 528 239 528 239 528 350 c 128,-1,38
 528 461 528 461 487 518.5 c 128,-1,31
 446 576 446 576 366 576 c 128,-1,32
EndSplineSet
Validated: 1
Position2: "'cpsp' Capital Spacing lookup 3 subtable" dx=5 dy=0 dh=10 dv=0
EndChar

StartChar: Ohorn
Encoding: 416 416 118
Width: 731
Flags: MW
HStem: -8 131<312.5 419.5 312.5 469> 576 106<312.5 532> 576 132<312.5 393 263 419.5>
VStem: 45 158<276.5 423.5 276.5 465.5> 528 158<276.5 417 234.5 423.5> 579 80<710 729>
LayerCount: 2
UndoRedoHistory
Layer: 1
Undoes
EndUndoes
Redoes
EndRedoes
EndUndoRedoHistory
Fore
SplineSet
596 811 m 2,0,1
 602 816 602 816 612 816 c 0,2,3
 630 816 630 816 644.5 787 c 128,-1,4
 659 758 659 758 659 733 c 0,5,6
 659 659 659 659 575 643 c 1,7,8
 686 552 686 552 686 350 c 0,9,10
 686 177 686 177 603.5 84.5 c 128,-1,11
 521 -8 521 -8 366 -8 c 128,-1,12
 211 -8 211 -8 128 84.5 c 128,-1,13
 45 177 45 177 45 350 c 128,-1,14
 45 523 45 523 128 615.5 c 128,-1,15
 211 708 211 708 366 708 c 0,16,17
 446 708 446 708 509 682 c 1,18,-1
 532 682 l 2,19,20
 579 682 579 682 579 718 c 0,21,22
 579 730 579 730 566 747.5 c 128,-1,23
 553 765 553 765 553 770 c 0,24,25
 553 782 553 782 564 789 c 2,26,-1
 596 811 l 2,0,1
366 123 m 128,-1,28
 446 123 446 123 487 181 c 128,-1,29
 528 239 528 239 528 350 c 128,-1,30
 528 461 528 461 487 518.5 c 128,-1,31
 446 576 446 576 366 576 c 128,-1,32
 286 576 286 576 244.5 518.5 c 128,-1,33
 203 461 203 461 203 350 c 128,-1,34
 203 239 203 239 244.5 181 c 128,-1,27
 286 123 286 123 366 123 c 128,-1,28
EndSplineSet
Validated: 1
Position2: "'cpsp' Capital Spacing lookup 3 subtable" dx=5 dy=0 dh=10 dv=0
EndChar

StartChar: Ohornacute
Encoding: 7898 7898 119
Width: 731
Flags: MW
HStem: -8 131<312.5 419.5 312.5 469> 576 106<312.5 532> 576 132<312.5 393 263 419.5> 752 159<315 466>
VStem: 45 158<276.5 423.5 276.5 465.5> 528 158<276.5 417 234.5 423.5> 579 80<710 729>
LayerCount: 2
UndoRedoHistory
Layer: 1
Undoes
EndUndoes
Redoes
EndRedoes
EndUndoRedoHistory
Fore
SplineSet
327 752 m 0,0,1
 296 752 296 752 296 767 c 0,2,3
 296 770 296 770 298 775 c 128,-1,4
 300 780 300 780 305.5 790 c 128,-1,5
 311 800 311 800 318 810.5 c 128,-1,6
 325 821 325 821 337 842 c 128,-1,7
 349 863 349 863 361 884 c 0,8,9
 376 911 376 911 446 911 c 0,10,11
 506 911 506 911 506 897 c 0,12,13
 506 891 506 891 500 883 c 128,-1,14
 494 875 494 875 469 849 c 0,15,16
 458 838 458 838 451 830.5 c 128,-1,17
 444 823 444 823 430 807.5 c 128,-1,18
 416 792 416 792 402 777 c 0,19,20
 379 752 379 752 327 752 c 0,0,1
596 811 m 2,21,22
 602 816 602 816 612 816 c 0,23,24
 630 816 630 816 644.5 787 c 128,-1,25
 659 758 659 758 659 733 c 0,26,27
 659 659 659 659 575 643 c 1,28,29
 686 552 686 552 686 350 c 0,30,31
 686 177 686 177 603.5 84.5 c 128,-1,32
 521 -8 521 -8 366 -8 c 128,-1,33
 211 -8 211 -8 128 84.5 c 128,-1,34
 45 177 45 177 45 350 c 128,-1,35
 45 523 45 523 128 615.5 c 128,-1,36
 211 708 211 708 366 708 c 0,37,38
 446 708 446 708 509 682 c 1,39,-1
 532 682 l 2,40,41
 579 682 579 682 579 718 c 0,42,43
 579 730 579 730 566 747.5 c 128,-1,44
 553 765 553 765 553 770 c 0,45,46
 553 782 553 782 564 789 c 2,47,-1
 596 811 l 2,21,22
366 123 m 128,-1,49
 446 123 446 123 487 181 c 128,-1,50
 528 239 528 239 528 350 c 128,-1,51
 528 461 528 461 487 518.5 c 128,-1,52
 446 576 446 576 366 576 c 128,-1,53
 286 576 286 576 244.5 518.5 c 128,-1,54
 203 461 203 461 203 350 c 128,-1,55
 203 239 203 239 244.5 181 c 128,-1,48
 286 123 286 123 366 123 c 128,-1,49
EndSplineSet
Validated: 1
Position2: "'cpsp' Capital Spacing lookup 3 subtable" dx=5 dy=0 dh=10 dv=0
EndChar

StartChar: Ohorndotbelow
Encoding: 7906 7906 120
Width: 731
Flags: MW
HStem: -204 124<348 390> -8 131<312.5 419.5 312.5 469> 576 106<312.5 532> 576 132<312.5 393 263 419.5>
VStem: 45 158<276.5 423.5 276.5 465.5> 309 120<-172 -112 -182.5 -101.5> 528 158<276.5 417 234.5 423.5> 579 80<710 729>
LayerCount: 2
UndoRedoHistory
Layer: 1
Undoes
EndUndoes
Redoes
EndRedoes
EndUndoRedoHistory
Fore
SplineSet
596 811 m 2,0,1
 602 816 602 816 612 816 c 0,2,3
 630 816 630 816 644.5 787 c 128,-1,4
 659 758 659 758 659 733 c 0,5,6
 659 659 659 659 575 643 c 1,7,8
 686 552 686 552 686 350 c 0,9,10
 686 177 686 177 603.5 84.5 c 128,-1,11
 521 -8 521 -8 366 -8 c 128,-1,12
 211 -8 211 -8 128 84.5 c 128,-1,13
 45 177 45 177 45 350 c 128,-1,14
 45 523 45 523 128 615.5 c 128,-1,15
 211 708 211 708 366 708 c 0,16,17
 446 708 446 708 509 682 c 1,18,-1
 532 682 l 2,19,20
 579 682 579 682 579 718 c 0,21,22
 579 730 579 730 566 747.5 c 128,-1,23
 553 765 553 765 553 770 c 0,24,25
 553 782 553 782 564 789 c 2,26,-1
 596 811 l 2,0,1
366 123 m 128,-1,28
 446 123 446 123 487 181 c 128,-1,29
 528 239 528 239 528 350 c 128,-1,30
 528 461 528 461 487 518.5 c 128,-1,31
 446 576 446 576 366 576 c 128,-1,32
 286 576 286 576 244.5 518.5 c 128,-1,33
 203 461 203 461 203 350 c 128,-1,34
 203 239 203 239 244.5 181 c 128,-1,27
 286 123 286 123 366 123 c 128,-1,28
309 -112 m 2,35,36
 309 -80 309 -80 369 -80 c 128,-1,37
 429 -80 429 -80 429 -112 c 2,38,-1
 429 -172 l 2,39,40
 429 -204 429 -204 369 -204 c 128,-1,41
 309 -204 309 -204 309 -172 c 2,42,-1
 309 -112 l 2,35,36
EndSplineSet
Validated: 1
Position2: "'cpsp' Capital Spacing lookup 3 subtable" dx=5 dy=0 dh=10 dv=0
EndChar

StartChar: Ohorngrave
Encoding: 7900 7900 121
Width: 731
Flags: MW
HStem: -8 131<312.5 419.5 312.5 469> 576 106<312.5 532> 576 132<312.5 393 263 419.5> 752 159<272 423>
VStem: 45 158<276.5 423.5 276.5 465.5> 528 158<276.5 417 234.5 423.5> 579 80<710 729>
LayerCount: 2
UndoRedoHistory
Layer: 1
Undoes
EndUndoes
Redoes
EndRedoes
EndUndoRedoHistory
Fore
SplineSet
411 752 m 0,0,1
 359 752 359 752 336 777 c 0,2,3
 306 810 306 810 269 849 c 0,4,5
 243 877 243 877 237.5 884 c 128,-1,6
 232 891 232 891 232 897 c 0,7,8
 232 911 232 911 292 911 c 0,9,10
 362 911 362 911 377 884 c 0,11,12
 389 863 389 863 401 842 c 128,-1,13
 413 821 413 821 420 810.5 c 128,-1,14
 427 800 427 800 432.5 790 c 128,-1,15
 438 780 438 780 440 775 c 128,-1,16
 442 770 442 770 442 767 c 0,17,18
 442 752 442 752 411 752 c 0,0,1
596 811 m 2,19,20
 602 816 602 816 612 816 c 0,21,22
 630 816 630 816 644.5 787 c 128,-1,23
 659 758 659 758 659 733 c 0,24,25
 659 659 659 659 575 643 c 1,26,27
 686 552 686 552 686 350 c 0,28,29
 686 177 686 177 603.5 84.5 c 128,-1,30
 521 -8 521 -8 366 -8 c 128,-1,31
 211 -8 211 -8 128 84.5 c 128,-1,32
 45 177 45 177 45 350 c 128,-1,33
 45 523 45 523 128 615.5 c 128,-1,34
 211 708 211 708 366 708 c 0,35,36
 446 708 446 708 509 682 c 1,37,-1
 532 682 l 2,38,39
 579 682 579 682 579 718 c 0,40,41
 579 730 579 730 566 747.5 c 128,-1,42
 553 765 553 765 553 770 c 0,43,44
 553 782 553 782 564 789 c 2,45,-1
 596 811 l 2,19,20
366 123 m 128,-1,47
 446 123 446 123 487 181 c 128,-1,48
 528 239 528 239 528 350 c 128,-1,49
 528 461 528 461 487 518.5 c 128,-1,50
 446 576 446 576 366 576 c 128,-1,51
 286 576 286 576 244.5 518.5 c 128,-1,52
 203 461 203 461 203 350 c 128,-1,53
 203 239 203 239 244.5 181 c 128,-1,46
 286 123 286 123 366 123 c 128,-1,47
EndSplineSet
Validated: 1
Position2: "'cpsp' Capital Spacing lookup 3 subtable" dx=5 dy=0 dh=10 dv=0
EndChar

StartChar: Ohornhookabove
Encoding: 7902 7902 122
Width: 731
Flags: MW
HStem: -8 131<312.5 419.5 312.5 469> 576 106<312.5 532> 576 132<312.5 393 263 419.5> 867 61<361.5 379>
VStem: 45 158<276.5 423.5 276.5 465.5> 403 87<830 852> 528 158<276.5 417 234.5 423.5> 579 80<710 729>
LayerCount: 2
UndoRedoHistory
Layer: 1
Undoes
EndUndoes
Redoes
EndRedoes
EndUndoRedoHistory
Fore
SplineSet
329 855 m 0,0,1
 323 855 323 855 311 870.5 c 128,-1,2
 299 886 299 886 299 897 c 0,3,4
 299 907 299 907 326 917.5 c 128,-1,5
 353 928 353 928 379 928 c 0,6,7
 432 928 432 928 461 907 c 128,-1,8
 490 886 490 886 490 849 c 0,9,10
 490 814 490 814 449.5 780.5 c 128,-1,11
 409 747 409 747 390 747 c 0,12,13
 373 747 373 747 354.5 755.5 c 128,-1,14
 336 764 336 764 336 770 c 0,15,16
 336 777 336 777 369.5 802.5 c 128,-1,17
 403 828 403 828 403 845 c 0,18,19
 403 855 403 855 393.5 861 c 128,-1,20
 384 867 384 867 371 867 c 128,-1,21
 358 867 358 867 345 861 c 128,-1,22
 332 855 332 855 329 855 c 0,0,1
596 811 m 2,23,24
 602 816 602 816 612 816 c 0,25,26
 630 816 630 816 644.5 787 c 128,-1,27
 659 758 659 758 659 733 c 0,28,29
 659 659 659 659 575 643 c 1,30,31
 686 552 686 552 686 350 c 0,32,33
 686 177 686 177 603.5 84.5 c 128,-1,34
 521 -8 521 -8 366 -8 c 128,-1,35
 211 -8 211 -8 128 84.5 c 128,-1,36
 45 177 45 177 45 350 c 128,-1,37
 45 523 45 523 128 615.5 c 128,-1,38
 211 708 211 708 366 708 c 0,39,40
 446 708 446 708 509 682 c 1,41,-1
 532 682 l 2,42,43
 579 682 579 682 579 718 c 0,44,45
 579 730 579 730 566 747.5 c 128,-1,46
 553 765 553 765 553 770 c 0,47,48
 553 782 553 782 564 789 c 2,49,-1
 596 811 l 2,23,24
366 123 m 128,-1,51
 446 123 446 123 487 181 c 128,-1,52
 528 239 528 239 528 350 c 128,-1,53
 528 461 528 461 487 518.5 c 128,-1,54
 446 576 446 576 366 576 c 128,-1,55
 286 576 286 576 244.5 518.5 c 128,-1,56
 203 461 203 461 203 350 c 128,-1,57
 203 239 203 239 244.5 181 c 128,-1,50
 286 123 286 123 366 123 c 128,-1,51
EndSplineSet
Validated: 1
Position2: "'cpsp' Capital Spacing lookup 3 subtable" dx=5 dy=0 dh=10 dv=0
EndChar

StartChar: Ohorntilde
Encoding: 7904 7904 123
Width: 731
Flags: MW
HStem: -8 131<312.5 419.5 312.5 469> 576 106<312.5 532> 576 132<312.5 393 263 419.5> 757 86<397.5 410.5> 784 86<277 291>
VStem: 45 158<276.5 423.5 276.5 465.5> 528 158<276.5 417 234.5 423.5> 579 80<710 729>
LayerCount: 2
UndoRedoHistory
Layer: 1
Undoes
EndUndoes
Redoes
EndRedoes
EndUndoRedoHistory
Fore
SplineSet
236 770 m 0,0,1
 230 767 230 767 225 767 c 0,2,3
 210 767 210 767 198 784 c 0,4,5
 192 793 192 793 192 803 c 0,6,7
 192 816 192 816 203 829 c 1,8,9
 249 870 249 870 295 870 c 0,10,11
 327 870 327 870 366 854 c 1,12,13
 388 843 388 843 406 843 c 0,14,15
 431 843 431 843 455 858 c 1,16,17
 462 864 462 864 472 864 c 0,18,19
 485 864 485 864 494 852 c 0,20,21
 502 841 502 841 502 832 c 0,22,23
 502 817 502 817 487 798 c 1,24,25
 451 757 451 757 392 757 c 0,26,27
 361 757 361 757 327 773 c 0,28,29
 303 784 303 784 281 784 c 0,30,31
 262 784 262 784 236 770 c 0,0,1
596 811 m 2,32,33
 602 816 602 816 612 816 c 0,34,35
 630 816 630 816 644.5 787 c 128,-1,36
 659 758 659 758 659 733 c 0,37,38
 659 659 659 659 575 643 c 1,39,40
 686 552 686 552 686 350 c 0,41,42
 686 177 686 177 603.5 84.5 c 128,-1,43
 521 -8 521 -8 366 -8 c 128,-1,44
 211 -8 211 -8 128 84.5 c 128,-1,45
 45 177 45 177 45 350 c 128,-1,46
 45 523 45 523 128 615.5 c 128,-1,47
 211 708 211 708 366 708 c 0,48,49
 446 708 446 708 509 682 c 1,50,-1
 532 682 l 2,51,52
 579 682 579 682 579 718 c 0,53,54
 579 730 579 730 566 747.5 c 128,-1,55
 553 765 553 765 553 770 c 0,56,57
 553 782 553 782 564 789 c 2,58,-1
 596 811 l 2,32,33
366 123 m 128,-1,60
 446 123 446 123 487 181 c 128,-1,61
 528 239 528 239 528 350 c 128,-1,62
 528 461 528 461 487 518.5 c 128,-1,63
 446 576 446 576 366 576 c 128,-1,64
 286 576 286 576 244.5 518.5 c 128,-1,65
 203 461 203 461 203 350 c 128,-1,66
 203 239 203 239 244.5 181 c 128,-1,59
 286 123 286 123 366 123 c 128,-1,60
EndSplineSet
Validated: 1
Position2: "'cpsp' Capital Spacing lookup 3 subtable" dx=5 dy=0 dh=10 dv=0
EndChar

StartChar: Ohungarumlaut
Encoding: 336 336 124
Width: 731
Flags: MW
HStem: -8 131<312.5 419.5 312.5 469> 576 132<312.5 419.5> 752 159<231 382 342 449.5>
VStem: 45 158<276.5 423.5 276.5 465.5> 528 158<276.5 423.5>
LayerCount: 2
UndoRedoHistory
Layer: 1
Undoes
EndUndoes
Redoes
EndRedoes
EndUndoRedoHistory
Fore
SplineSet
362 911 m 0,0,1
 422 911 422 911 422 897 c 0,2,3
 422 891 422 891 416 883 c 128,-1,4
 410 875 410 875 385 849 c 0,5,6
 374 838 374 838 367 830.5 c 128,-1,7
 360 823 360 823 346 807.5 c 128,-1,8
 332 792 332 792 318 777 c 0,9,10
 295 752 295 752 243 752 c 0,11,12
 212 752 212 752 212 767 c 0,13,14
 212 770 212 770 214 775 c 128,-1,15
 216 780 216 780 221.5 790 c 128,-1,16
 227 800 227 800 234 810.5 c 128,-1,17
 241 821 241 821 253 842 c 128,-1,18
 265 863 265 863 277 884 c 0,19,20
 292 911 292 911 362 911 c 0,0,1
545 911 m 0,21,22
 605 911 605 911 605 897 c 0,23,24
 605 891 605 891 599 883 c 128,-1,25
 593 875 593 875 568 849 c 0,26,27
 557 838 557 838 550 830.5 c 128,-1,28
 543 823 543 823 529 807.5 c 128,-1,29
 515 792 515 792 501 777 c 0,30,31
 478 752 478 752 426 752 c 0,32,33
 395 752 395 752 395 767 c 0,34,35
 395 770 395 770 397 775 c 128,-1,36
 399 780 399 780 404.5 790 c 128,-1,37
 410 800 410 800 417 810.5 c 128,-1,38
 424 821 424 821 436 842 c 128,-1,39
 448 863 448 863 460 884 c 0,40,41
 475 911 475 911 545 911 c 0,21,22
366 708 m 128,-1,43
 521 708 521 708 603.5 615.5 c 128,-1,44
 686 523 686 523 686 350 c 128,-1,45
 686 177 686 177 603.5 84.5 c 128,-1,46
 521 -8 521 -8 366 -8 c 128,-1,47
 211 -8 211 -8 128 84.5 c 128,-1,48
 45 177 45 177 45 350 c 128,-1,49
 45 523 45 523 128 615.5 c 128,-1,42
 211 708 211 708 366 708 c 128,-1,43
366 576 m 128,-1,51
 286 576 286 576 244.5 518.5 c 128,-1,52
 203 461 203 461 203 350 c 128,-1,53
 203 239 203 239 244.5 181 c 128,-1,54
 286 123 286 123 366 123 c 128,-1,55
 446 123 446 123 487 181 c 128,-1,56
 528 239 528 239 528 350 c 128,-1,57
 528 461 528 461 487 518.5 c 128,-1,50
 446 576 446 576 366 576 c 128,-1,51
EndSplineSet
Validated: 1
Position2: "'cpsp' Capital Spacing lookup 3 subtable" dx=5 dy=0 dh=10 dv=0
EndChar

StartChar: Omacron
Encoding: 332 332 125
Width: 731
Flags: MW
HStem: -8 131<312.5 419.5 312.5 469> 576 132<312.5 419.5> 774 95<248.5 474 259 474>
VStem: 45 158<276.5 423.5 276.5 465.5> 528 158<276.5 423.5>
LayerCount: 2
UndoRedoHistory
Layer: 1
Undoes
EndUndoes
Redoes
EndRedoes
EndUndoRedoHistory
Fore
SplineSet
474 869 m 2,0,1
 504 869 504 869 504 829 c 2,2,-1
 504 814 l 2,3,4
 504 774 504 774 474 774 c 2,5,-1
 259 774 l 2,6,7
 229 774 229 774 229 814 c 2,8,-1
 229 829 l 2,9,10
 229 869 229 869 259 869 c 2,11,-1
 474 869 l 2,0,1
366 708 m 128,-1,13
 521 708 521 708 603.5 615.5 c 128,-1,14
 686 523 686 523 686 350 c 128,-1,15
 686 177 686 177 603.5 84.5 c 128,-1,16
 521 -8 521 -8 366 -8 c 128,-1,17
 211 -8 211 -8 128 84.5 c 128,-1,18
 45 177 45 177 45 350 c 128,-1,19
 45 523 45 523 128 615.5 c 128,-1,12
 211 708 211 708 366 708 c 128,-1,13
366 576 m 128,-1,21
 286 576 286 576 244.5 518.5 c 128,-1,22
 203 461 203 461 203 350 c 128,-1,23
 203 239 203 239 244.5 181 c 128,-1,24
 286 123 286 123 366 123 c 128,-1,25
 446 123 446 123 487 181 c 128,-1,26
 528 239 528 239 528 350 c 128,-1,27
 528 461 528 461 487 518.5 c 128,-1,20
 446 576 446 576 366 576 c 128,-1,21
EndSplineSet
Validated: 1
Position2: "'cpsp' Capital Spacing lookup 3 subtable" dx=5 dy=0 dh=10 dv=0
EndChar

StartChar: Oogonek
Encoding: 490 490 126
Width: 731
Flags: MW
HStem: -183 70<482.5 502> -8 131<312.5 366 366 384> -1 21G<443 443> 576 132<312.5 419.5>
VStem: 45 158<276.5 423.5 276.5 465.5> 365 67<-86 -73.5> 528 158<276.5 423.5>
LayerCount: 2
UndoRedoHistory
Layer: 1
Undoes
EndUndoes
Redoes
EndRedoes
EndUndoRedoHistory
Fore
SplineSet
686 350 m 0,0,1
 686 200 686 200 623.5 110 c 128,-1,2
 561 20 561 20 443 -1 c 1,3,-1
 443 -5 l 2,4,5
 443 -11 443 -11 437.5 -28.5 c 128,-1,6
 432 -46 432 -46 432 -62 c 0,7,8
 432 -113 432 -113 494 -113 c 0,9,10
 507 -113 507 -113 521 -109 c 128,-1,11
 535 -105 535 -105 543 -105 c 0,12,13
 565 -105 565 -105 565 -133 c 0,14,15
 565 -183 565 -183 483 -183 c 0,16,17
 446 -183 446 -183 420 -171.5 c 128,-1,18
 394 -160 394 -160 383.5 -142 c 128,-1,19
 373 -124 373 -124 369 -109.5 c 128,-1,20
 365 -95 365 -95 365 -81 c 0,21,22
 365 -35 365 -35 384 -8 c 1,23,-1
 366 -8 l 2,24,25
 211 -8 211 -8 128 84.5 c 128,-1,26
 45 177 45 177 45 350 c 128,-1,27
 45 523 45 523 128 615.5 c 128,-1,28
 211 708 211 708 366 708 c 128,-1,29
 521 708 521 708 603.5 615.5 c 128,-1,30
 686 523 686 523 686 350 c 0,0,1
366 123 m 128,-1,32
 446 123 446 123 487 181 c 128,-1,33
 528 239 528 239 528 350 c 128,-1,34
 528 461 528 461 487 518.5 c 128,-1,35
 446 576 446 576 366 576 c 128,-1,36
 286 576 286 576 244.5 518.5 c 128,-1,37
 203 461 203 461 203 350 c 128,-1,38
 203 239 203 239 244.5 181 c 128,-1,31
 286 123 286 123 366 123 c 128,-1,32
EndSplineSet
Validated: 1
Position2: "'cpsp' Capital Spacing lookup 3 subtable" dx=5 dy=0 dh=10 dv=0
EndChar

StartChar: Oslash
Encoding: 216 216 127
Width: 731
Flags: MW
HStem: -8 131<340 419.5 340 469> 576 132<312.5 385.5>
VStem: 45 158<333 423.5 333 465.5> 528 158<276.5 374.5>
LayerCount: 2
UndoRedoHistory
Layer: 1
Undoes
EndUndoes
Redoes
EndRedoes
EndUndoRedoHistory
Fore
SplineSet
95 129 m 1,0,1
 45 215 45 215 45 350 c 0,2,3
 45 523 45 523 128 615.5 c 128,-1,4
 211 708 211 708 366 708 c 0,5,6
 484 708 484 708 560 653 c 1,7,-1
 612 712 l 2,8,9
 622 724 622 724 634 724 c 0,10,11
 647 724 647 724 664.5 707.5 c 128,-1,12
 682 691 682 691 682 678 c 0,13,14
 682 668 682 668 672 658 c 2,15,-1
 618 597 l 1,16,17
 686 504 686 504 686 350 c 0,18,19
 686 177 686 177 603.5 84.5 c 128,-1,20
 521 -8 521 -8 366 -8 c 0,21,22
 227 -8 227 -8 147 66 c 1,23,-1
 89 0 l 2,24,25
 78 -12 78 -12 67 -12 c 0,26,27
 54 -12 54 -12 36.5 4 c 128,-1,28
 19 20 19 20 19 34 c 0,29,30
 19 44 19 44 29 54 c 2,31,-1
 95 129 l 1,0,1
463 544 m 1,32,33
 425 576 425 576 366 576 c 0,34,35
 286 576 286 576 244.5 518.5 c 128,-1,36
 203 461 203 461 203 350 c 0,37,38
 203 303 203 303 211 260 c 1,39,-1
 463 544 l 1,32,33
247 178 m 1,40,41
 288 123 288 123 366 123 c 0,42,43
 446 123 446 123 487 181 c 128,-1,44
 528 239 528 239 528 350 c 0,45,46
 528 422 528 422 509 474 c 1,47,-1
 247 178 l 1,40,41
EndSplineSet
Validated: 1
Position2: "'cpsp' Capital Spacing lookup 3 subtable" dx=5 dy=0 dh=10 dv=0
EndChar

StartChar: Oslashacute
Encoding: 510 510 128
Width: 731
Flags: MW
HStem: -8 131<340 419.5 340 469> 576 132<312.5 385.5> 752 159<315 466>
VStem: 45 158<333 423.5 333 465.5> 528 158<276.5 374.5>
LayerCount: 2
UndoRedoHistory
Layer: 1
Undoes
EndUndoes
Redoes
EndRedoes
EndUndoRedoHistory
Fore
SplineSet
95 129 m 1,0,1
 45 215 45 215 45 350 c 0,2,3
 45 523 45 523 128 615.5 c 128,-1,4
 211 708 211 708 366 708 c 0,5,6
 484 708 484 708 560 653 c 1,7,-1
 612 712 l 2,8,9
 622 724 622 724 634 724 c 0,10,11
 647 724 647 724 664.5 707.5 c 128,-1,12
 682 691 682 691 682 678 c 0,13,14
 682 668 682 668 672 658 c 2,15,-1
 618 597 l 1,16,17
 686 504 686 504 686 350 c 0,18,19
 686 177 686 177 603.5 84.5 c 128,-1,20
 521 -8 521 -8 366 -8 c 0,21,22
 227 -8 227 -8 147 66 c 1,23,-1
 89 0 l 2,24,25
 78 -12 78 -12 67 -12 c 0,26,27
 54 -12 54 -12 36.5 4 c 128,-1,28
 19 20 19 20 19 34 c 0,29,30
 19 44 19 44 29 54 c 2,31,-1
 95 129 l 1,0,1
463 544 m 1,32,33
 425 576 425 576 366 576 c 0,34,35
 286 576 286 576 244.5 518.5 c 128,-1,36
 203 461 203 461 203 350 c 0,37,38
 203 303 203 303 211 260 c 1,39,-1
 463 544 l 1,32,33
247 178 m 1,40,41
 288 123 288 123 366 123 c 0,42,43
 446 123 446 123 487 181 c 128,-1,44
 528 239 528 239 528 350 c 0,45,46
 528 422 528 422 509 474 c 1,47,-1
 247 178 l 1,40,41
446 911 m 0,48,49
 506 911 506 911 506 897 c 0,50,51
 506 891 506 891 500 883 c 128,-1,52
 494 875 494 875 469 849 c 0,53,54
 458 838 458 838 451 830.5 c 128,-1,55
 444 823 444 823 430 807.5 c 128,-1,56
 416 792 416 792 402 777 c 0,57,58
 379 752 379 752 327 752 c 0,59,60
 296 752 296 752 296 767 c 0,61,62
 296 770 296 770 298 775 c 128,-1,63
 300 780 300 780 305.5 790 c 128,-1,64
 311 800 311 800 318 810.5 c 128,-1,65
 325 821 325 821 337 842 c 128,-1,66
 349 863 349 863 361 884 c 0,67,68
 376 911 376 911 446 911 c 0,48,49
EndSplineSet
Validated: 1
Position2: "'cpsp' Capital Spacing lookup 3 subtable" dx=5 dy=0 dh=10 dv=0
EndChar

StartChar: Otilde
Encoding: 213 213 129
Width: 731
Flags: MW
HStem: -8 131<312.5 419.5 312.5 469> 576 132<312.5 419.5> 757 86<421.5 435.5> 784 86<287.5 303>
VStem: 45 158<276.5 423.5 276.5 465.5> 528 158<276.5 423.5>
LayerCount: 2
UndoRedoHistory
Layer: 1
Undoes
EndUndoes
Redoes
EndRedoes
EndUndoRedoHistory
Fore
SplineSet
485 858 m 0,0,1
 494 864 494 864 504 864 c 0,2,3
 518 864 518 864 529 852 c 0,4,5
 538 842 538 842 538 832 c 0,6,7
 538 818 538 818 521 798 c 1,8,9
 480 757 480 757 415 757 c 0,10,11
 381 757 381 757 343 773 c 0,12,13
 317 784 317 784 292 784 c 0,14,15
 270 784 270 784 242 770 c 0,16,17
 236 767 236 767 230 767 c 0,18,19
 214 767 214 767 200 784 c 0,20,21
 193 792 193 792 193 803 c 0,22,23
 193 817 193 817 205 829 c 1,24,25
 257 870 257 870 308 870 c 0,26,27
 343 870 343 870 386 854 c 1,28,29
 412 843 412 843 431 843 c 0,30,31
 460 843 460 843 485 858 c 0,0,1
366 708 m 128,-1,33
 521 708 521 708 603.5 615.5 c 128,-1,34
 686 523 686 523 686 350 c 128,-1,35
 686 177 686 177 603.5 84.5 c 128,-1,36
 521 -8 521 -8 366 -8 c 128,-1,37
 211 -8 211 -8 128 84.5 c 128,-1,38
 45 177 45 177 45 350 c 128,-1,39
 45 523 45 523 128 615.5 c 128,-1,32
 211 708 211 708 366 708 c 128,-1,33
366 576 m 128,-1,41
 286 576 286 576 244.5 518.5 c 128,-1,42
 203 461 203 461 203 350 c 128,-1,43
 203 239 203 239 244.5 181 c 128,-1,44
 286 123 286 123 366 123 c 128,-1,45
 446 123 446 123 487 181 c 128,-1,46
 528 239 528 239 528 350 c 128,-1,47
 528 461 528 461 487 518.5 c 128,-1,40
 446 576 446 576 366 576 c 128,-1,41
EndSplineSet
Validated: 1
Position2: "'cpsp' Capital Spacing lookup 3 subtable" dx=5 dy=0 dh=10 dv=0
EndChar

StartChar: OE
Encoding: 338 338 130
Width: 1021
Flags: MW
HStem: -8 131<312.5 389.5> 0 131<556.5 937 684 937 684 937> 293 131<684 909 684 909> 569 131<684 936 684 684> 576 132<312.5 390 256 419.5>
VStem: 45 158<276.5 423.5 276.5 465.5> 528 156<276.5 293 131 423.5>
LayerCount: 2
UndoRedoHistory
Layer: 1
Undoes
EndUndoes
Redoes
EndRedoes
EndUndoRedoHistory
Fore
SplineSet
937 131 m 2,0,1
 967 131 967 131 967 81 c 2,2,-1
 967 50 l 2,3,4
 967 0 967 0 937 0 c 2,5,-1
 570 0 l 2,6,7
 531 0 531 0 530 37 c 1,8,9
 456 -8 456 -8 356 -8 c 0,10,11
 206 -8 206 -8 125.5 84.5 c 128,-1,12
 45 177 45 177 45 350 c 128,-1,13
 45 523 45 523 125.5 615.5 c 128,-1,14
 206 708 206 708 356 708 c 0,15,16
 457 708 457 708 530 662 c 1,17,18
 530 700 530 700 570 700 c 2,19,-1
 936 700 l 2,20,21
 966 700 966 700 966 650 c 2,22,-1
 966 619 l 2,23,24
 966 569 966 569 936 569 c 2,25,-1
 684 569 l 1,26,-1
 684 424 l 1,27,-1
 909 424 l 2,28,29
 939 424 939 424 939 374 c 2,30,-1
 939 343 l 2,31,32
 939 293 939 293 909 293 c 2,33,-1
 684 293 l 1,34,-1
 684 131 l 1,35,-1
 937 131 l 2,0,1
366 123 m 128,-1,37
 446 123 446 123 487 181 c 128,-1,38
 528 239 528 239 528 350 c 128,-1,39
 528 461 528 461 487 518.5 c 128,-1,40
 446 576 446 576 366 576 c 128,-1,41
 286 576 286 576 244.5 518.5 c 128,-1,42
 203 461 203 461 203 350 c 128,-1,43
 203 239 203 239 244.5 181 c 128,-1,36
 286 123 286 123 366 123 c 128,-1,37
EndSplineSet
Validated: 1
Position2: "'cpsp' Capital Spacing lookup 3 subtable" dx=5 dy=0 dh=10 dv=0
EndChar

StartChar: P
Encoding: 80 80 131
Width: 570
Flags: MW
HStem: -2 21G<108 129 129 163> 262 132<223 312 312 329 223 312> 569 131<223 223 223 312>
VStem: 69 154<30 262 394 569> 399 158<445 517>
LayerCount: 2
UndoRedoHistory
Layer: 1
Undoes
EndUndoes
Redoes
EndRedoes
EndUndoRedoHistory
Fore
SplineSet
319 700 m 2,0,1
 350 700 350 700 378.5 696 c 128,-1,2
 407 692 407 692 441 678 c 128,-1,3
 475 664 475 664 499.5 641.5 c 128,-1,4
 524 619 524 619 540.5 577.5 c 128,-1,5
 557 536 557 536 557 481 c 128,-1,6
 557 426 557 426 538 384.5 c 128,-1,7
 519 343 519 343 492.5 320.5 c 128,-1,8
 466 298 466 298 432 284 c 128,-1,9
 398 270 398 270 374 266 c 128,-1,10
 350 262 350 262 329 262 c 2,11,-1
 223 262 l 1,12,-1
 223 30 l 2,13,14
 223 -2 223 -2 163 -2 c 2,15,-1
 129 -2 l 2,16,17
 69 -2 69 -2 69 30 c 2,18,-1
 69 660 l 2,19,20
 69 700 69 700 109 700 c 2,21,-1
 319 700 l 2,0,1
223 569 m 1,22,-1
 223 394 l 1,23,-1
 312 394 l 2,24,25
 348 394 348 394 373.5 413 c 128,-1,26
 399 432 399 432 399 481 c 128,-1,27
 399 530 399 530 373.5 549.5 c 128,-1,28
 348 569 348 569 312 569 c 2,29,-1
 223 569 l 1,22,-1
EndSplineSet
Validated: 1
Position2: "'cpsp' Capital Spacing lookup 3 subtable" dx=5 dy=0 dh=10 dv=0
EndChar

StartChar: Thorn
Encoding: 222 222 132
Width: 567
Flags: MW
HStem: -2 21G<107 128 128 162> 155 132<222 318 318 335 222 318> 462 131<222 325 222 318> 682 20G<128 162 162 183>
VStem: 68 154<30 155 287 462 593 670> 405 158<338 410>
LayerCount: 2
UndoRedoHistory
Layer: 1
Undoes
EndUndoes
Redoes
EndRedoes
EndUndoRedoHistory
Fore
SplineSet
162 702 m 2,0,1
 222 702 222 702 222 670 c 2,2,-1
 222 593 l 1,3,-1
 325 593 l 2,4,5
 356 593 356 593 384.5 589 c 128,-1,6
 413 585 413 585 447 571 c 128,-1,7
 481 557 481 557 505.5 534.5 c 128,-1,8
 530 512 530 512 546.5 470.5 c 128,-1,9
 563 429 563 429 563 374 c 128,-1,10
 563 319 563 319 544 277.5 c 128,-1,11
 525 236 525 236 498.5 213.5 c 128,-1,12
 472 191 472 191 438 177 c 128,-1,13
 404 163 404 163 380 159 c 128,-1,14
 356 155 356 155 335 155 c 2,15,-1
 222 155 l 1,16,-1
 222 30 l 2,17,18
 222 -2 222 -2 162 -2 c 2,19,-1
 128 -2 l 2,20,21
 68 -2 68 -2 68 30 c 2,22,-1
 68 670 l 2,23,24
 68 702 68 702 128 702 c 2,25,-1
 162 702 l 2,0,1
222 462 m 1,26,-1
 222 287 l 1,27,-1
 318 287 l 2,28,29
 354 287 354 287 379.5 306 c 128,-1,30
 405 325 405 325 405 374 c 128,-1,31
 405 423 405 423 379.5 442.5 c 128,-1,32
 354 462 354 462 318 462 c 2,33,-1
 222 462 l 1,26,-1
EndSplineSet
Validated: 1
Position2: "'cpsp' Capital Spacing lookup 3 subtable" dx=5 dy=0 dh=10 dv=0
EndChar

StartChar: Q
Encoding: 81 81 133
Width: 731
Flags: MW
HStem: 576 132<312.5 419.5>
VStem: 45 158<275 423.5 275 465.5> 528 158<275 423.5>
LayerCount: 2
UndoRedoHistory
Layer: 1
Undoes
EndUndoes
Redoes
EndRedoes
EndUndoRedoHistory
Fore
SplineSet
682 -28 m 2,0,1
 696 -33 696 -33 696 -44 c 0,2,3
 696 -64 696 -64 679 -105 c 128,-1,4
 662 -146 662 -146 641 -146 c 0,5,6
 635 -146 635 -146 524 -102 c 0,7,8
 372 -41 372 -41 227 16 c 0,9,10
 138 51 138 51 91.5 136 c 128,-1,11
 45 221 45 221 45 350 c 0,12,13
 45 523 45 523 128 615.5 c 128,-1,14
 211 708 211 708 366 708 c 128,-1,15
 521 708 521 708 603.5 615.5 c 128,-1,16
 686 523 686 523 686 350 c 0,17,18
 686 112 686 112 529 31 c 1,19,-1
 529 27 l 1,20,-1
 682 -28 l 2,0,1
366 576 m 128,-1,22
 286 576 286 576 244.5 518.5 c 128,-1,23
 203 461 203 461 203 350 c 0,24,25
 203 237 203 237 244.5 178 c 128,-1,26
 286 119 286 119 366 119 c 128,-1,27
 446 119 446 119 487 178 c 128,-1,28
 528 237 528 237 528 350 c 0,29,30
 528 461 528 461 487 518.5 c 128,-1,21
 446 576 446 576 366 576 c 128,-1,22
EndSplineSet
Validated: 1
Position2: "'cpsp' Capital Spacing lookup 3 subtable" dx=5 dy=0 dh=10 dv=0
EndChar

StartChar: R
Encoding: 82 82 134
Width: 610
Flags: MW
HStem: -2 21G 274 133<223 262 223 318> 569 131<223 223 223 304 304 311>
VStem: 69 154<30 274 407 569> 395 158<473.5 516>
LayerCount: 2
UndoRedoHistory
Layer: 1
Undoes
EndUndoes
Redoes
EndRedoes
EndUndoRedoHistory
Fore
SplineSet
304 700 m 2,0,1
 553 700 553 700 553 512 c 0,2,3
 553 456 553 456 521.5 414.5 c 128,-1,4
 490 373 490 373 436 353 c 1,5,-1
 436 349 l 1,6,7
 455 342 455 342 475 315.5 c 128,-1,8
 495 289 495 289 508 257 c 2,9,-1
 596 37 l 2,10,11
 601 24 601 24 601 18 c 0,12,13
 601 -2 601 -2 541 -2 c 2,14,-1
 500 -2 l 2,15,16
 450 -2 450 -2 442 19 c 2,17,-1
 363 214 l 1,18,19
 346 247 346 247 326.5 260.5 c 128,-1,20
 307 274 307 274 262 274 c 2,21,-1
 223 274 l 1,22,-1
 223 30 l 2,23,24
 223 -2 223 -2 163 -2 c 2,25,-1
 129 -2 l 2,26,27
 69 -2 69 -2 69 30 c 2,28,-1
 69 660 l 2,29,30
 69 700 69 700 109 700 c 2,31,-1
 304 700 l 2,0,1
223 569 m 1,32,-1
 223 407 l 1,33,-1
 318 407 l 2,34,35
 349 407 349 407 372 432 c 128,-1,36
 395 457 395 457 395 493 c 0,37,38
 395 528 395 528 372.5 548.5 c 128,-1,39
 350 569 350 569 311 569 c 2,40,-1
 223 569 l 1,32,-1
EndSplineSet
Validated: 1
Position2: "'cpsp' Capital Spacing lookup 3 subtable" dx=5 dy=0 dh=10 dv=0
EndChar

StartChar: Racute
Encoding: 340 340 135
Width: 610
Flags: MW
HStem: -2 21G 274 133<223 262 223 318> 569 131<223 304 304 311 223 223> 752 159<254 405>
VStem: 69 154<30 274 407 569> 395 158<473.5 516>
LayerCount: 2
UndoRedoHistory
Layer: 1
Undoes
EndUndoes
Redoes
EndRedoes
EndUndoRedoHistory
Fore
SplineSet
385 911 m 0,0,1
 445 911 445 911 445 897 c 0,2,3
 445 891 445 891 439 883 c 128,-1,4
 433 875 433 875 408 849 c 0,5,6
 397 838 397 838 390 830.5 c 128,-1,7
 383 823 383 823 369 807.5 c 128,-1,8
 355 792 355 792 341 777 c 0,9,10
 318 752 318 752 266 752 c 0,11,12
 235 752 235 752 235 767 c 0,13,14
 235 770 235 770 237 775 c 128,-1,15
 239 780 239 780 244.5 790 c 128,-1,16
 250 800 250 800 257 810.5 c 128,-1,17
 264 821 264 821 276 842 c 128,-1,18
 288 863 288 863 300 884 c 0,19,20
 315 911 315 911 385 911 c 0,0,1
304 700 m 2,21,22
 553 700 553 700 553 512 c 0,23,24
 553 456 553 456 521.5 414.5 c 128,-1,25
 490 373 490 373 436 353 c 1,26,-1
 436 349 l 1,27,28
 455 342 455 342 475 315.5 c 128,-1,29
 495 289 495 289 508 257 c 2,30,-1
 596 37 l 2,31,32
 601 24 601 24 601 18 c 0,33,34
 601 -2 601 -2 541 -2 c 2,35,-1
 500 -2 l 2,36,37
 450 -2 450 -2 442 19 c 2,38,-1
 363 214 l 1,39,40
 346 247 346 247 326.5 260.5 c 128,-1,41
 307 274 307 274 262 274 c 2,42,-1
 223 274 l 1,43,-1
 223 30 l 2,44,45
 223 -2 223 -2 163 -2 c 2,46,-1
 129 -2 l 2,47,48
 69 -2 69 -2 69 30 c 2,49,-1
 69 660 l 2,50,51
 69 700 69 700 109 700 c 2,52,-1
 304 700 l 2,21,22
223 407 m 1,53,-1
 318 407 l 2,54,55
 349 407 349 407 372 432 c 128,-1,56
 395 457 395 457 395 493 c 0,57,58
 395 528 395 528 372.5 548.5 c 128,-1,59
 350 569 350 569 311 569 c 2,60,-1
 223 569 l 1,61,-1
 223 407 l 1,53,-1
EndSplineSet
Validated: 1
Position2: "'cpsp' Capital Spacing lookup 3 subtable" dx=5 dy=0 dh=10 dv=0
EndChar

StartChar: Rcaron
Encoding: 344 344 136
Width: 610
Flags: MW
HStem: -2 21G 274 133<223 262 223 318> 569 131<223 304 304 311 223 223> 749 146<188 300 188 311>
VStem: 69 154<30 274 407 569> 395 158<473.5 516>
LayerCount: 2
UndoRedoHistory
Layer: 1
Undoes
EndUndoes
Redoes
EndRedoes
EndUndoRedoHistory
Fore
SplineSet
423 895 m 2,0,1
 443 895 443 895 443 885 c 0,2,3
 443 879 443 879 437 870 c 2,4,-1
 372 768 l 2,5,6
 360 749 360 749 311 749 c 2,7,-1
 300 749 l 2,8,9
 251 749 251 749 239 768 c 2,10,-1
 174 870 l 2,11,12
 168 879 168 879 168 885 c 0,13,14
 168 895 168 895 188 895 c 2,15,-1
 210 895 l 2,16,17
 259 895 259 895 277 870 c 2,18,-1
 305 831 l 1,19,-1
 333 871 l 2,20,21
 349 895 349 895 401 895 c 2,22,-1
 423 895 l 2,0,1
304 700 m 2,23,24
 553 700 553 700 553 512 c 0,25,26
 553 456 553 456 521.5 414.5 c 128,-1,27
 490 373 490 373 436 353 c 1,28,-1
 436 349 l 1,29,30
 455 342 455 342 475 315.5 c 128,-1,31
 495 289 495 289 508 257 c 2,32,-1
 596 37 l 2,33,34
 601 24 601 24 601 18 c 0,35,36
 601 -2 601 -2 541 -2 c 2,37,-1
 500 -2 l 2,38,39
 450 -2 450 -2 442 19 c 2,40,-1
 363 214 l 1,41,42
 346 247 346 247 326.5 260.5 c 128,-1,43
 307 274 307 274 262 274 c 2,44,-1
 223 274 l 1,45,-1
 223 30 l 2,46,47
 223 -2 223 -2 163 -2 c 2,48,-1
 129 -2 l 2,49,50
 69 -2 69 -2 69 30 c 2,51,-1
 69 660 l 2,52,53
 69 700 69 700 109 700 c 2,54,-1
 304 700 l 2,23,24
223 407 m 1,55,-1
 318 407 l 2,56,57
 349 407 349 407 372 432 c 128,-1,58
 395 457 395 457 395 493 c 0,59,60
 395 528 395 528 372.5 548.5 c 128,-1,61
 350 569 350 569 311 569 c 2,62,-1
 223 569 l 1,63,-1
 223 407 l 1,55,-1
EndSplineSet
Validated: 1
Position2: "'cpsp' Capital Spacing lookup 3 subtable" dx=5 dy=0 dh=10 dv=0
EndChar

StartChar: Rcommaaccent
Encoding: 342 342 137
Width: 610
Flags: MW
HStem: -240 21G<250 276.5> -2 21G 274 133<223 262 223 318> 569 131<223 304 304 311 223 223>
VStem: 69 154<30 274 407 569> 238 129<-128.5 -82.5 -128.5 -81.5> 395 158<473.5 516>
LayerCount: 2
UndoRedoHistory
Layer: 1
Undoes
EndUndoes
Redoes
EndRedoes
EndUndoRedoHistory
Fore
SplineSet
304 700 m 2,0,1
 553 700 553 700 553 512 c 0,2,3
 553 456 553 456 521.5 414.5 c 128,-1,4
 490 373 490 373 436 353 c 1,5,-1
 436 349 l 1,6,7
 455 342 455 342 475 315.5 c 128,-1,8
 495 289 495 289 508 257 c 2,9,-1
 596 37 l 2,10,11
 601 24 601 24 601 18 c 0,12,13
 601 -2 601 -2 541 -2 c 2,14,-1
 500 -2 l 2,15,16
 450 -2 450 -2 442 19 c 2,17,-1
 363 214 l 1,18,19
 346 247 346 247 326.5 260.5 c 128,-1,20
 307 274 307 274 262 274 c 2,21,-1
 223 274 l 1,22,-1
 223 30 l 2,23,24
 223 -2 223 -2 163 -2 c 2,25,-1
 129 -2 l 2,26,27
 69 -2 69 -2 69 30 c 2,28,-1
 69 660 l 2,29,30
 69 700 69 700 109 700 c 2,31,-1
 304 700 l 2,0,1
223 407 m 1,32,-1
 318 407 l 2,33,34
 349 407 349 407 372 432 c 128,-1,35
 395 457 395 457 395 493 c 0,36,37
 395 528 395 528 372.5 548.5 c 128,-1,38
 350 569 350 569 311 569 c 2,39,-1
 223 569 l 1,40,-1
 223 407 l 1,32,-1
317 -51 m 2,41,42
 367 -51 367 -51 367 -95 c 0,43,44
 367 -142 367 -142 327.5 -191 c 128,-1,45
 288 -240 288 -240 259 -240 c 0,46,47
 243 -240 243 -240 228.5 -234.5 c 128,-1,48
 214 -229 214 -229 214 -218 c 0,49,50
 214 -217 214 -217 226 -180 c 128,-1,51
 238 -143 238 -143 238 -95 c 0,52,53
 238 -51 238 -51 298 -51 c 2,54,-1
 317 -51 l 2,41,42
EndSplineSet
Validated: 1
Position2: "'cpsp' Capital Spacing lookup 3 subtable" dx=5 dy=0 dh=10 dv=0
EndChar

StartChar: Rdotbelow
Encoding: 7770 7770 138
Width: 610
Flags: MW
HStem: -204 124<286 328> -2 21G 274 133<223 262 223 318> 569 131<223 304 304 311 223 223>
VStem: 69 154<30 274 407 569> 247 120<-172 -112 -182.5 -101.5> 395 158<473.5 516>
LayerCount: 2
UndoRedoHistory
Layer: 1
Undoes
EndUndoes
Redoes
EndRedoes
EndUndoRedoHistory
Fore
SplineSet
304 700 m 2,0,1
 553 700 553 700 553 512 c 0,2,3
 553 456 553 456 521.5 414.5 c 128,-1,4
 490 373 490 373 436 353 c 1,5,-1
 436 349 l 1,6,7
 455 342 455 342 475 315.5 c 128,-1,8
 495 289 495 289 508 257 c 2,9,-1
 596 37 l 2,10,11
 601 24 601 24 601 18 c 0,12,13
 601 -2 601 -2 541 -2 c 2,14,-1
 500 -2 l 2,15,16
 450 -2 450 -2 442 19 c 2,17,-1
 363 214 l 1,18,19
 346 247 346 247 326.5 260.5 c 128,-1,20
 307 274 307 274 262 274 c 2,21,-1
 223 274 l 1,22,-1
 223 30 l 2,23,24
 223 -2 223 -2 163 -2 c 2,25,-1
 129 -2 l 2,26,27
 69 -2 69 -2 69 30 c 2,28,-1
 69 660 l 2,29,30
 69 700 69 700 109 700 c 2,31,-1
 304 700 l 2,0,1
223 407 m 1,32,-1
 318 407 l 2,33,34
 349 407 349 407 372 432 c 128,-1,35
 395 457 395 457 395 493 c 0,36,37
 395 528 395 528 372.5 548.5 c 128,-1,38
 350 569 350 569 311 569 c 2,39,-1
 223 569 l 1,40,-1
 223 407 l 1,32,-1
247 -112 m 2,41,42
 247 -80 247 -80 307 -80 c 128,-1,43
 367 -80 367 -80 367 -112 c 2,44,-1
 367 -172 l 2,45,46
 367 -204 367 -204 307 -204 c 128,-1,47
 247 -204 247 -204 247 -172 c 2,48,-1
 247 -112 l 2,41,42
EndSplineSet
Validated: 1
Position2: "'cpsp' Capital Spacing lookup 3 subtable" dx=5 dy=0 dh=10 dv=0
EndChar

